<mxfile host="app.diagrams.net" agent="Mozilla/5.0 (X11; Linux x86_64; rv:138.0) Gecko/20100101 Firefox/138.0" version="26.2.14">
  <diagram name="Page-1" id="1vHnSOFSsolLFkFPDEML">
    <mxGraphModel dx="299" dy="-323" grid="0" gridSize="10" guides="1" tooltips="1" connect="1" arrows="1" fold="1" page="1" pageScale="1" pageWidth="850" pageHeight="1100" math="0" shadow="0">
      <root>
        <mxCell id="0" />
        <mxCell id="1" parent="0" />
        <mxCell id="5pn5844G3AZOIJAPQa10-44" style="edgeStyle=orthogonalEdgeStyle;rounded=0;orthogonalLoop=1;jettySize=auto;html=1;dashed=1;startArrow=classic;startFill=1;" edge="1" parent="1" source="5pn5844G3AZOIJAPQa10-36" target="5pn5844G3AZOIJAPQa10-40">
          <mxGeometry relative="1" as="geometry">
            <Array as="points">
              <mxPoint x="1522" y="1406" />
              <mxPoint x="1522" y="1314" />
            </Array>
          </mxGeometry>
        </mxCell>
        <mxCell id="5pn5844G3AZOIJAPQa10-45" style="edgeStyle=orthogonalEdgeStyle;rounded=0;orthogonalLoop=1;jettySize=auto;html=1;entryX=0;entryY=0.5;entryDx=0;entryDy=0;startArrow=classic;startFill=1;dashed=1;" edge="1" parent="1" source="5pn5844G3AZOIJAPQa10-36" target="5pn5844G3AZOIJAPQa10-42">
          <mxGeometry relative="1" as="geometry" />
        </mxCell>
        <mxCell id="5pn5844G3AZOIJAPQa10-46" style="edgeStyle=orthogonalEdgeStyle;rounded=0;orthogonalLoop=1;jettySize=auto;html=1;dashed=1;startArrow=classic;startFill=1;entryX=0;entryY=0.5;entryDx=0;entryDy=0;" edge="1" parent="1" source="5pn5844G3AZOIJAPQa10-36" target="5pn5844G3AZOIJAPQa10-43">
          <mxGeometry relative="1" as="geometry">
            <Array as="points">
              <mxPoint x="1522" y="1406" />
              <mxPoint x="1522" y="1499" />
            </Array>
          </mxGeometry>
        </mxCell>
        <mxCell id="5pn5844G3AZOIJAPQa10-36" value="" style="rounded=1;whiteSpace=wrap;html=1;fillColor=none;" vertex="1" parent="1">
          <mxGeometry x="1228" y="1240" width="210" height="333" as="geometry" />
        </mxCell>
        <mxCell id="5pn5844G3AZOIJAPQa10-25" value="" style="shape=image;verticalLabelPosition=bottom;labelBackgroundColor=default;verticalAlign=top;aspect=fixed;imageAspect=0;image=data:image/png,iVBORw0KGgoAAAANSUhEUgAAAfAAAAHwCAYAAABZrD3mAAAACXBIWXMAAA7EAAAOxAGVKw4bAAAgAElEQVR42uy9e3Bcx33n++k+j3lgXhiC4BAEQfAFvimSoihRthPJkuJotZESOymtY1eUW3Z2K1ElqaS2UuvarKtSSdXG2VRteXeTW/c6Xid2OdcpyXJs3Ti3JFmWLEt+iJIoieADBF8gCRAgAAKDeZ45033/OOcMIZpS5JgAMWB/qqYwOBgAM+f06V9/u3/9/QkMBsNPhdYaYBOQAuJAIfzRANARHusOj/UALpC8zrHW37t48SK+7zM3N8fU1NR1/69Sih/96Ed4nrdgny0Wi3HgwAGklNf9eVdXF6lUCsdx6OnpQQgx/8ceMBo+nwAq1zlWA+aA4fDYpfBYCRi+5u8ZDIb3QJpTYDAYDAZD+2GGuwajqLV2gd7weS5U0K4QIh++JB8qZhdYobXm8uXL+Uaj4dbrdXtmZiYFcP78+Xy9XneVUnaz2UwCTE9Pp3zfty3Lsh3HSWqtmZiYyPi+/47B89zcHEopPM+jUqm8q/K/ePEiSqkFOxeWZV1PWbdIJpO4rouUknQ6/Y6fOY7jr1y5siSEoNFoVJrNpu84jt/Z2VkK/3ZJSqlisZi3du3aaYBcLleKxWK+67peV1fXdPh/p0LlXgNmws8+CfhATQgxAyhgVAjhmRZsuFWxzSkwGHCBPgAhxAYgQzDlvTn8eXQsBWwSQqCUotFoUK/XKRaLaK05ffo0xWKRRqNBuVwG4MSJE1Sr1XcE4UOHDrV+vpxIpVL27bffnguDcC4K+AMDAwB0dHTgOA7ZbJZsNtsaEEgpsW17/qBhiGD6vQicDq/LiXkB/Wx4LifCQG8wmABuMCwnlFJore0wANiES0bhcwBbay1930/6vp8B8DwvpZRKaa0ToRKPFLqttZbh+jfT09PU63Wq1Sqzs7NorSmVSlQqFRqNRitoe55Ho9F4RwCP/sYynMmg0Wi8Q717ntc6F1JKGo0Gtm0zOzsLBGvusViMeDyOZVlE1ye8RrYQIh6q7bQQwpZS+q7rZgBs2+5SSlWEECpU52it/ejya60VoIQQ/rut6RsM7YyZQjcsW7TWcWB/+O1WoFtr3SGE2BMe2w50eZ7H6OioBDhy5Iicnp6WlUqFU6dOSYAzZ87IUqlEsVjk7bffllGwujYghwMG5v/8etPdzWZzeXYmQlw3+S06FgX2+a8TQrzjOMDu3btVOp0mnU7T39+vhBBs3LhRJRIJurq61Pbt25UQgtWrVyvXdSFIjjsenvfXhRBVguS4oTCQvy6lrJk7wmAUuMHQPsh5DxuICSHcUFlLgmny1LUqUilFs9nE9/2WiozUdqlUMmf1PRT49QYnP+2ApVarSdd1icVi+L4voyWL6w2QQirhtVTzFLsdPpS5MgajwA2GJYJSSgohMmEQLgBdYWcdJaL1Ap2e59lnz57t0VozOjqan5ubS3qe546Pj3cDzMzMdNXr9aTv+62tW5OTk1SrVRqNBjMzM2itmZ2dbQXxiYkJcwEWmFWrVuG6Lq7rks1mEULQ2dmJbduEKhyAFStWYNs28Xi8ks1mJwEKhcIlx3H8TCZTWb169bQQQvX3919yXdcHpoQQ0Za2kTC4T4ZqXWmti1JKE/ANRoEbDAs26hRCEiSVSa31pjDxLA7cAchwirw/VHNorRkfH2d8fJxyucxrr72G1prBwUEuX75Ms9lkbm7OnNglwvj4+Pt6XTqdxrIsVq1aldy2bVufEII77rijL5FIsHr1ajo7O5FSzp+mPw28FQbuHxEkwA2HCl4RJM0ZDCaAGww/q8oOn8p57dQGbKWU9H0/B8hGo5FSSiWBhO/7LlenzKnX6y0VXSqVKJfLVCoVPM9rTfcu56Sy5U507ZrNJp7nIYSgUqmglGJubo6ZmRmklFy5coVwrVwS7DhQtm13ALaUMuU4Ti48VlJB0oLP1al3L3pu1LlhyYkZcwoMSzSA54QQubDDvT8M3ncA25VS9tzc3FattTx58qS8ePEi1WqV73znOyilGBoakpcuXaLRaHDx4sVWZz+/47/2mKHtZ2Xe8TV6LoRgzZo12LZNT08PmzZtUpZlcf/99xOLxVi7di0bN25UQgiVTqePSyl9guS3Y2HwfgrwtNYzUsoZc6YNRoEbDD8d8jqP1rawaxVZlITWbDbfkfhkWN5q/HqDMiEEzWaTKBEu2gp4zetkqLLnty8L41RpMAHcYLiuwr42Ea2bYK/1HkDWarVVnud1eZ4nX3/99T6llJyYmOienZ3NNxoNefLkSamUYmZmhnK5jO/7nD9/Hq1165gJ3gatNVeuXEFKSb1eZ2pqCiEEFy5cwLIsUqkU2WwWKSUDAwM9tm2rfD6fWrlyZb9t2+q2227b5jiOcl13Qil1mSDT/fUw4F8i2MKmQoVuTrjBBHDDLUOKq9nj2wnsSz9GMG1e0FoXlFJcvnwZ3/cZHBxkeHiYWq3Gs88+u2z3UxtuLJHr3dzcHGNjYwAcO3bsnR2hbcsHHnggH4vFGBgY6Nq2bRuO47Br1667wkHgJSHEJa6uiSvgCIE7nE+QAGfWyA0mgBuWnwoidDUD3NDZTBJU5ZKlUqnb87xOrbXt+76rtbbL5bKs1Wp4nsf09DS+71MsFqlWq9RqxpPDcOOp1WqtBLjp6Wkcx2F0dBTHcUgkEjKZTNpCCBzH6QSU67rdqVSqFAZwTymlQm/2yN61ZqqrGRYS07oMixHAJfALobLeDtweDh7vB+InTpzg+PHjeJ4nn3rqKRqNhjx27BgnT54ErrqZXc/9zGC4YZ3hdVzhomnxrVu3MjAwgOM46ld/9VeVbdvs2LGDTZs2Earw58JA/iqBK1wNeC60eTUYjAI3tDXXJqDZYUC35wfnKPms2Wy+w0PcYFiEgeZPDAyjZRrf92k2m1iWJQn8B+a/1p7Xl85v5waDCeCGtuj8bILpcQncLYSIa60LQoj1Wms5Nja2W2ttDw8P54aHh7uazaY8fvy43Ww2mZycbBmqnDlzhig5zWBYKoyNjVGpVJBSMjU1hZSS7u7uyA3O3rJly27LstTAwEDvhg0bZqSUXqFQuFdrrbTWp4QQE1rrCvBKqO49IYRvzqzBBHDDUlHYbuiSthtIExQQORAqmD6llJycnOTIkSN4nsdTTz1FrVZrPQyGpcrMzExrUHnmzBkA4vE48XicZDJpf/SjH+2zbZsVK1b0r127FsuyfILlIoAfAkNCiFkgymA3wdtgArhh8Qld0qIpwhzBlGJSCJFRStlXrlxZAaQ8z0s1Gg1bay3Pnz9Ps9lkfHyc2dlZGo2G2adtaGsizwHf95mdncW2bS5dusS5c+ewLEtGpWwdx0m5rpsH7Hw+3y+EUFrrGaVUhasZ7ADKuL0ZfhpMEpvhXxPAU0KIrvDb3w2DeD+wWykln3322UytVpNvvvkmL774otRa84Mf/KC1pv1epTYNhnbk2pKpsViMO++8EyEEH/7wh9XOnTtJJpPcf//9KnzN9wm82SeB/zO8LyaklBVzNg1GgRsWpd/iJ5PTIrcrGSmUyK/a7Ns2LONB7Tu+j2aXhBDXur/JeX2vSXYzGAVuWDjCPduZ8Nv7CcxXeoC9WmtefPHFrfV63T179mxycHAwr7Xm+PHjru/7TE9PMz4+jtaayclJo7jfg87OTizLIh6Pk0ql3lXlbdy4EdteuHF3o9Hg1KlT77qsMTc3R71ep9lscuXKFXPh3kORd3V1IYSgUCjQ2dmJ67ps374dIQTbt2+fWLt2bSmRSNQ+9KEPDYWq/DUCd7ci8Hz4p4rh3nKDwShww0+NGwZtCIqJ5LXWG4QQPwdB/exSqcTg4CBPP/00WmsuXLhg1PZPSTKZxHEcUqlUq9719YLCrl27ospaC0KtVmtV9LoelmVRLpdpNBomgP8LijyqHR+VR7Vtm6GhoWhg3G3bdnc2m4WryW454CyBPeuPw2MVrhrDGAwmgBveVW3PL92ZA2zP8zK+7/eFwTqvtc41Go2k7/utYF0ul5mamsLzbr1+xrIsYrEYAI7jtMxAIpUci8Vax6J1Utd131GnWghBV1eXsm2beDzuZzKZ62YoCyFIp9M1x3Eg8N++YZ8jVIDSdV0KhUL83f52Mpm06/W67fs+2WxWhu2mldAVtYFo6WT+sajNRIlfQEvN3yL3V+tcTE1NcfHiRYrFIsePHyd0eEvatp0TQqiurq6BsE3FtdZFgmS3aG+lbwxiDGCm0A3v7GCSBEVFAH4LKNTr9f5qtfpzAF/+8pflzMwMx48fl88++yxaa2ZnZ1ud9a2YTd7Z2cnu3bsBKBQKxGIxkskk3d3Bady8eTOJRALHcejo6EAIwcDAAPF4HNd1SSaT0Z+KvLSngQvvJuyAo2Fn7hG4fd0o4uFsi0uw/e/d1mb7osFdNDMTKfJqtcrJkyfRWreOVSoVhoeHW0o0ssKNVOnhw4eZnZ295dpNNJizLItMJoMQgl/8xV9k8+bNqquri1//9V9XAIlE4vlYLHYBGAW+GP76JSGE2XdpMArc8O59DMH2sPnJaT+hoJRSt/za9nzbzUhZz++g5z+EEFiWhW3bra/vEqjf7fi1jxvF+/276tr3aNs2WuvWZ4yeK6WwLOsdGdrzz9GtzPx7JpqBmF/udN4Ayji7GYwCN/yE2nZDJQXwYa11HlglhNivteYb3/jGhtnZ2fjY2FhycHCwG4IKTvV6nbm5OS5dugRcnRZdLnR3d5NMJkkkEqxfvx4hBN3d3SQSCWKxGKtXr26p7Xg8jmVZXiqVmgkD2YyUMtrXewEgk8lM27btCyE8KeWV8HdnXNf1bduuJRKJaA9wNG1eI1j3fLfrVpwXQG+kGUgrK1oIkXqP16VCld4SAJVKJddsNt16vW6Pj4/nwmDUqbV2fd93i8ViLgxU3UBcKeX6vp8Lf7eglIpXq9WWKh8dHcXzPCqVCpcvX0ZrzenTp6nVapTLZS5fvrysBn/RIG716tWkUikSiQRbtmwBYNeuXROrVq2qZDKZyv33338WIB6P/8h13UkhxCTwQvinZkyym1HghltLYUfzt7uEED0EZT3vF0IwMTHB+Pg4Q0NDfPvb3wagWCwue7Xd0dFBNpslk8mwefNmhBBs2LCBdDpNR0cHmzdvBmDTpk1RtriaF3AnCaa2pwmmugEuhscqBMlJEEyHekAp7ITbfTDYDSTT6bTb1dXVE42FwvblAmvmDU5SXK1MB9AVta3Tp08DMDQ0RKVSoVgscubMGbTWFItFSqXSslum0Vq3/BFGRkZaszanTp2KZje66/U6q1atQmu9PQz6thBiFBjharJb0XRpJoAblqfann+to/XLDIH5CpcuXepWSuXr9XqmWq22ktMmJye5cuXKskgychwH27aRUrbWnePx+E8c6+np8VOplEomk6qrq6sWBvVaIpHwY7GYklJ684JRtBY9eU0ALwJj84754etL4fWohT7Yy8VOMzoPKvqMYeCuhV+jZDdbCJHUWrtCiOK88xgXQthSyjhALBaLh94Bdj6fd7XWrFu3Llmr1eTc3Jzs7Oy0tdaUSiWUUjQaDer1OlprKpUKWmt832/bYjiRbwIEyW6JRALf91vJbvl8PtPR0VEL/dajDHZba12a1/4gSHYzHeAyxlzdWyOAtxKOgF8F1hIkIz0M8PTTT2empqbsoaEhvva1rwUSMZzGnDcAaGv6+vrI5/Mkk0n2798f7cVl5cqVdHR0sH///kiBTziOUwEqQoih8NePAFNa64oQYhhQSqm3pJTvVXHlfU1VROvD7Uw0KxOalvxLsz6t185vW1rrvBBid/h8UxjoM8D68Pf2hW24lWj5ne98h1KpxPj4OMePH0drzauvvkq1WmVqaorz58+3fwc9z9ktWr75xCc+wcaNG1m1ahUPPvhg1M6+HCryM8A/hsdKpmCKUeCG5Yu8duR/K9Tcnr9969otXvOfX+f3WgleQgjjW/3TD0LUewwCVLQ1ar5qDJ+r66nUa6/hcmyv7+N+lP/C9wajwA1teuPvCZVND/AIwNGjRzeUy+XU+fPn488//3wPwJtvvmmXSiVKpRIXL14Egv257bTe7boue/bsQQjB+vXr6e7uJhaLtdaxV65cWUun074Qoua67lsAiURiJBaLFW3brvX09JwEiMfjlxzHiabHo+ngaGrSJ1zv1lpHCWuGG6PiXSFE5PiXItgBYQshojyNaOknCXRrrTl58uTmRqMRr9fruWq12gvged5urXW8WCy6k5OTrlKKkydP4nke4+PjnD17FqUUhw8fbqspdilly2+gt7eXjo4OUqlUK9ntoYceGunt7a2lUqnStm3bTodt9OvARJhn8ZaZTjcK3NBedIfBeyOBDSr1ej1VLpfty5cv8/LLLwNXk4baGcuyKBQKSCnZsmUL/f39JBIJDhw40DJKSaVSUQC+QGCEMhh2biXgUPinJoQQpqDE4geoa3MJ3m1gmgzbNQMDA0UgqbXuDtW7BAYAe25uTk5NTblKKTKZDLVajdOnT7eMYyzLaqsArpSiWq0CcPLkSSCYVr9wIbAMuOOOO/o6OztxHMcHNoSzF2/zzoRBgwnghiV6g9sEW4DiWuveMMlnQGu9ulKp9Fy5csUGGBwclLOzs5w7d45yudzqHNqBZDJJPB5HCEE2m0UIQUdHB7FYjFgsxsaNGz0pJStXriyl0+laLBZTQojpcIp3hqtbtE4STMuOzjseJaeZafEl3tTnXavJMED5XN0GlwuPJaWUGYCOjo684zhy5cqV8fXr18eVUtx+++1Jz/Na1rGRKZHWmmq12gqWSxmtNbVaDSEEp0+fxvd9Ojs7icViNkA+n1+bSCRiUsp4R0fHpfA+Hw23myljBtP+mDmVZUK0lYcgs/y/AIyNje2u1+v5U6dO8dd//dcS4KWXXmJqaqqtAnfEjh072LRpE/F4nPvuuw/Lsti1axcbNmxASulnMpnRsNbyYSHECEE27jfDTn9ESjkddXzXBoXrrLsalmjQmvf8J9Z7o2unlOoi2BZpEywfpbTWPcAmQM7Ozm7XWtvDw8MMDg7i+z7PPfccnudx4sQJjh8/3m4zGEDgY3D33XcD8Pu///uqr6+PeDw+WSgUjoTn7L8JIS4R7Bs/a1qUUeCGJXYv85MuTq1g3e7OafOTzqSU73A4k1LOD8Q/4Vpm/KOXgeJ45+BKvUeg93kXd7nIKU5r3WpH13rTt920xHXu73kDnGv7BINR4IYloEZyhFvBgAeA/rGxsfg//dM/bQjVdmZiYsIulUqtKkhXrlxZsmt/4Vo1Ukq2bdvG1q1bcRyHffv2YVkWK1euLK1YsaIihKilUqnDQgg/nU4PZbPZc4CfTCaHwiBd0lpXwqA9EXbeNbOl5pa6N2yCqXRJkPQWLS8lAVkul/u01vaVK1f6y+XyFq21XalUPqi1di9fvpycmppK+b7P66+/ju/7HD16lBMnTqCUYnJycslmvLuuSy4XGCxu2bKFjo4OCoWC94EPfKAkhOCXfumXznZ3d3vAMPBs+Gv/OG9fvsEocMMiESdIUAM4AAwopVqZ5IcPH2ZkZATf9ymVSm2hrhKJBFJKVq9ezZYtW4jFYnzgAx/AcRxyuZyXy+UqBGvWIwRrn28CxwnWRY8blW0I29L8XQTFa4K7TKVSI4CdTqdnACfsC/cA8StXrrizs7N4nke1WsXzPKamphgZGVnys1ee57XKmFYqFWzbZsOGDW5/f38+VOj58KUZ4HQU902LMQHcsIAopeZbn/YAqVqt1lUul/sAxsbG4vV6nfHxcc6dO9eqCOX7/pJ0UhNCkMvlkFKSTqfJZDJIKdm4cSOWZbFhw4ZSPp8vOY6jLMuaDqfHJwhsSj2uJqJNhB21UdeG9307cXVb4DSB+YlNsBPBFULkpZR5KaXM5XLdvu/LDRs2JJVSSaUUkRPc3Nxcq3b6UlTl0X0/NzfH2bNnEULw5ptvcvHiReLxeLJQKPQBpFKp3UqpmXCgcyn89YrxOWiDgao5BW0TwONCiK3ht48D+8vlcvzkyZNbAT7/+c9z+PBhyuVya5vJkh452jYPPPAAsViMO+64g7vvvhvLsjh48GBU3OF14K1QbX897GxPh8lpBsOCobUuAAWCGa7Hwq9bga2NRoMf/OAHOaUUhw4dYnBwkEqlwlNPPdWq0LeU2bJlC4lEgv379/P4449Hx44nEoka8ArwhXCAc9wUR1n6mIQGg8FgMBiMAjcsgPL+OQJjhjzwcUA+88wzPSMjI6nJyUn55JNPJgEuXrzYKu6wVPawOo5DLBZDCMGdd96J4zjs2LGDO+64AymlWr9+/aRt2yoWix1Pp9NHAL9QKHzXsqxoanOawHBlMrTKrEkpzd5Vw0IrcJerRVi6ubq/POf7vj02NvYBrbWsVqv7fd/f2Wg05MmTJ7u11rzxxhsMDw9Tr9d54YUXWnu1l4o6j3JM0uk0PT1B4bhHH3200tnZqfr7+4v333//pVCBf5XAI2FISvmKaRVLE7MGvtRHWEJ0ERR06CIo6CCLxSKjo6OMj4/z+uuvL+X3jm3bkZVpy9r0wIEDSClZs2aNFwbrCeAUwbrkD8OvNWM0YbhJ7dbjqllMMQzqcSBu27a7du3arjCo9wE13/ftzs5OpbWWlUqlZQ5j23Zrq9pSIRrcl8tlLl0KlrvvvvvuZLVapaurKxU6N6rwPowG0QYTwA3vc+Qvw9H/VoDp6entzWZzU7VazUS2iYODg5w6dYorV64smfc+fy/tmjVrsCyLfD7fqqA0MDAwY9u2yufzRcuyZsIs4SGCte0TXM0qj5KLTAKNYSmhAD8sojIa3qdvhm3Vtixrk9aaXC7X3d/fn6nVavJDH/pQDoLKfleuXMH3/dYOkWazuWSS3kZGRpiZmUFKyapVqxBC0Nvb2xePx/OWZVW11lFi29Ho3jTr40tksGlOwZIK4F0EhRzywH8DOH369PZisVgYHR3ls5/9LEopzpw5w+zsbPQ7S+K9u65LMpnEsiwee+wx0uk0t912G/fccw+AymQyPwz9rg8DL4YdwXNcrSN93UGBwbAkove7bx+LBtwHQkH0ILC/2WzG5+bmDgDyueeeY3BwkGKxyN/+7d+2dogsFT+GyLims7OTdevWYVkWf/Znf8aqVavIZrOj69evj2zp/iCckSgKIYwyNwrcoJS6XhCWkYtSVEbweo8lMwq8TnnOa12thBDqmtKQSmttSnIa2oL3GEyqeaVQ31Fudl7bv979sGRKoF5bsvQ6Dxm+59ZJiLaovVf5XYNR4LeC6o4D+8OR/K8A+4vFov3Nb35zO8Bzzz2XPHnypF2r1Thx4gRAq6LSTRv12XarqMhDDz1EKpVi48aN3HnnnQgh1OrVq486juPFYrGj+Xz+ZYBYLPaKlNILHdJKYUdXNAHcsAzuYam1ToUBLQcklVLxer1+F8DU1NSHPM/b2mg03LGxsZ1aa37wgx9w5swZisUi//zP/7wkkt1s28Z1XYQQLROlrVu3evfee28N4KMf/ejRjo4On2B9/OnwHv6xmU43CvyWHtwTTJlLgmzznVprOTU1lQE4e/Ysx44do9lsLpmSn1LKVnLa6tWryWazbNq0ib179wKQTqdLlmXVCKp9HcfsKzUsZxUUqO/I7a2V9JZIJDKA7O3t3Qz0NJvN+KpVqwCYmJig0WgwPT3dSna72R7svu+3BhDDw8NIKUkkEu7U1FTk1Ladq+ZJeYJlMCO/TQC/JUftBa11vtlspur1+h2APH36dKFUKrlzc3McOXKEcPROo9FYEhaOhUIBx3FYsWIFGzduRAjBxo0bZzo6OvxcLlcMqxwp4McEBiwnuVrb2Shtw61EtBUSYDC8H5KR1W9nZ2dh3bp1mXw+b9933305rTVnzpxhZmaGer3eSna7WTQaDaSUXL58udUX/ehHP7KTySTpdLqwfv36OwA/FotdUkpVhBDT4f1vWMzBozkFNy2AfxT4ULPZzMzNzf0GYH/pS1/ie9/7HpVKhWeeeWbJvedf+ZVfIZvNsn//fj7xiU9EavuHodp+nXBaTWv9Y7Nf22D4iXs+DtwV3U7Abt/3k6VS6QDAE088wdGjR7l8+TJf/epXl9z7/8Vf/MVWKd9PfvKTAH46nf5by7JKwHeFEN8yV3lxMdMfBoPBYDAYBW54j5G3q7VOCiH+BLDPnz+/s1gsbpiampKf+9zn8o1GgzNnzjAxMUFUKOFmsn37dpLJJDt27ODRRx8FYP369ROxWMx3HOetrq6uJwAcx4kUeE1rHa0DmkIIBsM1zC9IJITIAPFms5lsNBoHAKamph7xfX+gWq3Gz5w50w/wjW98g+HhYYrFIq+99tpNff/pdBohBIVCgXXr1uG6Lp/5zGemc7mcymazw729vUcBT2v9J0KICoEZk8l7WUDMGvjizna4BIlqtlKqp9FodNVqNYaHh/E8j8nJySVT9jOZTJJKpeju7mbbtm0A9PT0eK7r+gQWi6fDwclp45hmMLyPDiAY1EY3eCkM6sl4PN4FsGbNmmmgVq/XicfjALzyyitcvnx5SeTARKJCa43necRiMer1ej7M0YnK/NbCuCIxM7wmgLex6pZa60z47QDQV6/Xk+fOnesG7Lfffjt54cIFZmdnmZube0cG6GITj8eRUpLNZlm/fj0ABw4c8FOplOrr65txHCeqABZVBztBkIkKJjnNYPhZ8OfdS68SJH2mHMcpAWzatKm/o6MjMzs7K6P+emhoiNnZWZRS1GqLP3b2fZ9yuYznebz88suk02n6+vqS1Wq1WwjhrVu37sOxWKwCnFVKDYczDsUogc9w4zBT6AsXwG2CbRcS+D+Ah6vVqv3EE0/0KqX4+te/zve//32UUhSLxZv6XlevXk0sFmPHjh18+tOfBuCee+4p5XI5n8A57e/Clz4lhCiaq2swLBxKqbwQ4uHw208BO2dnZ+033ngjBfCXf/mXDA4OUqvVWn7mN32dpi4AACAASURBVItMJoOUknvuuYdHHnkEy7LUr/3ar12Ix+MKeJKgKIqvtT5qltWMAm+HwA1Xp49sQDabTQmBe5Hv+yilWlNiN8uJab4rlG3bOI6DZVnMGyVHFqfGl9xgWOQYPu+e88NH6960LEs6joPv+1iWFQX9m+rqprVuzSA2m03ZbDYVIC3LsgEphLC11tfdNx45vf0L56PVb4W/8xOOd0aBG25EQ94A9BN4mn8GcF944YXC4OBgV7lc5q/+6q/cZrNJsVikXC63br6bobrvu+8+AB599FEKhQKu614oFAovACqdTv9DPB6fBErz9nfOmGkwg2HB+xAbyITPe4BkrVYrVKvVjwHywoULH/Y8r+fSpUt8+9vfBuCb3/wmo6Oji/5eIxvVVCpFOp3GcRwef/xxL5FIsHv37skPfehDl8IByP8TioIuYEUYyDeFXzNhf3k9fGA4fH6JIP+mSlBYRQGvCyEuGAVuuFE3XzzMMM2EgTxeq9Xik5OTbrlc5uLFizfVBjXCdV26uroAWL9+fVRBzEun05HxyunwhvHCjFKDwbAYqiqo1Dcd9iceYCcSiVIikZgGsG3bV0qRSCSInN0cx7k5UwWh+CgWixSLRRzHYXJy0k0kEtTr9TxB1r0HrAq/FghqrNsEuUGRE2XmXf7F/Cz2OEGOQCXsm1R47JbFBPAbE7Sj2sB2tVrdo5S60/O8+NGjR+NKKffQoUP2m2++Sb1evynTXLZtk06nAdi5cyeZTIaVK1f6u3btKgLEYrHjUspSOJJ9NVLbXC3taTAYbg7RElYReDW0XE0JIXpisVhq69atOwHuvffezOXLl+2ZmRmOHj3aCqqLLRaUUhw5cgTXdXFd147FYq4QQuZyuZ1CCH9mZiZXLBYzWmtZq9VSgPQ8z363ymxCCJlKpfJCCFzXxbbtnOM43vr1610pJZlMJqe1Hg37qtPhr40IIWZuicGeuT9uSAB3gV8F3FKp9DHf9/9tqVTiz/7sz6jX67z66qsMDg7etPfX0dHB5s2bAfhP/+k/sWXLFjo6OoqbN2+OGvx/J6jHPSmEOGKuqMGwNFFKIYTYECrWAYJlOoaGhjZVKpXU4OAgf/mXf0l47KbWT9i9ezf79u3DcRweeOABHMfh2LFjDA0N4fs+R48eRSnF6OgoExMT1/0bsViMO++8Eykla9euZcWKFWQyGR5++GEsy6Kvr6+Sz+e9UHB8Ofy1fxBCHL0V2oPZp2cwGAwGg1Hgt5zyPgDcrZSKz83N/S7gfvWrX01+61vfSjYaDV577TWazSb1ep13myJaSD7ykY+wZs0a+vv7W9vDEonEk67rjgKnksnkk+FLi4RTdcY5yWBY8v1OZJRiAzmASqXy74B1nuf1VavVXwb4yle+wtjYGKdPn+Zb31p8m/JwGh2gVX640Wjg+z5a61af2Gw233WqXwhBLBYDwLKsaKcMyWQSgIGBAbVq1Sry+bz6nd/5nRLAmjVrhvL5/CRBNcTPE9RnGJFSlpZbWzBr4D8bcaATiGut80C8Wq0yPj6O7/vMzc3dVAelZDJJJpMhl8uxevXq6HCJYLppWggxai6hwdBmqitIcoNg3bcSBvVpIJtMJvO5XA6AfD5PtVqlo6PjprxPz/PwvEAP/GsdJqM66dcyOzsLQDablUIItNay2Wzmwt/pJnC99MOvimU622wC+L9u9HsAsIvF4l2NRmOf53n2iy++aPu+z1tvvcXU1BTNZnNRE9Zs2265qR04cACAgwcPVlavXq06OzunCaqFAbxM4Pw0Ya6mwbBsGCLIXB8j3JLV19e3p7OzM5VKpdxisZgBeO211yiVSvi+f1Nc3G40MzMzKKWYm5vjqaeeAmD37t2pNWvW2K7rqr179/6b0EDm/9NajwD+ckpwM1PoPyVKqbgQ4r8Bqampqd1zc3P7yuUy/+E//AfK5TJjY2OMj48v+vvq6OjAcRw2b97MX/zFXwCwc+fOS11dXTWt9VEhxH8OXzoshCiZK2kwLEuBkSGotwDwX4AN4+PjmWPHjm0A+OxnP8v58+cpl8tcvnx5WZ6DX/u1X2PHjh2sWrXK//f//t+XpJRorf+zEOIVoCKEGDIK/Na7MaTW2lZKueF5sz3Pk7VajXq93nJXW+xtYpGRguu6xGIxXNdFCOGHTmsegXd55KpmMBiWucaYd697BBXB4tG0u+u6djwep9FotFzcloIvxY2k2WzSaDRoNBp4nocQAiml7ThOHPDDqnAAKuo/jQJf/sr754QQv+T7vj00NPRJpVT8ySefdJ944glXKcXZs2dRSr1nQsaNJplMsnv3bgAef/xxbrvtNhzHmV6zZs3zAI7jfCUejw+HQTxyK/KNm5rBsHyFxjxh1gu41Wp1U6PR+BWAsbGxX/Z9P3/48GH+7u+CEgcvv/zyTd1udqOJZiNXrFjBww8/rKSUfPKTnxzds2dPiWCp4TPhS0fafTbSKPD3O9IRIklgA2j7vp8KM88ZHR1Fa31TTFqEEK2yg6tWrWLt2rVIKVU6nY4a5QQwqrX2pZQmu9xgWP79lAqVN1rrCQIXt0wikShe1SLB3usoua3dVei1RBbVUkqmp6elEIIwwS1FkMDrhi9t+w9uAvh7q24phLgbiE9NTR2o1WpbPc+zn376advzPN5+++2bErg3bdpEPp8nm82qBx980AdYsWLFUcuyJoUQk1rrZ8Ob+RLGTc1guFWJXNwmgJfCoNYlhMivWLGi+yMf+chuAM/z7GKxKCcmJhgaWjbLw9TrdY4dO4YQgtdff91tNBrSdd2uffv2/ZvwJU9qrWthX9mWAscE8H/5/HwMyFWr1Z2Tk5P7q9UqX/jCF5idnaVWq92UTM69e/eyY8cOuru71W//9m9Hc1/PA28TuKn9v+bSGQy3vBqPOqezBLW5SaVS00Bu3759d+zbt28TQDwez8zMzHDo0KFlFcDL5TI//vGPAdiwYYM7OjrqFgqFvn379v1W+JLXw8GNzzs9100Ab3flDdhh0poN2I1GQ9br9Zbijh6LeDO2ChbYtq0syyLcHhE1vEhpG7VtMBjetXub10/UQlWetCzLtm1bRsYrjUbjppYnveFTEb7fMpGJcpSEELaUsq1joEliuw5a6w8CH2s2m/bx48f/nVIq+dRTT9lf/vKXXa0158+fbzWChW7kiUQCx3EoFAr80R/9EVJKbr/99pF169YVhRCjmUzmc+FLjxOs76h5I2+DwWBo9VVh3QYJZIQQfQClUum/aq0L58+fzx0/frzX933++I//mPHxcTzPWxb7xePxOLZtMzAwwP/4H//DB+jv7//bNWvWnAQuCCH+3ijw5UOcwKLQVkolm81mslarMT09jdZ6UU1awi0Q2LZNZ2dnZNaistlsNO0TlR0sSSlN2U+DwfCufUnYZxDOLE4CpFIpD/Cz2azK5/P4vt8yhgp/p+2JBiGVSoVGo2GHfWYc6KCNS5KaAH51dCq11h8UQiSnpqYOVKvVnY1GQz711FN2rVbjtddeW7SRqJSSVCqob3/XXXfR399PNpv11q5dOyKlxHXd54EzYfCOHNVMlrnBYHi/eAQ1EACeBnKO46zv7u6+u9lsyoceemhTsVh0z549yxtvvAHA1NTUTbWGvhEUi0W++93vApDP5zf19vbmCKyw3TAO+OHSpAngbRbAbSHELwFdtVpt6+Tk5P56vc6Xv/xlpqenFzVhTQhBPp8H4MEHH+See+7Bdd3atm3bjgohlNb6CeAQwZ5u46pmMBh+WpEwf/bu7wHZ3d29v7u721VKyccee6zX9333xRdfbJX6vHLlStsH8JmZmVZhlwceeGAnV/3Sk2HfW6KNTK9u+QCutY6S1dzQ59z2PM+uVqvvSFhbrMAthMC27Va1Hdu2/Xl7O6MpcmPEYjAYbhRRsY8osU1KKVX4wLKsZbNRXGvdGoQ0m00ZLodK27bbMhYaBQ4HhBAfB+yhoaFf9X0/9fTTT9tf+MIX0FozOjq6aM5qq1evJp/Ps3LlSr74xS8CkE6nv5dOp4eBS1rr/x7ebDVMtrnBYLgxRMLgFYKZPXvz5s19QO/ExET+rrvu6gE4evQovt/e3U6tVuPo0aMAvPHGG0nbtuOO4/QeOHDgFwjKjj5PGxV6MgE8OAcpgoS1uFIq7nkes7Ozi56wZlkWtm3jui6dnZ0AxONxLxaLVYCy1rrYTuszBoNh6TPPWtkDPKWU7TiOB/i2bfvR9tXlkNCmtW4NQkK/dCkDK7q2dGe7ZQO41voAEA9Lgu72PE8++eST7tzcHG+//Ta1Wm1RArfrugwMDCCl5ODBg2zevJlEIlGxbfv58Kb5DoF/b8l4mBsMhkXqHzNCiFyxWEyeOHECoO3V97WcOXOGWCxGNptNHjx4cAvBFtzvmQDeHtwNdDYajX1zc3P7arUaTzzxBKOjo9Tr9UVLWHNdl71792JZFo888ggHDx5ECFFJpVJfD1/yPSHEadOlGAyGRVLkABkgNzc35x47dgxYflXLhoeHqVar9Pb2xoGtBMuTSRPAl+6oslWpRykVB+Ke59nlcrlVEnSxktYsy8KyLFzXJZFIRN9HbmoVrm4LM6rbYDAsOGFylwz7yeiYjJK+lpMzWzQgCZ3ZorjQdn3trabA+0Llzdzc3O9qrfMvvvii/b/+1/8iKglar9cX5Y3s2bOHLVu2kM/n1Z/+6Z+WHMfBsqy/dxznpTCAfzt8qUlWMxgMi0FSCNHVbDbtUqmUBzIzMzPywoUL8wP8suH48eOMjIzgeV4GuIsgiS1jAvjS/rxRsoILxH3fp1wuo5RqKfBFeSNhsprruiSTSeW6LlrrmhCiAlTatTqOwWBoW2T0CPtBOX/b1XJjngJnngI3SWxLibAhbtBax6vV6p5ms/kxgK9+9avJarXKW2+9xdjYWCvjfKGD9s6dOxFCcO+99/p33nmn77puUQjxtVBpv0jgaW5Ut8FgWGxcrXVOKWVfunRJaq2ZmZlZth+2VCpRq9Uol8uSwE7VBPAlOqrsF0JklFJ3+r7/bwG+9a1vMT4+ztTUFOPj44vyRizLYvfu3Ugpueeee7yPfOQjkRvSVwFPCDEihJg2/YjBYLgZAVwIkQPsiYkJqZRibm5u2X7YcrkcfW0FcCGECeBLRHm3poMI9nlnPM+LRxft2tJyC628bdsmFouRSqVUWJykRuBFXMSUATUYDAaDCeCtAB6Vy7OBzwD9R48ejX/lK18B4LXXXmNubm5R1rx37drF9u3b6ejoUH/+539esm1bSSn/b+BprbUnhHiLIIHCZJwbDAaD4dYO4CGRAneBuFLKjbLMm83moiVnWJaF4zithDXLsiD0NhdCeFprZRzWDAaDwXBLB/CwxivAAPCJZrMpX3rppUKtVosfOnTIfvXVVwEWfLuYbdvs2rULy7K4//77/Q9+8IO+ZVkV4G8IkiVeBkYJps5N8DYYDAbDLa/A3VB19wEPAwwODnZNTk66b775JoODg4tzYm2b7du34zgOH/zgB/2HHnooWvN+IgzaF4QQk6YJGgwGg8EE8ECBJwG3Xq8ntdZ2s9mkXC4Tua0tRuC2LItYLEZHR4dyXZdQeV+bsGZUt8FgWJIE9T2WRwETE8DbCCHEnwAbzp071/2jH/2o1/d9/uqv/oqLFy8uSsLazp072b17N6lUSv35n/95KZlMKoJp80h5v2WCt8FgWMrBu7e3F601+XzenBATwBf9M9kE5UFRStFsNhfNiF8IgZSScKtYlLCm5itvM6o1GAxLXAiZk2AC+OKgtS4QepyfP39+p1Kq5+23305+/etfRylFsVhc0P9vWRZ79uzBtm3uvfde/5577vFs266FW8U8goS1C0Z5GwyGJRy0i8AwYHd2dvoA2WyWRCIBsGgllheLnp4ekskkhULBAybC/rnWTp9huQTwvBDiQwDFYnFDo9HounDhAt///veBq447CxnAt2zZguu63HnnnX7osFYEniYoTDJqEtYMBsMSD+AVoKK1djOZjA/Q0dFBLBZrBfDlRFdXF/l8nnw+7wGTBF4cbWWo1bYBXCmFECIOyGazmSKoX8vU1JSs1WrMzs4ueHGSqBiJ67rk83kVPi8S2KMWQ5OWqESowWAwtAs1oCaltJPJpB2Ko2WlwGOxGIlEAtd1I+WthBBtNUvatgFca40QYj+Qr9frd3ie9xsAn/vc5+zh4WHm5uYWfOp8YGCAvXv3kkgk+NM//dNSMplUYWGSrwK+EOKt0F3NTJ0bDIa20UcEybbTnZ2dhfvuu28A4IknnlhWKnzv3r0MDAyQz+dLwI/Dz11sp8/Q7lPo8/3ObQg8zj3Pw/cXXvRKKbEs6x1Oa6HajlS3cVgzGAztGsSVEIIwEXfZEX22cMtcWwqttgvgWmuXcLoc+BVgw+nTpwvPPvssAGfOnGFycnLBArgQgtWrV2NZFgcPHuSRRx7BsizPsqy/11rXgBeFECPhezXB22AwtGPwfgMY6ezs3HPw4MEBgKeeeqrtFbiUsrWmv2vXLu644w4cxykSJBqjtTYKfBFUdyp8vh/YWSqV3O9973sATExMUCqVFnTUls/nsW2bzZs3c/DgQQDfcZyXwiSQ46YkqMFgaHPOAtO5XK5nYGAAYFkocSFEK4D39fUxMDAQJe8Nhz+vmAC+sLhAHpDFYtHWWsu5uTkqlUqk0Bds5CaEwLZtVq5cieu6JBKJSpS5Oe9hEtYMBkNbo7WuCSFsy7K8WCymAGKxmIzFYjSbzUVZolwILMsinU5Hzz0hhBJC1AiWPaPZBxPAF5CtwH/VWstvfvOb26empjJHjhzhmWeeWdB/mkqlyOfzJJNJvvjFL9LZ2Ylt28+nUqmvhxf/22HGucFgMLRz8FZCiO8DcmBgIE+Y2HXXXXdlZmZm5MWLFzl58mRbfraVK1fyqU99CoB169Ydz2az08BbQoij7fh5pGmuBoPBYDC0H22jwJVSPyeE6Jqent4+MzOzXWvNc889lzx79ixTU1ML9n8TiQRCCO666y4efPBBbNv20+n09+LxuCeE+A7wPa5apRoMBsNyUOE1gFCZ/j3Ar//6r/9mo9FIPv/8863aEu3izrZy5UoSiQQDAwP88i//MgBdXV3PA4PAJRPAF54NwPpms7mpWCwWtNacPHmSY8eO0Wg0FuyfOo6DlJL+/n7uuecehBAqnU4Px2KxCjAkhDhtbneDwbBcCLdVeaFwuiSEeBXgwIEDn9RaMzIyguu6aK2p1+ttEcBTqRTZbJZCocBtt90WHT4BHAJK7XqtlnQAV0pJgqQ1CBLXuqrVamZ0dLQ1+ms2myi1MHkHQggKhQK2bZPNZj3XdaNkh0tAuZ0vvMFgMLyPPtADZgAsyyqGwdDt7e2Na605ceLEgvW/N3AwwooVK+ju7ib0eJ8Jf1whcGBr29ylpa7Ak0KITQBa648D+y5cuMBnP/tZosYTZZ8vlPr+oz/6Izo7O1m7du3Itm3bjhJ4Bf93rXWx3Wz3DAaD4afkLDACsGbNmkeA/IMPPti/ffv23bVajd/4jd9Y0CXMnwXLskilUggheOyxx7j77rtxHGcC+N9hTHlFCDHczhennabQI8e1Bfc4v3YEFz3mBWzjsGYwGG4FBQ7h1qqwz1XX9Int8P7f0Y8zb6tYu5dNXeoBvAd4HOCZZ57pKRaLDA4OcubMmdb6y0KwadMm9u7di23b6vbbb7+QzWaV67rPa62foA1LzhkMBsMN4Etaazebzd63ZcuWTKPRkI8//nhPuVy2Dx8+zCuvvAKwoLOi74dMJkMsFqNQKPCbv/mbSCnZt2/fkZ6enkkhxEjYj0MbJ6+1SwBPEbitMTIykhodHeXUqVPMzs4uqALP5/Ps2LEDy7JYt25dMZvN+sAZgoQHMBnnBoPh1uOwEELm8/leYMb3fXnnnXf21Ot1isUihw4diopM3dTEtlgsRkdHBytXruTnf/7nsSyL3t7eia6urhHglBDiyHK5IEsygGutc0C8Vqt1NZvNOMDk5KQcHx/nypUrC/Z/k8kkQgiy2azq7u5WUkolhBglSHKYNoHbYDDcwkQFP2aA04CMx+MFy7LiK1eudDdv3hzXWjM0NESz2WwVlloMLMsikwlKZKxbt47Ozk56enp813Vnwqn+UeACMLGcLsiSXADQWv8GsHFqaqrv/PnzvwnwqU99itdff33B/qeUkgMHDhCPx3n44Ye9P/iDP6iEgfvjYfCeCBuBwWAw3LKEBaWSBDuEPgfkpqenNxWLxZ2e5/GHf/iHlMtlzp07x5kzZxblPWUyGT760Y8C8Nhjj7Fnzx6klBOZTOZr4aDji8tJebfilmmOBoPBYDC0H0tmCl0pZQsh8uG3DwAHxsbG4p///OcBuHjx4sKcANsmFovhui6PP/44q1atYsWKFUeB50MFflxrXaKN9woaDAbDDcQn8MCQwOcB23XdPblc7mCz2ZSf+cxnHlZKuSMjI+65c+fcRqPBc889R6PR4MKFC//qvtx1XRzHIR6Ps3v3bqSU7N27l97eXuLxuL9v375pgFWrVj0fi8VOA1NAVCRjxATwhZ8NSIbP+4GBer3O4cOHARasRKiUEsdxiMVi3HbbbaxduxbLsiaBt8OGOiOlrJh71mAwGIi200ZbsQ5DUACFIOnY/sAHPvALgDx79qy9Zs0a6vU6x44do16vMzMz86/+v5Zl4TgOiUSCtWvXRtnlbNu2Ddd12b59e9RPDxHUM5/RWh9dzlt+7SXUKOJh4JZjY2NxpRTj4+OUy+VIoS/I/81ms/T390eju+kwcW0SmAwDuNnvbTAYDO9NhWBblq21PiKEcKWUuVgslhdCyLVr1+YajYYUQrjZbNbWWlMqldBat3w9tNZUq1UA4vE4juMghGjtN0+n0yQSCRKJhOrt7a1JKeno6Cjatl2xLMsDjofv5TxB3lJpufffSyaJTSm1XQjxPwH5N3/zN7svXryYP3fuHF/60pcW9P8+9NBD/Mf/+B8RQvj79u37x3Q6XdJaPyul/HtzTxoMBsP7J9w+liGYUd0N7CNIdvtY+LUAFBqNBj/84Q9pNptUq1Xq9TqNRoPjx4+jlGLTpk2sWbMGKSXpdBohBGvXrmXFihUQ+HAMhcH5GeAYUBRCPHWrnW97iVzw6+4bXMy9hO3uyGNY0h3aLY25twyGZRrAgT1Ad6lUGiiVSrsB+dJLL2UOHz7cmj5fCD7ykY+QTCY5ePBgZefOnUUhhOc4zlcItotdMk3DcIOC9wAQB/qAn7+FPn4NaAAXtNb/2wTxW6rNV8KB2xGt9dlQjX8vfElGCJECZKFQ6FNKSa11GkgppeS6deu6tNYkk8nJZDJZBJqu61YAHMeZBIpaa59giVMB00KIEreoR8dSUOB5IUSP1np1vV7PA3JiYoKRkRF8f+GuyZo1a8hkMqxevVp1dXXVwg5nGIiMWwyGG0GGILmnj9BV8BYh6lQ7wg7c5JLcAoRe41HHPR0+ICiKgtY6DsQdx7E3b968HZBhDMiE8agHsAjWsaMgXQz/xgVgUgihtNbFqNKYUeA3Z5QW/e8eYGOlUuk5depUcOeXSvi+T7PZvLEfNtwyBtDf308ul6Ozs3Naa30U8IQQtXB0ZxzXDDeKbgKji1UzMzM5gMnJyRvetpca69ati2ezWV8IMZ1IJPLhPV8My1Mabl2Frub1rzPzBneV8Lkffp0If64IKkBGyt4kFi8BBW6HqgTgEeD+K1eu2H/9138tlVIMDQ0tyLaxdDrNunXrAPj0pz/N6tWrAV4H/iRsFBeklKaDMdwwQULgadA/MjLS88ILL+zRWvPd736Xubm5Zf3Bf+/3fo+9e/cipexeu3btz4X31yssMytLw0+t0D2uznDOmDPys3cwBoPBYDAYjAJ/X+SAXwY4evTohnq9nhocHJQvvfQSSimKxeKC/NOdO3fy+OOPA5BIJJ4kWKd7mWDtG8zUueEGoLW2CRLXJME2mu2XL192n3zySbTWDA8PL1qRh5vFCy+8wPj4OJlMJvPxj3/8A+Hho0aBGwztH8BtYC1AuVxOlctle3Z2lqmpqQUzbIHA8H7Lli0AuK47SjCFMxFmMRoMN7qNSyAPdHmex8WLF9Fac+XKFRqNxrL+8JcvXyafz+P7vh2eg2hgYzAY2jGAh1VsJEFmbh/A+fPn45cvX+bcuXML8j+FEBQKBVzXZeXKlX5HR0dkt3eKsMqYaQaGG0wc6NFay8nJSTsK2pHL1K2wN3xqaorR0dEoaPeE92JqXhD3zdYyg6G9FHiOwO+8H3gYkM8//3zq5ZdfplwuL4j6FkJw33330dXVxa5du4qbN2+OTO2fNOVBDQtEN/ALAIcOHcrU63XeeustxsfHb5kTcPjwYYaGhtizZ08uOhfA/0XgoBUVwzAYDD8DJonNYDAYDAajwP9FPgzsunTpUverr76aAXjzzTftoaGhG66+4/E4nZ2d2LbNo48+yvr164nFYsdDFQBXzQEMhhuK1rpHCPGo1lq+8soruUuXLnH69Olb6hxMT08zMzNDNpvlhRdeQEpJX1/fnevXr09qrSeEEM+YlmIwtFEAj1zXlFL5qakpGwLTlkrlxlfrlFISi8VwHIdCoRAZ45e4WhfWZJwbFoo4UBBCMDs7a09OTi77fd/XErkoVqtVZmZmEELQ09OTAbqEEDXTRAyGNgjgWmsZdmhorVcBvfV6PTM0NERUUm4hyGaz7NixA8uycF33gmVZnhDiAoE9Hxg3H8ONbecQmBPJRqOR0lontdZMTk7KsbGxn6kOcjvjeR7nz59HCMHGjRu7CVy1jFmSwdAmCtwmSOpBCLEfuL9arfK1r30NrfWCJfasX7+eT3/60wghVKFQeCGdTk8CrwohjpjLblggeoCk53l9jUajWynFkSNHePvtt2/ZEzI7O8vzzz+PEII77rhjD7BBCJEzTcVg+NlZ1CS2F+WPcAAAIABJREFU9yodusAYtW0wLLG+R2ttyq0aDEtcgeeA3wLkN77xjQ0TExNcuHAh2iN6wyuObd++nWQyyYEDB/x77rmnBnixWOwfgNMY713Dwg1OpRDifmD9uXPnNh06dAilFLOzs7f0eSkWi3z3u9/9/9l7t+c4rjvP83NOZmXdC0ChAIIACIHgHbrRlKhbq23KbVvtkNXbtmNXu9s9MTGxOxHzsLux/8A8TWw/bUTPvs0+emd7Z9zddst2t+22ZLVkuyXrRlG8CSRB8IILcS0UCnXNyjxnHyoTgtmyRIpVEJM8n4gK0eUiqzLznPM7v9/5/b4/hBD8m3/zb0bL5bISQlSy2ezBYGM9R9B+0mAw3H0G3AaGALmxsZFYWlpidXUV13W7svtOpVJkMhkymYzq7e31AKW1XgUWMW1CDd3frBZarVauWCyitb7nu459Fr7vb0kje57nKKUQQqQI8mIwpawGw91nwAPVNcd13ZzWelxrLW/cuJG6ePEi6+vrXbugBx98kMHBQcbGxkq0tZdD0QgXk3lu6ILnvW0e7QKG6/V6/tKlS2itaTab5iYFLC0tceXKFWKxWCKXyx0UQoQeuBF1MRjuMg88B2Q8zxtzXffLgH3u3Dl++tOf4vt+186+XnrpJY4cOUIsFrsOfA9QQohFIYQJ0xm6gaStLiiBh4BjGxsb9k9/+lOArjXmiSKnT5+m2WzS39+ff/DBB78Zvs3HlSEGg+E2Fx+DwWAwGAzGA9/ia8Dx1dXV/Msvvyy11nz00Udd8UiGhoZ4+umnAdi7d+/y8PCwG+zsfxh8xIToDN2iADyrtZaXLl0a9n0/NzMzw/z8PEDHkzSjzCuvvMJvf/tbHn300fyf//mff412Etv/be6MwXD3GfAMkNda95ZKpa3zwG40LInFYvT09AAQj8c9x3E8oCGEMPFLQ7eRwViXruvanudJ13Xv+Xahn4dKpYLv+1Sr1fCeKUwU0GC4Owy4Uio8D4R2O8WJVquVmpqakkqpjstJ2raNlJL+/n4ef/zx0Jifpl0udsE8XsMOkAL2aa3lzMxMolqtMjc3Z+7KJ1Cv1/F9n83NTbm2tuYIIXAcZ1RrPQE0gAXTYtRg+OI8cCmEKAR//pIQ4sue5/HKK6/geR7VarWjX5ZIJLBtm3379vFnf/Zn4Xt/Q7vm2/T5NuwEvcCzAO+++25ubm6O2dlZc1c+gfD4bHV1Vc7OzqaEEOzevftL2Ww2BSwEL4PB8AUZ8C1Dvl11rVsZ50KIrZfBsJN8wlHQlrKYURf7dG66RyaEbjDcJQa8F/hfAfnGG28cXl1dZW5ujo2NDZRSHV/YXnjhBXbv3s2+fftK2Wx2Knj7t1rrGYx8qqGLBJGmRKVS2e/7/lNKKd5//33n9OnTNBqm2dansbS0xPe+971Qne3ZXbt2TQInAdNi1GD4Ag24DIy4bDabTqVSoVqtopTqePKaEIJMJkNPTw/pdNqzLCtcNRumXaFhh+aODdha60SYpFmr1UwC22fged5WOF0plaItspQyd8Zg+AIMuNbaph1CTAHjgLx69Wrq3LlzrK2tddTzllJi23bYnpD9+/fT29tbDnbw0E6GMRi6RhBNGgcKGxsb4ysrKyilqFQqNJvN+14+9bNoNptcvXoVIQS1Wi3faDRSwGA8Hs9prZXWuialNBE0g2GHPHAHcIQQOeAR2qprqZ/85Ccd1zyXUpJKpRBC8OSTT/KlL30JIcQi8JNgM2FKxwxdJci5eBzYV6lUxk6dOoVSimKxSL1eNzfoM6hUKpw6dQohBJubm2ONRgMhxGI8Hs8HH1nA9C0wGHbMA5dCCKmUsgmSUrqVzCOEwLKsMHkt3KUrzJm3YeeRgAyPiEzy2i2vF7/TWjhocBJqypvacINhhz3wZ4BH1tfX+997772c1lpOTU3JbtTDjoyM8J3vfIegBOV8NputAO9ord8JPmJ27oad4Djw+Pr6euaHP/whWmuKxaK5K7dAUAsOwNtvv025XCabzQ5+85vf/E5gwP9f2t0DDQZDtw24ECIBZIFMo9GQWmvpeV5XzgItyyKbzSKEIBaLuUHymklcM+w0CSCllHKq1eqWJ2m4NQKvm0ajQb1ex3EcG0hvi2wYDIadMOBa6yHgsOu6mQ8//LAr3kgsFkMIQT6f59FHH0UIQTweP0/7vOySeZSGbqO1TtBWGKRcLueBXKlUssNIk+ua4M9t3k+uX7+O1pqRkZEUcDgIrZuMdINhBz3wvcATrVbLfuONN6RSiqWlpY7+0Hg8jm3b7N69mxMnToQG/J+BKUw7QsPOkAEeEUJQLpeHfd/Pr62tMT09be7M5+Sjjz7ixo0bPProozngiSBBMGPujMHQRQMe7JTDhLWt/3ZLjeomxbXtsUoTtzTsJBLY0jYwYfM798KDl9y+ZoRryrZEVYPB0EEPPAGcAOSNGzce8TxvbHZ2lrfeegvf9zt+/v3kk08yMDDAwYMHS7lc7nwwsd8MPHAzyQ07QQH4b7XWvPzyy4WlpSVmZmbMXbkDzp07hxACKWVidnZ2TAhBT0/PiZ6enmHa/QzeM3fJYOi8AYd2/bfUWttKKen7Pq1WqyvJa7FYLAyjKymlG3jjrhDCHDwadtL7TgC4rivr9bo5975Dwn7pnuehlJLBvLaDtcU2d8hg6I4Bd4BJQE5PT/eurq52/Nx7Ow8++CAHDhwgn8+XgVOA0lrXzCM0dButtROEdHPAfoDr16+npqamWFtbMzeoA5TLZU6ebIspHj9+fF9PT48TrDG/NXfHYOiwAddaO0KIxwB7enq6cPbsWTY2NromZnH8+HGeeOIJLMsqAW8Eb1fMIzTsAI4QwgbywEMAV65c4b333jO65x2iVCrxm9/8BoDJyclJYMjcFYOhwwZcKRXWaIbKSbbv+9J13Y4vZqHqGoCUUkkpEUJ4gIdRXzPs7DxxPM+zw6Qro7zWWZRS29ePrbVle5KglKY83GC4IwMe6J1ngGHga4AzNTVl//CHP8T3/Y5m5fb29vLUU08BsHfv3tWRkREXuAi8qrVWgSE3GLrNs8Do7OzsgampKbTWzM/Pb3XUMtw5a2trvPLKKwgh+Lf/9t8+cdN6g9a6YjbsBsMdGvBtu+Mwocf2fZ9Go9HxkhopJfF4vP1DbVtZluUBntbaNd2KDDuIAyS01k6z2URrje/7xgPvIFrrrYRArbWzbX0Ky8nMTTIYOmDAh4DRSqUyOD8/D8Dq6iqNRqPjC1o2m+X48eMAxOPxKdplJRfMTtywwxwEHm00GoXTp0+jtaZarZq70kFarRalUgmAmZkZkskktm3n9u3b90hg1E9icl4Mhjs24IPApOu6fWE4cWVlhUaj81LkuVyOZ555JjTmZ4HLwHXz2Aw7zBHgqVarlfjggw8AtppxGDqD53lbBnx6ehopJZlMpnffvn3Hgg37lDHgBsOdG3AbcLTWtuu6Euh43Xeouial3Epio33e7WLOvQ07wLYWl4Rtcn3fl57nda1VbrcIw89R+c2e523Xk3AwETeDoTMGXGt9VAjxXc/znDBx7cqVKx39UYVCgWQyyb59+3j66afDReifaNeEGuUMw06QIqj5np+fH1dKjc7MzPDzn/+cbmxau0UikSAejxM0YInEb37ttdc4deoUDz/88Njzzz//PwUG/Ke0j9AMBsMdeOAy9MBbrZbsdOY5tJPXQu/btm3jgRu+KLZr/Eul1JZyWJSIWgJY6IEHJauhB25qyAyGz2PAg4mUA2g0GruAoWq1Kj/66CN83986u+oUR44cYffu3UxMTFRol40BFIEGJpxm2BlywFOAnJmZ6a3X61y9ejUyPz6RSAAwOTnJoUOHcF2Xl19+ORKRgytXrrC4uEg+n3fq9XovoKSUg0Hb4oYQomSGp8FwGx64EKIXwHXdgtZ6qNFocOnSpa4oUR0+fJhDhw6Rz+crwOnQgAshGuaRGXaIFHAckPPz87mVlRVmZ2cj43HH43GEEBw6dIhvfOMbVKtVfvKTn0TCgF+/3s5T3bt3r91sNnsB5TjOYLCJLwUvg8EY8Fv8XBjKwnVdqZTqahOHsHFJLBZTgdeN8bwNO0HYJldrbRM0Lmk2m7JWq9FsNiNzHaEBTyQSJBIJPM/7nZa8UUhoU0ptVbdYlpUINlU1pZRRZTPczeNWbrOtn2ZjVaAsCuB9nqMu+zY+9zVAnjx5cmxlZYVisdi1XsjHjh3jD/7gD7Asqwj8IFhwVs3QMOyQ5+0IIUKlQfn666/n3n77bWq1aPTOsSyL5557Dtu2+da3vsWLL77I+vo6//7f/3vq9TpR6aK2sLDAD37wA4QQvPDCCy9ms9lV4F0+PlYzGO5GhoUQR4M/Hw6d309gBjhPuzHXFJ8jv8u+zc9KpZT0PK+ryTyWZRGLxQjU1jwwSkyGHWdLcTDU+o9SAlssFsO2bWKx2NYr9MCjMpe01rRaLYQQBBER51MWQ4PhriAoPw1tqwPEf89HHe4wOfN2PPDjgFxeXh48d+4c5XK5o2G4VCrF3r17ARgYGKj09va6QojlYJeC1tqcfxu6bjCAcSC/urq6v1QqJQC5srIii8ViZAy4ZVk8/fTTxONx9uzZs/Xe5OQkjUaDq1evEqoo3s0Ui0V+/etfI6WU3/jGN/YDNWBVCJEInpUrhDBHa4Yvcs1I0O5SKIFvALlKpbKrXC4f1lrz9ttvFxqNxu8Y6WQyiZSSoaGhJ44cOfJHgEqn0/+stQ57fZwKPtr4rM327RjwSUBubGzkp6enqdfrHb0RiUSC/fv3I4Sgv7+/1tvbW6OduGaU1ww7yRAw1mg09szNzSUAub6+HqnGJVJKjh49SiqVYvfu3VsGfN++fbiuy8bGRiQMeKlU4uTJk1iWRavVGqWdB3ORIDcBowlh+OJJ0FYnlcB3gWGlVN513TGlFFevXv0Xqo3ZbHarz0dwDK2EEEO0871+Rlt1ED7O//p8BlwpJYUQUikVJvXIVqslG41Gx7XPw4SbIMTXCH68maCGL2JCppRSifDMOyqiLdvVC2OxmLJtGyGEG8wjGY/HMzepG971EZFQ+a7VaknXdRFC2LFYLDTgpkOZYccJjK7c5oEXAFkulxNaa7tUKsmlpSWUUmxsbPyLvglhEmaxWGRpaWlr3bFtGyllJpVK5YN/u/xZ49v+jAUhB+Q8z+ut1+uHAfvSpUvylVde2ZpgnaKnp4c/+qM/CjWQT9HWPL9khothh3kaeKpcLudefvllqbVmeTkaAmDZbJa+vj6SySSHDx+upNNpJYR4BzgJJE6cOPG/aK3thYUFPvzww7v+ehqNBvPz81iWxfT0dCaoThk/dOjQ14KP/D2mpMzwBWyUaSe72sCXgf9LKcV/+S//Jb+2tmafOXOGH//4x1ub/5vtZBgWTyQSpNNpHMeR/+E//Idne3p62LNnz8EvfelLXw8M93c/ywv/rBC6DF9aa0k7ia0rHokQAsuykFISpNZ7Zndt+AIIE1DsqOmeb09Sk1KqoNRKhR64ZVlorSOVEBref6VU+JJ8PgVJg6EbbJWb+r5ve54nXde95SNmKSWe5+H7vq2UClvpJm7V9n3WRBjSWu9vtVqZS5cuSaDjqmsh6XSahx9+GMuyyGazF4EPMdrHhp0xEjaB0mCtVhvXWh8sl8tO2Do0Kp3HRkZGePjhh3EcRwkhzgeb4LeAX1mWlXn44Yf/N8AeHh4mmUyite5KF8FuGPH333+fpaUldu/enT98+PCTwQL3czN6DV/AeJRCiK8Chfn5+cdWV1dTSileeeUVbty4werqrVU8+75PrVbDsix+8IMfEI/HOXHiRO+ePXsOAl5fX99TWuuG1npOSjn3eQx4QQgxoZRKhUkv3eqDHI/HmZiYCM/vrmHaBxp2dkLmAFqt1qDWerjRaHDlyhWUUh1P2OwWhUKBI0eOYFmWEkLMBAb8PHAqHo/3TkxMKID+/v6tBidRMeAXL15kbW0Nz/MyQojDgQE3JWWGL4qjwN56vT5+5coVRynFyZMnb0ut0ff9rWj2r371K6SUjIyMZKrVagZQfX19h2lnorvA5zLgYXggGS5inS6lcRwHy7KIx+NIKUM1GtO4xLBjBHWbGUDW63U7VAALw7ZRIRaLkU6nsSwrVDAM55CiLRbRCI6qnGQyaYdJNlGg0WgQqOFJ3/fDEKMTRE+UKScz7DBJIOW6rrO+vs6dHi2Hx0SNRmNrTo6MjCT4+EiPz2PAR4Hjnuc5v/zlL9Fad1wP+ujRowwNDbFv3z43l8stBuItF/k4ld5g6DZ54F8D8r333hsrFotMT09TLpcjZcAPHTrEt7/9bYQQyrbtfwqM+BQQZrO+CiSGh4cnv/71r+9vNpv89V//9V1/xh/U04bCNIXNzc08bX308VQq5dGO1BmlRsNObvifAh65fPmy8xd/8RdorW85dP5JhMd0b731Fr7vI6XkL//yL5+LxWIe7R4A73weA06wA5DBAXvHJ3tY+hIkr6nAAzc7asNOY2/fCUcpeW1rom4rEQvmjwrmEkqprfe2z7mosP258HEJjxm1hi9suhEkd4dR6U6Mx9CT31aqFr5u3wPXWo8Gmq7y4sWLUinV8SS2vXv3cujQIQYGBipa61CBxpx9G3aSFPAMwJkzZ/Lnz5+/o930DnsDDA8PI6Wkv7+/ls/na4HnfZq2clk4YT3gDGDv379/MJlM7q9UKnz/+9+PhCFsNBoIIVhaWuKDDz5ACMHk5ORT6XR6DJgGfmWGsWEHcYCU53kyXCs6UZ21vr7OhQsXkO3d9SO0j75+/bkMONBHW1qSxcVFfN/veBLb4OAg4+PjZLPZRqC6prTWNTM+DDtIAjgIcOPGjdS5c+eoVquR8fDy+TyWZZHL5dxcLlcJDPdVIcT2eaRoayvYo6Oj5b6+vsicfwNbbYvL5TLXrl0D4NChQweAfm5Bscpg6BRBKaYDOL7vU6l0zt+sVCrcuHEDy7IQQowFb/ffsgEPQm0JQDabTRug2WzSarW2u/YdIx6Pk0wmicfjio/P6kz43LATEzFBu947obWWWmtc15XNZjMS3bpCD7ynpwfbtnEcJzwP/n0b4Bogbdt24/E48Xgc27a311hHwpCXy2UChcgU7US9hBnNhnsBpRStVgulFM1mMzwSs7XWqcC5bWw/+rI/YVGzhRCPA/Lq1avDjUaDUqnE/Pz89jOojnHgwAGeeOIJhBBF4Ee0z+hM/bdhJ3gIGK7X6+PFYjGntebKlStMTUUnf1JKyUsvvUQymWRiYmIG+K3W2tVaezcZeg94HWB8fPwr0NZ0GB0dxfd9isViJOrdFxYW+NGPfoSUkhdeeOGpwICXzVA23AtUKhWq1SqWZTE1NUUqlSKRSAwfOnTocdrHYO+wrTrr00LoMkzkCY12N0KK25Sj2OZ9Gw/csCP2j4+TUbbGeNSSoyzLCkNufMb8UeGc+6T/RiRqshUp2JbQJs1QNtwrbLe729aiTxzn9icYVJt2E3J7YWEhv7S0RKVS6eiiFovFtrokDQwMNAqFgqKdbHM9WGTMmZZhJzgMPLq+vl74x3/8R4DI6J5v98AfffRRstksqVTqOvBrwPuEKg7Fx6H1C7STvpxjx449pbXm1KlTkfDANzc3+eijj5BSsry8nM/lckpKOaa1PhZ85HzQDMlg6CYlYDWZTDpHjhzJaa2ZmZnp2NGb1poLFy6QSCTYvXt34dChQ4dpR5ve+VQDHlj5QSC+ubmZWlpa6njimm3b5PN5ALLZrJfJZLzAaBdN+ZhhBxkEJlqtVi4Mm3cyIWWnGB0dJZfLIaUsATNCCKW1VjdtzAkWALTWy8AM4OzZs+cprTXT09ORuNawE6KUkkqlkqpWq8RisTwwxsftRg2GblMDKo7jZHbt2oXWmuvXr3c0d2Z5eZl4PE42m80Au4H6zV64/Xusf1oI4biu61SrVcK2ip30GlKpVLiwNIKbYTLPDV0niCSFEpwpIKeUypRKpbBtZSSuw3Ec4vE4juMgpWwEdd1hG97P2gQ3gLIQItHb26u01jIej0fuWW5sbLC2tkYymXRGRkZ6g+s24XTDThnwspRSplIptNYd11Wo1Wp4nofrujaQChqK8akGPAihHwUSS0tLg++//z6u63Y0hJ5KpXj88ccRQuA4zmnaOq+XjDCDYSdsHzAULPTHgRPNZnOr/V9UGpfs2bOHBx98ENu2VU9Pz3Q2m/W01he4BQVDrfVM0Fc7861vfet/Bvjoo4945513IrUR+/u//3v6+/s5dOjQ6OTk5IuAp7X+BSapzdBFgijxu8BiIpHYf/z48TGlFO+9917HInhaaz744ANs26ZQKAwBx4QQlZtt9qcmsYX/UDeT1wJM4pphJ5Hb/tvOnlQqaovIJ6mpqdtISFNCCBUlNbZ/cQFB6VvY6hiT0GbYweHHtqTQbiSCbrO9v3dsf5IBt4FJIFUqlTLnzp37xKbkd0IikWBychIhBMlk8rrW+hywYMaEYQc8t0RYJnn69Ol8o9Hg8uXLW3kenW7W000P/Ctf+UooQfwbrbULXL1F438dKEopex944IEKYI+NjTkPPPCA7fs+8/PzkcjEP3PmDKlUimw2mweeoH3G36u1LtFO5HPNiDd0aR2ZAcqZTCY1OTmJ7/t08hhKa72VrPnMM88UaGsdlG8Oo39SHbgUQhSATLPZZGVlpeOT2bZtBgYGEEIQj8fLQohVoGRC6IYdwAGGAbm6upool8ssLS1F5uw7JJfLMT4+TuBFXwtySW5J51gIUQ4Wg1o8HvcA1dPTI/v6+mzXdQlbB9/lCyjLy8s4jkOlUknRzmcIRV3CHAdjwA1dQQhRAkgmk+WBgQGUUlt9CDrF6uoqQghc1w3Ht8PvS2LTWjuA43leKgwnep7Xce8b2kls6XQaIQS2bTdoq0fdSvKNwXDHw09rPQDISqWSWF9fp1yOzpFp4HGTSCTI5XJh6K4czJ/PUz5VAux4PC77+voSoeZ4FDbTYbSkVquFsrDScZzeRCKRD+6JSYw1dIOwJNO2bbuRTqdRSnU8ic33fYQQtFqtrex2IURCKZUQQnhCCG+7Bz4KjHmel1tcXJQAa2trXUnqCZPYgu5Jl4D3ADdKghKGyO6ce4H/HrDPnj07+O6770ZKEzyTySCl5MCBA3z1q18NF5NfAZUgdHxbNpC2Ops8dOjQU7Zt59bX13n33XcjkRMQ1uxPTU3xT//0TwgheOqpp/4omUyuAGdpt081GLrBecDet2/f6L59+/B9n2Qy2dEvCBPi1tbWWFhYALB37dq1PxaLVYBFYNEkfBjuK8wxjcFgiDC/N4TeK4SYcF03c/bsWXmnDco/icHBQdLpNMPDw146nS4G2XuLwDImfG7oruEeBXo3NzcnarXaIGCfP3/e+e1vfxuZxDUpJY899hjxeJz+/v4F2sqFbrAbr7FNI/kWcbXW/wQwPj4+OjAwcHhxcZGoRcIWFxd57bXXkFLKxx9//KvBvZDGAzd0kUYwxlZpiyLJvXv3DkspnVKpxNzcXMe+aH19nZmZGaSUcmBg4DBQC3odLG4PoScIRC2KxaJUSlGv1zt6xalUip6eHjKZjIrFYrXgzKBxU9tDg6EbZICCUipfr9dTgL2+vs7i4mJkLkAIweDgIMlkklQqVQsMtwfUPuccUkKIOYB8Pl/JZrNhN8JIPdharcbs7CyWZUml1GhwTwbMkDd0ax6Gm2WtdYNAd6Cnp2eoUCh0pC/4dprNJuVyOewRnqed0Jb6HQ+coEG51jpZq9Xwfb/jmbnJZJJcLkcqldquy+yZIWHYAXLAoOd5+WKx2HY/XTdyC0cYxcpms2HW+Z1eRBnAtu2aEKIRi8VkKpVybNvGdd1IRCeazSbFYhHbtmm1Wo7neTaQCtqNIoRoGIlmQ5fwQluWTqdVLpfreFKs67qUy2Usy0JrnQ48f+d3DLgQIg8cABKXL1+WnudRKpU6+kP27t3LgQMHKBQKDSFEqFlcMWPAsAM8AvxBvV7v/c1vfiO11qysrETqAizL4sUXX6RQKJDJZOaAN2j3CP5cVlYp5UkpTwLs2rVrGlhUStn79+8fbbVazM7OEm527maWl5dZWVkhFouxvr4+mM/nkVKO5nK5g7SP5qYwJWWG7lChrb8vDx8+PDk8PJyyLIuTJ0927AsWFxc5deoUsVhMvvjiixO0E75P3+yB/ws6nfDTLcUag+F2iGLL0G7Moe11q9vvR/gdUWszahIUDXfD/OzW+P4kthvwPDChtXauXLkiXdfteHnN4OAgExMTpNPpBu0yD+OBG7q5qEuCsyKt9YNCiGdqtZrzox/9SIaKY1EgUBsjHo8zPj5eGxwcVEKIq1rrN4OPdCLOfRl403Gc1J/8yZ8M+74vf/zjH7O2thYpI/6b3/yGy5cvMzAwMP7cc899G2jxcbKfwdBpysAZQI6Ojn6j2Wxy48aNjn7B+vo6ly9fJpFISK31eDDf8zcbcIf2OaFdqVRoNpsdPyNMJpNks1mSyaQHhCuDmViGbmIHO+NeYFApJWdnZ/E8r+NJmt3CsiySyWTYWtDL5XIq2PiGzcs7cb5bAZYty8rt2bMHrTWZTCZykZXl5WW01jiOk6HdYtTlMyKNBsMd4AJFQKbTaeU4DolEorNf4Lpsbm7i+76knYyruPkMPHgjo7WW5XKZer1Os9ns6A+Jx+Ok02ni8bjSWteCxBKTxGbopvHOA7JUKiW01vbGxoZsNBpbKoNR8cB37dqF4zhKCFGk3XVrQwjRsbmjtS4LIZaEEG5/f7/SWstOL0Q7YcCXlpZwXZfe3t4EUAgWWEcpZQNKSmmS2QydxAs2vzKVSinP87piwCuVShhG/70GvB/Yr7XmzJkzHWuLtp3du3dz4MABpJSuEGKajyXpDIZukACeBeSlS5fGqtVq5sqVK9y4cSMyxhvggQce4Jvf/CaWZSnbrRinAAAgAElEQVTLst6hXTZ2MWgv2BGEEFPAajqdHnr22Wf/d4C//du/jZwB//nPf04sFoN2y9gc7XrdfFBm55r1xtBhKsC0EEJOTEy4WmvOnj3b0S8oFovU63VyuZwEJoK389DWhf6iEkDMTthguH1Da+aNwXCfE9psG9gPsLKykldKUSwWu2bMh4aG2L9/P0BDKXVaCKE66UUYDDcN8owQ4tu0dc/HLly4wOrqauSylcfGxnj++ecRQijHcd6lnThztcP3ahkoWZZVS6fTi4Czf//+3LPPPptqNBq8//77d/19C9UjhRDMz8/bly5dygDO7t27n8hkMuPBPTtrZoahg2OuAkxrre1du3a5AP39/Vv5I9Vq9Y7nTavVwvd9pJQsLi5Sr9exLKt/YGBgv007pk6r1XJarVbHz723k0gkwgvztNYlcx5l6DI27SY9dqVSSS0tLXVc22AnSKVSDA0NtS/Itou0BVw6GgqWUrqAq5SqBK1JVTabzRQKha1e6VEgXL8ajYasVqtSCKG01nnaEb9VMyUMHZ43HlBRStmJREJBO9fLttun053o7KeUQimF53k0m00ajQaxWMwBMjbtc0KazabdbDap1+sd3WlblkUulwv/7AYTyWSeG7q5K3YA2Wq1EsEG1S6Xy87y8jKbm5uR8cDT6TRSSpLJpJdIJDza57mrtLNeuxW58miXXTnJZDIxMDCQicfjkRsDlUqFa9euIaWUe/bs2UU76WfBzA5DF6kBFSmlnc1mE1prKpVKxzr7aa2p1+vEYjGUUlJrbdu0kz0olUqZcrnMxsZGRxe4eDzOI488ghCCTCYTeg5mJ2zoJjkg02q1hl3XnQCcy5cv8+abb3alv303EEIwPj5OLBZjeHi4NjQ0VAwM+DtBuLtb39sAfkK7rvWleDw+tLy8zN/8zd9E6ujh2rVrvPzyy9i2LR977LFng3tXAX5hpoehC6hg42s7jpPft2/fmNaatbW1jskRh+qR9XqdbDbrTExMZOybP2DUjAz3CDIc01Hmk5SdgiZA3V6M5HZFtqgpKP6+5NybFecMhi7Nn66N6+3YwEGA2dnZ/MzMTEddfoBYLMbQ0BBSSmzbLgXet/HADd3kceCRarU68NZbb8nQI9vc3IyU4f7Wt75FT08PBw8eXADeoX301O3jpwbwG0A+9NBDX/E8j9nZWTKZDL7vE9bQ3+0sLi7y61//Gsdx5MbGxkPZbFYBU9lsdjhYYE0LY0OnjeuqECKRSqXkgQMHUErxwQcfdEwwyvd9ZmZmSCaT7N27dxg4ZgNpgGaz6ZTLZWq1Wke9FiEE8XgcKWV44L8Ti5Dh/iYH7NZa966vr0utNY1GI1K132HnsXw+T09PT4P2ube3A0ZH0U6So6enp6G1ZnNzE9u2EULshPffEcIOZYlEAt/3M77vI4RI0T4LV0GExhhwQyfnrAu4lmV56XS6K615Q/vseV4C6NlKYlNK2a1Wq+MtRIUQpFKp8ELKwUJUNo/b0EXywJjneZkrV66glIqU9x0yODhIoVAgm81WgNnAgHfb/d0SV7IsqwKUY7GYHBoayvi+z8LCQiTasCqlaLVaSClZXl7Gsizi8Xiup6dnIrjGRTNNDB32wCtCiDJQi8ViBJvGTv77tFotbNsOZVVtGxgM3PNUtVrteBa6bdsMDg6GO/c54Dxww+x+DV3kCPBV13XlP/zDP0jP85ibm4vabp5jx44xPDyMlHIOeI0dqOAIhGKWgwXjGjDT09PjPPnkk5NKKX796193vN9xN/A8D8/zcF2XkydPUigUGB0dHZ+YmHgRcLXWJzGRQENn585sMLZyoQfe6YhVaJ/DnvdG5N9wr+x+77XFwPyWDo6N4BWuptLMGEOUx/KWgwwMAxSLxcyFCxdwXbejSWzxeJwDBw6E9eBFYB6TxGboPAngKYClpaUJz/Ny8/PzXLx4kVarFYmwL7T7BRw+fDicLzOZTMYDLgYvpbXeyQyy00DcsqzeL3/5y4cBefHiRS5fvhyZQaGU4pe//CXpdJoTJ04Mf/3rXz8ReN6OmTKGDnMVKBUKhcHHHnsM3/fppIaC53mcOnWKWCzG7t27C8BBOxzInufZ9Xq9K2fgyWQSy7KwbTtMYjMdyAydRtJOXpOe5yVarZZ0XZdujOlu4jgOPT09WJZFLBZr2LbtAtWgGcdOUwPWhBCyp6dn6/dFzWPZ2NgIFawcoJd2pr3xwg0d3SsG46oWi8XcsGqj09GrarWKbdt4nucQhNBTAJZldSWcLoQgFothWVaYpVcLLtRg6CQ27f7P9vz8fGZjY4P5+fnIhdaz2SwPPPAAUkolhJgL5kvxC/o5q8BV27YbIyMjWz3CY7FYeA4XCQO+trZGLBZjY2PDrlQqKcCOxWJDQYvRipTSJNUaOjHWPCGEuxNRMiGEBJytJLZYLJbqilskJel0GsuykFKu006QMQ1MDJ2ePI4Q4iuAfebMmaGzZ89SKpUiZ8B3797NiRMnEEJg2/ZvgXVg+gv6OReBq/l8fjyfzytAjoyMkE6n8X0/Epn9WmsuXboEwOOPP55aXV1NAe7Q0NAxIUQpuLemwYmhE0a1AUilVNcdVMuytjzwrYHeLSW2KCo5GaLBtnyNrQQlrfVWA4CILgThfPG5e6o1FDcptEVwk7c1JoKENhNGN3R6jtBNBcOb7fRWEtvy8rL93nvvobXuqOCF4zgcPHgQy7JwHKcELGitTQjd0Clj1wuktNbDwAnAuXjxYuLHP/4xrVYrMkY8bFwyMTHBc889B6ASicSbtCNWX0jSp9a6EXgVq8DrgD02Njb53HPPDW1ubvLqq69GKsJx8eJF/uqv/grLsuS/+3f/7vlkMlkDfmY8cEMnNt1a66uAPTEx8dDevXvxPK+jSWy+7/PBBx8ghOD5558vAL3bk9i60jZQSkkikcC2bSzL8gBXCOEZzXVDp4ZYMIYd2klsTrPZpFQqRaZxCRAeMRGPx7e699E+airzBeWMhO1+gzO9CiATiYSXy+UiGd1oNBoUi0Usy5Ja61wwZlJmChk64RkHOV5eKpVyQ5vaaSGXWq0WGnObQMil6zsTx3HCBSrsCGSy0A2dIg8M12q1wWKxneu1sbHR8XLIbs+RoaEh4vE46XS6AhS11gqoCCEqfPGCI57W+jpgDw0NHW61WiwvL0duoFQqFWZnZ7FtmyBi4wH5oP0sgXNhZpTh8+IGDsWO2bcdMeCpVCpscF4WQpgacEMnGQWONhqNvpMnT0qtNQsLC1s71agY8IceeohcLsfQ0NAqcCqIUi3eJfPFFUJ8AMhjx44dm5yc5MqVK/zH//gfIxVCX15e5v333yeRSEil1CPB229u88J3QmvecA8SKK41Ak95xzbcdrcnoNnRGro9d8KXUiqyLXGDZj/hfAmNyN2WwBb5hNTtSUBhhEa2V19juA0dH2vdmivhGLbn5+cBOl4S0tfXRyqVYnBw0DxJQzd5HPgfPM9zfvKTn0jP87h27VqkLkAIwZ/+6Z8yMjJCLpdbAH7JDuie38Zi0RBCvAbI8fHx/wbaPQ5GRkZQSlEsFjvWMrGbhL0eHMfhjTfeoK+vj76+voOPP/74n9I+JvhrjEaF4c5xaUebGRgYyNTrdVmtVimVSh37gnK5zPz8PHYoxtDp88JASSoMnRsM3SIN9Gqt7c3NTRk2sIiaAc/lcvT29pJMJj3a4i3qbvEKtdYqVIKLx+Ne8F9isVhXWiZ2LYwQlBZKKalWqziOQyqVCpMfw/NLg6Ejwy3c6IZCZp0ey57nYYeed6cXvUQiQSaTCSd8eI5ndreGThgUqbUeBNjc3MxrrTMbGxv2tWvXaLVaVCrR0AmybXurQqO3t9fN5/PYtl2irakMd0myZ2CgwwVigbbAi/PAAw+MK6WoVquRyjnQWjMzM0M2m0VKWQAeBhqBupXB0AkPvKi1JplMZjKZjOy0fXVdl83NTey1tTWAjk/ATCYT9jJ2gwmvMH3ADR2yfUKIg4Asl8ujrVarsLa2xocffhgp7zsej1MoFMJwdGNsbEwFBvLU3WTAg3KyWmD8zgG9Usreo0ePjodJgysrK9FxjZTivffeI5FI0NvbOwZkgMq2bHSD4U6oANeFEDKXyw27rmt3el2q1Wqsra1h4tuGKBNp1TUhxPbENYhOIpUCVLfUpnbCAw/HzbaERxn+f9uiDgbD3e3JmFtgiCAp4NuAc+bMmYlr165RLBYjZ8THxsZ44YUXkFIqx3F+FezcP9Bal+9ig34WqGSz2eHvfve7f6q1lh988AEXL16MlAf+xhtvALBv377MxsZGCqglk8lJx3GKtI/8ls00MxgDbjB0z4g7nuc5jUaDZrMZvcln26TT6dCLdWnniLihAtpdigc0pJRuKpXauo6o0Wi003FarZYMdNFDVUoHk8xmMAbcYOgsWms7WFxTwDiQWFhYyH344YdUKpXIeeA9PT0cPnw4bLl7HVjjC9I9v41nsAy4tm2r/v5+F5D5fN4uFArS87yOlsrsBGtra3z00UcIIeRDDz006ThOGP1YNDPOYAy4wdDZ8ZqgnXT0EJCanZ1Nvf7663ieFzkBl0KhwJNPPgmg0un0hcBozN3Nv1lKeR24rrVu9PT01Gi3GE2Njo46tVqNjY2NSD2HxcVF3n77bWzbticnJ/8giIJU+DiR0GC4exfEbe31Oj3Rb1aWMkpHhjseVrQV1+wg7EkU1dfCBKmbEsBUBOeJR7siAMuyOl7ruhOE9bTBGvg7qn7b1zKD4XaHVjB2VGgLO0mYhGm//fbbAISKbJ1i3759PPzww2Sz2QZwHlDbknMMhs/DQeDw5uZm/ty5c72Ac+nSJTk3N9eVTWi3jPe+ffuIx+M88MADtZGRkSLgCSFeB64TnUY/FeBVQB49evSZ/v7+sfn5eS5cuBCpzdTZs2dZWVkhnU7Lf/Wv/tWJYOG9LITIBWPKrFmG26UU2Dz56KOPHqtWq5w6dYqpqamOfcHKygofffQRW/VpnT4/tG0bx3GIxWLhTt144IY7Hla0Q+hOmHzk+35H+9fvBKFKoWVZyrZtL5gfbtB7O0o0AOk4jkomkyQSicgNqFarRa1WQwghtdaJYJ2KBZ64WbMMnxcPkLFYTIXdODuJ7/u0Wq0dOQMPNZ1NGN1wp4wCj/m+nzl//rz0fZ9QiCgqCCGYnJykr6+P0dHRCjAdGvAIGu9zgBwaGjqWSqUiWTvtui4bGxt4nsfKyorj+z62bQ/29/fvDyIjZzHtjw2fz+Z17ezF932azWb3DXgQTmsEF2UmguFOGAeeVUrZp06dkq7rRq4vtRCCxx57jJGREXbt2lWiXVetdrIFYQcN+EmAvXv3vhBGQaJmxBuNBo1GA9d1WVxcTDSbTTKZzHB/f/9DwSJ83kw7w23aPC+IpkmtdVecVs/zaDQaJgvdcNdPhnATGNbrboXOb1LSipQRDxI8VcQ3tttbjCohhAwT86L2XLTWhMcxwXGi3PYyGO5KjAE33O0LqxRCDNPWPT+glJosFovylVdekbVaLTKNS7Yb7z/8wz/k8OHDYUnW9wNDWInYo6kBbwIMDw9PAROlUsl58MEHh5RSXL16teMtirtJq9XiP//n/0wikeDLX/7y5MGDB53gmfwY04TJYAy4wfC5kds8cDtccD3Pi6QGethiMPDAI5kfEoTKvWCTpQAlpVSWZUVSHx3a5+FSSnzfl7QV2cz6aDAG3GC4A0PhAMcAZ25ubrhSqbC6ukq9XqfRaEQmAz2bzbJ7925s2yaZTK4GbXYX+VjxK8oJnvNa64uO4+SOHz8+rJRifX2dcjk6FVhKKaanp4nFYjzyyCO99Xp9HCjZtt0btK9tSCmNJ24wBtxguM0x+iSQWFpaGrp+/Trr6+vU6/VI6Z9ns1kmJyeRUpLNZleTyWQDWBRC3AuSnXNCiPOpVGrw6aeffkJrLd99912uXbsWKQN+8eJFpJQUi8XeZrPZC5SklHnaEaASJpRuMAbcYPhc49T2fd8OQ+dRQ0qJbduhIpO37XUvECbieZZlobWOZAg9TJj0fX/7GAubnJhkNoMx4AbDbS6qCSHEd4DcmTNnUv/1v/5XWq0WrVYrUtcxOjrKSy+9BKCSyeQvgBta63ulROlNYCqfzx/+4z/+4z8H+Ku/+qvIGe8wIfL8+fP8/Oc/x7KsxIsvvviv4/F4TQjxj8BrZkYajAE3GD6HB66UklE03ts98CDBK/S+7xVhIwV4UkovbC0aVQ8cflcf3XjgBmPADYbbX0wHgYLrur3VajUDJFZXV+0bN25Eqv7bcRyklPT393PkyBEAlUgkLgNX75HzbwjOh6WUvfF4vAjYo6OjmSNHjtj1ep2rV69G6mLm5uZ46623SCQS9osvvngQ8LTWb5tZaTAG3GC4NQrAQa11rlwuJ7TWiWKxyNLSUqQuIh6PY1kW+XyeQ4cOhZuTq8BFolf7/YkIIUqB51oI/myPjo46hw4dsovFYuQM+MLCAu+88w7ZbFYqpfYHEYaCmZIGY8ANhltDAo5Symk0GmitI5m8Zts2tm1jWdZ21bV7tbnPVl27ZVkqFouFzYyidRFKbSWy+b4vg1JFW2vtBB9xo3hEYDAG3GDYKR4CvttoNBLf+973nFarxZkzZyJ3Ec888wx9fX0cOnSoSNBWF7gKzN1rRjzwvn8IyAcffPC/27179/6ZmRlee+21SEmrrq6usra2Rk9Pj5yfnx+uVqvE4/HHhoaGvhFsvn6BacxkMAbcYPhUD9wGpOd5eJ4XSd1zy7LC8rHtHrgKVNjuRVqAFaqyBWVzkSIsJwteMtTiD8ajMdwGY8ANhptRSkkgFyyWY8BDSil56tQpWa/XWVyMVs6XEIKjR48yNjbGwMBACXgvMAD3qiBIJbhGOT4+/sfDw8OR3HRt7URaLd566y0ymQx79+4dHhoaOg5UjQduMAbcYPhko5ejrXs+IoTYr7VmamqKzc1N6vV65K5ncnKSQ4cOEY/Hy7T7Z9/LBrxB0H5zfHy8rLVmY2Mjshfj+z6nT58mkUiQSqWGgEnaTVxMSZnBGHCD4RNwANlqtSS0G0yEZWNR8ebCZh5CCCzLCl+RbVxym4TXpoQQnhBCxuNxqbWm1WpFqvmM1ppms4kQYnuDEzfYYEqttYriEYHBGHCDoVvj8WtA4v3339+/vLzMxsYG6+vr1Gq1yFxEIpFg165dCCE4cuQIk5OTAAvATwMDX7kXH57W2hVCXAfo6emZAgaHh4dTL7300kGAV155hYWFhchcj+u6/N3f/R1CCCYmJg4CB2nXvPcG0YbwZTAYA264vwlKc0KXRm5PJoryNd0vJUfbvdHtz0xKGdlnGOWxZzAGvFOLcoJ2aM1sGAyftljaQog/BFI3btwYe/fdd6nVapFpGRrS19fHk08+GYbQz9JO7pq6n7w1rfUFIGHb9uBDDz10EODNN9+MnPGu1+sIIZidneX06dMA9pEjR56IxWKuEGKKdkmgwXCzXU0AUgghu/1FXd+Y0z47UpjkD8Onb/Yk7frvTLlc7p2amqLZbEbq3BQgk8mEsqnYtj0DFIFZIUTjPnqWc4DjOE5tYmICgFQqFbnrcF0XaNeGz8zMIKW0Dx8+HMqrrhoDbvg969iO6Ofb8XgcaNerdpJWq0Wj0cBxHIwBN3waSilbCGH7vp/QWtuA3Ww2Za1W21pAI7X9tm3S6TRCCKSUDdqZy+599lhdoCaldJPJ5NYaE4bToxaadl2XarUaHhP0AE0hhIkoGj7NaZWu68pGo9FxFUnLsojH49hPPPEEAGfPnu3oF1y+fJlarcbQ0FACOEw7KzVjnq3hE3asw8C47/upGzdujAKZc+fO8eqrr4YGPlLXMzQ0xLe//W0Alc/n3w68tIX77LGeAi6OjIysjoyMKED+p//0n5iensbzPKrVaqQu5vz582itSSaTzne+853/MXh7EfitmcGGm8gFNk+ePn3aWV1dZX5+vqNfMDo6yhNPPIEdJp50OtFGa729a5TxvA23smuVWmu5ffxEdEOyFdEKFNfu9dKxTwysACpQoNu6L1FN6tNa4/t+mI9hFNkMt7SeKaW60j0xiO6ZpDLDXcEo8JTv+8kPP/xQKqUip7oGMDg4SDweZ3h4mP7+fgDi8bhLO4TuaK0P3gPPqhhcj9JaNz6lDroM1LTWC0KIU4AcGRnZf/To0UypVOLUqVORuugbN25Qq9XIZDJyZWUlH3SZG9ZajwbGfPEelsc13KUYA264G8gDh7TWzuzsrPQ8L5IKXj09PaTTafr6+shms+HbbvCygeF74Flt76bW+BQPoQHg+35JCHEVkIVCYXh8fDwTxc1ZqVSiVCqRy+WoVqsZz/NwHKePdptRj3Y43WAwBtxw7xOElUL3LQGkAGdjY0N6nkez2YzcNcViMRzHQUq5Jftaq9UKruvWovyspJRbGeSxWKyWSCTCjUn5s/5u4JXWAJlMJlU2m6VcLkf2XmitqVarYXOdBB+LuhgMxoAb7h+klBnaZ0UHga/5vi+///3v29VqlWKxGKlrEUIwPj7OwMAAmUyGd955B9pn+v9H5BcJ22ZkZAQhBD09PT9PJBJTwJIQ4v/kM86ChRBl4JeAfPbZZ482Go2hDz/8kL/7u7+LpEiK53m89tprxGIxHn300WN79+51gJLW+iT3X6WBwRhwg6Gd8BF65t1I+thJQx56atuu7V5bM+RtXNeWNrqUkvAVZbaVwcnbvBcGQ2cnY6FQADovsrC5uYllWaRSKZt2a0gFmDIyQ2jobOAo4Fy5cmVvvV5PVatVVlZWqFarkav/1lrz4Ycfhp2rePvtt++ZZ+U4Dvv370cIwXe/+92Dzz77bAGYucW/XqPdYpSJiYmS1ppKpUKhUCDsVtZqtSJzL1qtFq+++ipSSgqFwijt459lIUROa10DXCGEZ2b4fU0v7c51lMtle2VlhUqls+0PUqkUhUIBO5PJbE3STtJsNqlWqzSbTTu4IGgXtxsMofcyDCQ2Nzd7i8WiU61WqVQqkWpcsp3ttZ5nzpy5pwz43NwcQghOnDgxGMznWzJSQYOTOYDBwcEGsHXMoLVmc3MzUvdCKcWFCxcQQlAul3sDA+4EL+9W74vhniYBDN5kBzs+JzOZDHYsFmuvph0Oa/m+T6vVChVoTN2k4fftVFONRiO1sbERWcN9r6O1ptFoIITAdV3puq4E7FgsltNaK6D2KV7n9hr4GlAWQtiZTCaltca27cglLLqui5QyXJwlIBOJRMayLDsw4OYs3AC0IzatVqvj/RwsyyIWi2EPD7crW7aVvXSE9fV11tfX6enpkXwcOjdn7obQk3GEEN8VQuSvXbs29LOf/QzXdSMVTr2fFqELFy4AMDc3l1hYWEhIKQf37Nnz1cA4v8PvUZoTQiitdTn480nAi8fjha9+9avPAvzt3/5tpFTZlFLcuHEDgIsXLybefffdhGVZ6oknnjhhWZZLW5ltyowaA8DS0lLHVdhCez08PIx9v7Q6NNx9BKL/UmstTdvG6Hjjt/mMt/9df/v75pkbDJ977UQI0X2POKybtG0bIUSv1nqQdiefYtSzUQ2fy4NJCSEyrVYrU6vVxoDC1atXE6+//jpKqci1Dr3fmJqa4vXXXyeZTCZGR0cfCwz0NLem9X4WKGez2X1f+cpXntVa8+qrr3bFQ9kJLl++vHUvjh8//jwfC7oYD/z+W9cQQuQBu1ar5bTWoVZAV793Rwx4q9VCa41lWQ5twQ5zRnT/YgdjIOV5Xi/QWy6XuXr1qrkzEWB1dZVr166RzWa3K8vdagnLIqCSyWRqfHwcrTWBKEwkWV9f37oXWuv9tI8Tes0ouW9JAI7v+47v+ztmwF2AWCwmM5mMrbWmVqt17IuVUtTrdSzLwnEcO5vNOrQ7k5nHfR8ihEgBg0qpzMbGhgwTpAzRoFKpsLa2hlLK1lr33qYjUANKlmVVksmkp7XGcRzbcRyUUh1vudht6vU6pVKJwNtKeZ6ngITWOqy2cc06d9+saxBUIzQaDTtM4O6kARdCkEql2qFz2/YAZROEvgYGBnofe+yx3larxdtvv92xUKbruly6dAnLsigUCr2FQmEYqGitr5vHfl9yGHjR9/3EP//zPydarRZXrlwxdyUinDp1iunpaSYmJlLAl4O3v3erf522Jro3MDBQ0VozMjKSuXHjhl2v11laWorUvZiZmWFhYYFdu3bZm5ub+33fR0o5lsvlhmmH0+fMiLk/0FojhBgEUouLi33FYhHP8zqqZ2FZFkePHsW2bQqFQgUo2dute7da/W1TLjIYIFCuMuMimgvVTUpkt+ulKKWUCjTS5T10LwyG3xkb3fL0t9toG1gGaLVaDl04v1FKUa1WsSyL/v7+PtoF7kbQ5f4d2GNCiK8ppeQvfvELZ3Nzc6tEyXD3Uy6XqVarpNNpOTMzk5FSkslkvqS1rtBubvLOZzkBQogK7dIzjh8//sTu3bvz169f50c/+lGk7oXruvi+T6lU4p133iGRSDA8PPzwI4888i2gAvw/GP2L+4KgoiYP5JRSvdsa3nTl+1qtVgVYtmmfS+H7flcOoMIktkDfOkxiM4ee9y85YFRrzezsrFxfX49c45L7mTAkWKvV2NzctKWUxOPxQdo93YuBV/1ZRsslaL+5e/du13GcyEnnhs6JUopms8nS0hLxeJy+vr4CsA9YN6PlviMBpLTWTije0i0DrpTygNr2JDYvlUp1fCIppajValiWhed5oeSg8cDvI5RS0I7uyFqtlgHsarVK+DLiLdHD931WVlaQUpJOp1PchrxqsOYUAZnNZj2lVMeFpHZ6fC8tLeE4Dg888ECGdo9wI1p1/+EATqvVsmu1WlcMeDKZbCuwtZPY3K0ktr6+vqGDBw9Sr9d54403OprENj09jZSS4eHhXmAE073nviIILz0DOIuLi4c2NzczlXJdxQUAACAASURBVEqF6elp431HlEqlws9+9jOEEHznO985fODAgRwwo7X+/z7r72qty0KIXwsh5LFjx77m+/5oeLYXxfPker3OD37wAyzLYnR0dBLYH6yrtxKNMNwDBElsBWBXuVzuvXTpEkqpjjonlmWxb98+EokEvb29ZWDBGFLDTmPGnGHLee1W4uwXtYgbDF12hn7nf28lsVmWVUmn00gpOzqhPM9jaWkp/DfHgu/MmN3pfcdXgMzMzMz+U6dO0Wg0InnuaWhTq9V48803AXj++ecPA+NArxAio7VWWuuGlNL7PYtQGXgToL+//zowODg46ExMTPRqrZmfn49UgxPP85iZmUEIwcLCQmJxcdERQuQHBgae0Vp7wLQQYtmMmnvesB4CxpRSo4uLi6E+QEe/J51OE4/HsSyrRpDE1gCQUqpYLNbx80itNfV6Pex2lqF9VpYzj/y+87qHgFytVsstLCzgum54Nm6IIL7vs7y8jBAC3/dzwZxe5OO2mp+22LnAstaaVCpVAWrJZHLrHHxxcTFynnfY77ler8tGoyGFEA7ts3CltV4wI+a+oDd4ZRqNRpi43dFNgm3bxGIxgu5/DRvYBIjH425PT0+oWd6xL1VK0Wg0kFKilLL5uH+u4R5Ha20HERebdolFb6PRyCwuLm5VJhgi+2y3WoyWSiVWV1cRQth9fX35oMbb5daS2krAqmVZuaGhoUGtdaSFfUqlEnNzc1iWJUdHR4cATwiRMCPmvsABEkopu1sGPJfL8f+z967BcVxXnufv3szKyioUCoU3CIAgSPAliqQptR602pIlUw/KLVuy6JDVGvXD9ofxRE+HJzZiY6PDn3ZmInY6PB2xMxux3T3dPXZPr+3ptrv94FiSrQdl2dSLEkXxJZIiQZAEQBDEswAUqrIy790PmQlBsiVTUhWIAu8vAiEYLqmqMm+ec8+55/xPKpUimUx6wIxNOIiA1atXTzQ0NDA9PV3R2eCLU+iR9rVDWIFqWPmkI8dtExaxNY2OjvLUU0+hta65OdCGX3+uAd588804tZe59957PyWlVFrrZ4haVH8LR4BCNpvtve+++zYCvPXWW0xPT9fkdTl06BAAdXV18YATBfRjBpys+A1tVMTWUS6XM3EKvZLDmSzLYtu2bWQyGRoaGsaA06bVwWAwfGzjtfifHxL1nn+uqGuy8CWjbNNKKtozfLg1UEniNWQTCSrkcrnZdDpNMpms6AIrlUoLu9LZ2dn4/NsUdFwb9ACf8n3ffu6555wgCDhy5Aizs7NGgnIFceLECbTWNDc3Z++77777CKvLD/NbtMCjqOU1oL+9vf3G3bt3Pwzw3//7f6/Za3H8+HEuXrxIW1ubQ5h1Qmv9rBDiaLRJMbZvZSIJax46ZmZm7DfeeGPB/1XSabe1tZHNZkkmk7PAyEIRWzKZ9KWUuK5bUQceBMFCOiwIgvjs25yBXxukgVWAHB0dlb7vk8/na27qlOGDmZmZYXx8nEQiYRNKJUNY63IlUcQE4GUymYlkMglAIpGo6WvheR4yPIdsif6cia6HWfgrGwdwfd+vyhGQEALXdXFdl0QisVDENgvgOI5n2zaFQqFq325+fp58Po8Qwq6rq2tSYV5pVkpp+olWJhnCmdFybGxMep63UK1rWDnk83lGR0dxXTfWgwbIKKXSUTRe/ICgoAAgpZy1bbsA0NjY6La1tclSqVRzZ+FBEFAul/E8j9HR0bhquL6xsbGNsLDPTChbQSilnGity7m5OQlUdTyy67qkUikinzm7UMTW0tIyIYTAsqyqndFcunSJ/v5+pJTutm3btkfVqkeBMbMUVh5a624hxN0Ar7/+ujM7O8vAwIC5MCuMkydPcvbsWWZnZ9PA9ujPPdF4RY9I7fE3RRRxi5Xrup1xr/T27ds76+vrnYsXL/LKK6/U1LXwPA/P85iamuKll17Csix6e3vXNzY23kY47OUwRv9ixSCEyAFbADkwMJBWSjE6Wp1TEiklbW1t5HI5tNbjwGlZzTGiBoPB8FsMoLE9hhWxjq/Gc7O4Cn0cOCWEsLdv395bLBbl0NDQQqtIJRgeHubUqVMkk0l369at66MvPWAi8JWDUkoKIbYAzuXLl68rl8ud5XKZ/fv3y6mpqaqmlwxXh2KxSKlUYnR0lF/84hexJvj1fX19XvRsX4mQySjwBMDWrVu/uHr16rZjx47VXAS++Jo88cQTSCn54he/eBPQo7UeFkJ826yYFUUG2Ki1lv39/bbneVy8eLGib9DR0UFnZyd1dXVKCNFPmMGZgHdPzPGAghDCrq+vx3EcLl++XNEP4nkehUIhrj5Nx5kBswZW5KJ2gyBIe57nxEUdk5NmwuIK3bQtPN9TU1NIKWlvb88QnodfaX2LH2/k6+vr/WjOeM1ekyAIGB8fj/UvsoCMFOgMKwubsFhXzs/Py1KpVHGJ6GQySTabJZ1OQ1h07sfP1WIHXiQ8o7Hr6+tJJpM4TmWLxQuFAvl8niAIbKA12kmYivQVRJRV6QTSk5OTubGxMXzfr6iggWF54nkeFy5cQEpJb29vC7CaKz/vLQLnAJqbm736+npyuVxNb2ouXryIEILp6Wlnbm4uDWTS6XSL1loBs0IIk46qfRygGZBzc3N2oVBgfn6+Kg7cdV0V+Wg/el7e5cCngH4hhNvb23uL7/tycLCyBZOXL1/m7NmzNDc3u4QH/3G0Zlg5SOB3gabBwcGNL7744kJlrmFlMzMzw759+xBC8IlPfGI74YCTo1zZ4KIJ4DmAG2+88U+Bms7YeJ7Hq6++CsD58+ezly9fzgohVE9Pz9boWpwg0uAw1DRZYCsgh4eHncnJyYpnrnO5HOvWrcNxHCWEGIii76n3OvCFzWO1CtveI95hppGtIH6DMIvUWksj2HLtrYNFz/ev/f0DbMqv2YLFNqiW19BvsHuGFWwDq7FW3++5sRe9+ZgQ4iRQ39fXp5RSHDlypKIfor+/n3w+T29vr6u1jovYTAS+MnCioQ02cC/QefnyZXfv3r1orc3o0GuA2dlZfvGLXwDw+OOPd+bz+TYhRCGTyXQsEm15v7TxQrtZJpPpB9KrVq3KPPDAA51aa375y1/WrD76qVOneP7553Fd1+3p6bk/uhZ5E4GvCDLARkCeOHHCHRwcrHgbWVNTExs2bMCyrFhXf05r/WtFbD5QFELYqVQKpRS2XVmp9GKxyOzsLPPz85Lw4P/9sgCG2kRG9zMHNPm+z8TEBFprM3nsGmCx6mK5XHYikYs0oQqZ+qDoU0oZTzBDa10ACslk0m5ubkZrjWVZNXtdCoUC09PTeJ5nE40YxdT+rBTiIjYKhQKzs7MV77RJJBKxeAtCiDneKWT7tSK2KSml39LSorTWpFKpin6Qubk5tNbk83npeV46mnqW1lqno0VdND2htYnWOi2E6AyCwBkfH5cQnmHOzc2Zi3MNMj4+ztDQEJZluQ0NDeuj5zvPlU0oGwEytm13dHZ2rlNKVbygdikZHR3l7bffJpvNSq11J+GM8KzW2ol+9ys5AdJQdVtHtCmVnuelgXQQBHJmZkZOTk5WXM00nU7T2tqKlFIJIeJn6N1FbEKIKWDAcZzsli1bFEBLS0tFP0h8uJ/NZu1CodAmpcSyrDbHcT5Qscmw/IlUt27RWtsnT550gyDg7NmzFS/oMNQGb7/9NplMhvr6+tymTZvuj/58nisbJfw6MJTJZLbdfPPNO5VS/NM//VPNXosjR44wMDBAV1eXC9wU/bkzitzijY2htmgCnFKp1BYEQVsQBAwPD3Pu3LmKv1FrayvXX389gEokEucJOxjy8O6UllpkjJdyJ2NYOUjC4jUzbcyweA3IRevjw6BWYkbOPBcrb40vxT19z7Og3hWBA8Na61HbtltWrVqlAJqbm6mvr0drXdEhFHNzcxw4cAAhBD09PRs2b96cB8a01iOYyvRaZT3wr7TW8umnn07PzMxUvAjSUDscPnyYiYkJ1qxZk92zZ89nImP3j1doFF8TQrg9PT1+V1cXQRDQ0dHB5cuXKZfLNafmNzU1RT6fRyklX3311axlWTQ3N3+ir68vD+SFED83K6amnHasNtk0ODi4YXBwkCAIKt7/nclkEELQ3NxMZ2cngC+lPKi1nopFgRan0D3AU0oV4uI127axLKviuwutNYVCASEEQRC4vFPoYqhdXMK0kpyZmZHT09MVX9CG2mF+fj4uWLV5p9PkigpWhRAFwE+n00UIi+MSiQSWZdWkIFAQBAtaCPPz81JKSUNDQzq6LmbEaO3au7Tv+06hUEApVXE/GQ8WSyQSCzUgWuuClHLhkN3+DQ9PPHS+4Lpupr29Pb24urQSlMtlLl26FEfgOa11m1nItYdSKp7GIz3Py2mtmzzP49y5c3J8fJyxsdqVuLdtm/r6+oXfTZHRhzc+nudRLpdlqVTKRD3dOa11U/Ss598vPa61LgghPK31hBBiUGtNc3Nz2+rVq53p6WnOnz9fk9ekXC5z5swZIpnYDq31dcAls1pqMgpvAdqKxWLu0qVLKKXw/cq6sLa2NqSUOI4zS1i4NsV7MtS/aUfsE6oEpRsaGtZdd911PZ7ncebMmYrtMEqlEidOnEAIwdatW7ujTYNtzoZqi0WyqU6pVFobBEGP53m89tprVFrFb6lxHIeenh6EENTV1ZFIJMwN/5AUCgVKpZI9Pz/fEkUS3Y7j9ACzWuv3LdySUk5FG8TzwGtCCLlhw4Y7stmsMzAwULMOvFgssn//foQQrF27drsQohsY0Fr/35ijw1qzfT3A2kKh0HnixAm01pRKpYra1k2bNmHbNtlsdoKw/3s28pUf6MAXAqz4P1QtRbb3qBOZEKc2WShcU0qtmH5vIQS2bcf/VLXch3xVF8evZy4+dCFbfD+iPtiavh5R1iq2f3KxTVy0KTYsf6zY9lUjff4e36sW/fCBDlxr7QMHhRBuR0dH5uabb+4pFAo8+eSTFfuQhUKBAwcOAPDQQw9tJ1SyyZnFW5PO+26gsb+/f8fbb7+N7/srYmRob28v/+W//BeklGSz2VOu65pWn49APIghMkg5YDPhEd3pKzBgY8A+QN555503lUql3P79+9m3b19NXov5+Xmee+45hBDs2rWrc2ZmpoNweFQ3YT/4BFfWJ2+4upt7CdwCbC2VSukDBw6gta5ozY8Qgt/5nd/BcRza2tpGgIORwJH/WyNwIcQ8Yc+ZH6uyVToCj7+s1jqW3zRFbLVJBsj6vu/Ozc3h+/6KiMIdx2HVqlVIKWltbfXq6uqMYf34z70kVCC7UvXFeGqXzGQyKplMVlxcaom//4Kwke/7dvScxNfDpNBrizSQ0Vo78/PzVVGbdF2XZDJJIpHwCUd9z783iLbf56EZAexsNltYtWoVMzMzFf1gvu8zPj4OQD6fd2ZmZiSQrqura4kyAHkhhClqqw3WAh3T09NtR48erfnJY42NjbiuS0tLi6qrqytIKZFSvgicMbf6Y3OcsBDnSrMZBWAAkG1tbZ5SitbW1oU54XH1by058HgmwOjoKAMDA7FSXTyZ8aCJwJf1/XOAjFLKnpubcwEnn8/bsS+rdIdER0cHrutSX18/CwwRip198Bm41loJIU4B9qpVqyYaGxuZmpqq6NlMuVzmwoULAIyNjTnj4+OOlDJbV1fXHX3A08CsWTI1wY1A78TEhPPss8+ita7pFHpXVxctLS2sXbvWa21tHYvOcL8nhHjB3OolN5hTQohDUkp7w4YNBYDTp08vKEQODQ3VnAOPZTb7+/s5dOgQqVQqvXXr1l0AQohBjBrlcsYFegA5MTGR1Vqnx8bGFnxZJRFCsGHDBtLpNKlUagw4RZg+/61FbAsH5kIIFUUgCwfqlT6sf0/hU5xKMgVty9sQxYVrMi7Eie9jrXcSRPK+cfGVWvRMGK4ei20SlmXJWl9nQRDg+34ctZmBTjViHqJ7tVC4Vo0NZOxrF/terrSITQjha60PAvT29n5BCMHk5CSxIlKlB1REIv/U1dU19fT0PBh9yL/H6AMvZ7oJizjkyZMn25RS2VOnTnHixAmAivdDLiU7d+5k27ZtNDQ05IHneKe4yLD0+FG7mRRCvAiM1tXVdezatWu71prvf//7TE1N1eQX279/P6dPn6arqyv76KOPPhQZ6Z8Bh8xtX7aBS4cQ4kGttTx8+HBufn6e06dPV/Q9MpkMuVwOy7LYvHkz6XQarfWw1vrV+Jn4QAceRR7FKKryhRA4jrPQUlNpQQvP8ygWiyQSCUlYEKUWt1cYliWxupYsl8u2UkqWy+UVMfPbdV0ymQzpdFoRnkcqjMjQVcuGRPYgtkkFKWUxMmo1La4zPz9PPp+nsbExtnsmEq8hu+d5niwWixW3eVLKBQVUx3FwHIdoWl3x/T7QBzFO2EAuOzs7e5VSlEqliha1Xbp0if7+flpbW11gHWGaLG3WyrImA/RprTl9+rRdKpUYGRmp2S8TyxUKIejs7GTt2rWx+tEb0UtMPcbVj36GhBBkMhl78+bN1PqI0ZmZGYIgIJPJkM/nnehooENrvQ7wovNww/KyE+nIR8nh4WFnfHyc0dHRikfgXV1dSCnRWg9EAcT4B+0oPugDDwOHAWf9+vU9Wms5Pj7OxYsXK/aBBwYGKJVK9PX1ZYCtixyEYfnSFN+rQ4cOOTMzM5w9e7amI710Otwz9vX18YlPfALCTogXogfIpNCvvvE8DUy0tra6t956K0qpmm4pm5ycZHJyEtd15cTERDqSV+3LZDLbCY8PjQNffpvIrBBiO8DZs2fT586dY2hoqKLv0djYyIYNG2JJ86OAL4QY+UgOPEIBKh5qUmmxFaUUQRDEBVBxcYpUSsnIuJoCouWzgOEd1TwJyHhQQy0OmVjMIqW1BeUv3qdwxHBV8CNjpuIin2oV1i71M+X7PlJKIptnY4p4lxWxL4rul9RaL9i8ShexRZmY36rAdqUO/Dzwim3bdXffffdntdYMDg7y1ltvVewDHzp0CMuymJiYcKanpzsty8K27Y11dXUThKnLAbOElg0dhJr1W4QQ9wI888wz7oULFxbaY2qR+vp67rnnHgBWrVo1mM1m84TzAIYJj3TMGfhVtqFa6+eI+sHb2tr+UClFd3d3plwuy7m5OSYmajNJMj09zbe//W2EEPze7/3eLW1tbZ2R3X3G3PblgRCiF0jPzc1t9H2/MwgCXnnlFfvIkSMVD1x6e3u5++67Y0d+gLD3e/CjOnAV/QfsZDL53kilIpTLZeICKK11PNDEXvRjWD4svi8uhINp5ufna7qATQiB67rx+vallD5hBbT/3uEBhqtzf3insNYTQiil1EKxTy0XsymlFo9WdqLnyjF3ffnZvcg/2UqpheLrSmNZ1oItinyv93Ei8DHgtJQys3r1aoAFFaRKUywWOX36NFJKOjs719bV1eW5Qs1kw5KxHsgMDg6unp6eRinF7OwsxWKxplPoyWSS9evXhw+EbfdHEZBRXlueznw2tglr167dmkql3KGhoZodXet5HseOHQNg9+7dnYQSnWits9FLCiYDdNVZBzRNTk6uGRkZIQiCik4eW0x9fT2xrxVC9Ecb17GP6sBHgEIikcj19fUpQDY0NFTlgxcKBY4dOxYPj1gf7ULPYFJJy4ntQPOlS5fWHT16FKUU+Xy+5oeXJJNJrr/+egBSqdRxwurzUcz593JkirC4hy1btqxfvXq16zgOhw7VZvv0/Pw8r732Wvx7N6HGgk1YKArR2b+57VeVzcCamZmZdceOHUMpVdHBJYvJ5XL09fVBWHd2nHfmgH8kB/4uVTZARX1qEior2LG4mENrbVLoy5M4lSTjoSW1XEAUF2TGvZfR3+K+b+O8ly9+lC0hkUhQ66Ne42coVmeLvlts+0xB2zKze0EQVNzuxbdbSqmutIDttzrwSAUpb9v2bH19/QlAbty4sfOee+5pKhaLPP/88xX7ItPT0zzzzDMIIdixY8eN0a7nNbN2lhX3AL3T09PZp59+uuIj9JaapqYm0uk069evXyhiE0K8DvzcRD3LlhHgaSGE3L1792eVUjnbtvnBD35Qk18mzmIBvP7666RSKRzHydx99933Ri95AqNDcLW5Fdiez+czsd2rpBaKlJI77rgjPsqbqK+vH4kc92A0QvSjOfC4hUspFVfiStu2VTKZfNdg+krtQj3Pi/+bTmRATQS+vHAAVynlREWHNR2Bx7rnlmURF2lG684zDnzZRqtKCOEB0nVdpZQikUisiAg8LuaN5k07JgJfVhG4o7W2q2H3YrXTZDKJbdsqKqJVWmv129qor9RB+oSCLjKXy7kbN25sqfSI0fn5eU6ePIkQgsuXL6cnJycdIUSL1ro33nkLIYpmLS15hJAWQrQAcnJysgnIjY6OOidPnlwwOrVKZ2cn7e3tdHZ2Fgmn/UAo2lLEpNCXK7Na61OAjMYsFnO5nN3e3m5rrRkfH6/Zgspz587FWtjp+++//9boz2YK3tXZVLmEbbNMTU21aK1zo6Oj9smTJys+cVEIwbp168hkMjQ0NIxFvvaKNCg+jAN/A5Ctra3rrrvuOiYmJioq6jI/P78wDGN8fDwzPT2NlLIll8vFDnwqMqyGJUQIkSGswiSfz7dorXOXL1+uqBbA1aKrq4uNGzfS2NhYIJzFDDBqNorLOmuSB45rrWVjY2MeKDY1NTmrVq2ytdZMT0/XrAMfGBigXC7T3d2dBnZGf24yd/2qkAZ6Y7unlMqNjY1Vxe7Fo0NzuRzNzc2jka9VV9LC+mFS1B4gLctSiUSiqmkr3/fxPA/LskwqaRnYzPgeeJ6HUqqmo+7FJBIJXNeNNbXjRnYTedcOHqFuuFx8rFerxHavXC4TBEFs72yllB1tXsyxztWxe1IpVbUpi/EshqggM9ZeqXgE/hzAjTfe+EmlFMPDw0gpq7LbPXjwIPPz8+RyuZa+vr490Z/7MZrUV4NO4AuAfOqppzJzc3McPHhwRXyxO++8k927dyOlnAWejf48Zm758ieSdf4ZcLi5uXnjF77whbuDIKC/v79m2xqPHDnCsWPH2LRpkzM0NNQNkE6nt7e0tMwCeaXU4VoWrakxWoA9AC+//HIun89z+PDh6uwUoiK29vZ2pJQDRK3TWuuKOfB4V0AikVBa6yWJwKMdj4nAr/5O1AUol8uyVCrV9Lzv3xSBR4Ui3pU+NIblFYFLKf1kMkkQBDUfgUfP2YL+tmmpvfoRuO/7cpE/qgrx6NAobX7FspZXvCi01lPRG40CI6lUSm7evLnN930uXrzI1NRUxb7M8ePHGR8fjyeU3Rj9uSkqLFBaa8/sRKse4TiA1Fq3CSFuBDhx4oRz6dIlBgdrd1CSbdu0tLQA0NjY6OVyOUU4/elE9BLTslMbqOiejdTX16evu+46fN+v6RGjMaVSiePHjwOwYcOGvtbW1gJh+9xBc9uruKDCIxgnct4tse85duxY+ty5cwwPD1f0/RobG+no6MBxHFzXHU0mkwoYjX0tlUqhRxHKVPQlLwshRtLptL1x48a2IAgoFAoVdeAnT57k/PnzcQHV9tiBR5Gg/2F2KIaPvikEbCFEW3wPzpw5Q39/P7OztevjbNumvb0dIQRNTU1+LpfzCEeHnjC3vKY2mAghTgFuc3NzdyaToVwurxgHfupU2BTR1dXVEzkUM2J5Ce1e5G+2A7z99tu8+eabFR/Y1NjYyKZNm0gkEiqdTo+mUilfa31ZSnnFzvSjpGUUYeEIiURCWZYlKx0NK6UWxozGaQshhG1ZllPLfce1tBONF7Lv+ws3d9HY15r9bkIIkslkPIrS9HzXthNX0XhRJaVcUIlMJBIL9qNWn79YaztKoTtAQgghtdZKa43JQFZtTdlCCMf3fee9/qjSdk9KieM42La92BZ9qCO8D+3AhRAHAZVIJBq/+MUvbgXk+Pg4Z8+erdgXiwcTNDY28uKLLwLQ19e3q6urq1cIMaC1/olZatV1csBtQNPAwMDvxKmjs2fPcuHChZr+bo2NjXzlK1/Bsiw6OjpeJOz/HjJ3vfbWqBDiNEB7e/t6YLBcLnPnnXd2Xrp0yT5//jxvvvlmTX63iYkJ/uZv/maxKuV24BCQjb77rNl0Vs3ufQbovnjx4qbYp50+fboqdm/9+vU88sgjCCF827Z/AkwLIT5UpdxHjcAVoGzbphq7wXino7VePDBdRj+mmGNpkIRn4Av3oNaV1+KHNB5DGev7Y1rHam9xhjZHxZE4Yd/sgrpeLRezAYuzB3LRj2GJ7B4gq2333rNWg49iiz6KMxwBjjqO03b99dejtaatrQ3XddFaV3TM2vT0NL/85S8B6Ojo2E7Y0vQG8C9mnVWP6Hzxd4Duqamp3nhaUq1PHYN3Jo9ZlkVDQ0M/cIAPmPZjqAmmgKNCCLlu3bq21tZW2/O8mp1Q5vv+glDWhQsXnNOnT9tSytzatWu3Rsb+qFmzVXPe24CtU1NTbbHvqbTqaHyE197ezvXXXx/3gZ8gbJMeqbYDHwWKmUxmNp6h3NzcjOu67zq7qQSzs7MLPcef//znNwI9hFXC0kRNVWczsLFYLObiecXVmoG7lDiOQ19fH4lEAtu2zwHHMQp/tU48I1yuWbPmtmKxmB4aqt1TkcUDTi5duuQMDg7iOE523bp166OX9BsHXjU2AjcWi0U39j2VLl5LJpNIKWlpaWHDhg1Evmwg8q35ajvweNyiHxk+27ZtO51O277vLyy8Si3keNpVuVyWvu/bgGNZlhulzbwrkZszXPH1XkgfBUFgCyHscrlsxwu4ltPn8djJ6OHxFxWxmXnLtY8fOXE7asWp+QEnMaVSiUKhECuzZT6G3Ta8D1prSTisRAZBYBMW79qx71l0jFsRUqkUlmVh2/ZiPxr/Xt0UetSjlo+c5zOAvWnTpu0PP/xwz/T0NN/5zncq9oWnpqZ45plnAPjqV7/a1tra1fSJYAAAIABJREFUqizL2tjV1XU3YT/4r8xOtHJEbXu9UfZjC7DxwoUL/Mu/hCcWtVrVC3D99dfT3d1NZ2dnMZvNnorm7x6Pfgy1TT/w90II54477nhUa900MjKyIr7Yyy+/zMWLF+nq6mrZtWvXH0V/fg04b257xRx4TghxGyBHRkY2BkHQeebMGRn7nko6cCkl999/P5lMhvXr1w8SHod4wEDkW6vrwOPiERV+Kx/Asixl2zbvzKCv2IVdcBpRIYGMdkumsKN6xNdURtd7RSivRTveheK1aGytMhmcFUFsi6RlWYvtVM0Tt9JGEbiJvKtn8+xFNk8u9j1VtEWLs9n8ttGhFXHgi6I1j7AASG7cuLG7ubm5d2RkhP/xP/5H1XaiY2NjNDc3Nz3yyCN3RQ/tQYw+eiU3TE1CiFu01hw/fjxdLpc5d+7civhu69at44YbbqC+vr4QRTBKCGHWzsqgCEwIIWzXdYcBu7GxMbN9+/acUopTp07hebWp/TQwMMDU1BTFYtGZm5vrjo5+2rTWTYAvhMib2//xEEJkgbu01vzqV7/KTU5OLkzGrMJ78clPfpLm5mZaW1tHgVf4GOJkH2dH5xFKGcp169ZNrV69uqrG/sSJE0xOTsbyqtuji5E2y6+iZIDrAAYHB925uTlGR0dXxBfr7Ozkuuuuw3EcD3gr2gAa2dSVYYB9wmEftuu6Y0C6oaFBrVu3LhcPOKlVB37p0iUmJiaor6+3y+VyC4Bt21nCnvAiH7LoyfC+dm87wKlTpzIDAwMVl01d7MC3bNnCqlWrSCQSE5EPXchmL6UDj3e+UkrpWZblW5Ylk8mkDIIgFuSv2BcvlUrMz8/jeZ4MgsCN0qBupI/uRw+x4eMhCefgUigU5Ozs7EIRYc1+oSiVGukN4ziOAgof56ExLPtovCClzKTT6ZofcBLrMARBsPAsuq6bBjLRcaLho19bh7Df29Fau1EbtJyfn694x02cNo9T55ZlKSmlF63Xj6xFYX/MB+UZgI6OjruALVpr+9Zbb+1WSvHWW29VNHo7cOAAtm0zPz+fm5mZuSWSxNyZSqWyhGn0o2ZJfuzdYSfwRYCf/vSn2TNnzjA5OVnTzru+vh4hBDfeeCP33XcfWuu8EOJfeKdy2bBy1q8Cfgbkurq6bt2zZ896z/PYt28fc3NzNfmd4g6Q4eFhfv7znwOwc+fO+xobGzcJIc4A/6+58x+ZzUCuVCptL5VKtyilOHTokHz55Zcpl8sVfaPW1lY2bdqEZVmsXr16uKOjw4981s+jzcTSOvBoV6ve++bRGU3Fd73vUcOR74kaDZWNwhd2/pVuobgKRv03rUujvrZyeZcq20rSDH9PG6cp4q2cvZOL7V41lNcW25/FdujjFtHaFVpYZ4CXE4lE5jOf+Uyn1lpOTk5y6dKlil2AYrGIlJLh4WGeeeYZhBDs3Lnz9u7u7g3AMROBf6z7t50wJbc1riv42te+JqenpymVSjU7fSxSOALgE5/4RNym0U+YQjfHLiuT40B61apVXblcDqUUf/EXf1HzR0H19fXceGM4Wbmzs3Mr0E103GX4yOwENo2OjnYfOHAArTUXL16kUChUPHDp7Oxk165dCCGUbduvaa2LwJmP+9+tiAMXQowCpxzHadq6dStaa5599tmKXoC4lWlycpJjx47FadHNhPKqRknr49FDOP92NeAIIdi1a9dK+44ThL2zg4QaBsZ5r8zoexiw29vbx+M/rlu3bqV9z06gDRgzt/xjsQG4sVQq5Y4dO4bWmunp6aoUPDY2NrJ169Z4FsNA1D3wse9fpSLwghBiGrBTqVSshCTjYSeV7KeL1d6EEJTLZScIAhdIR8VsaK29j9JPd41TIDwPvhxFqCuRQUKd4XFM+nwlE2/MplbwWi4AvtZ6xNzuD7nDU0oKIRyAyHe45XLZmZ6ephqaF/GwEsdxSKfT8fFOHpiOovCPFzxX6KKko4rwHuBpwP7617+e3rt3r+N5XkVL8m3bXihM+ud//md27NiBEOLFhoaGb0QO/DUppSlO+nAbMLgGztMWTblTseCHYUUZ58W1N3Klr2P4aOIf1/gayQohbgSYnp7+ptb6pldffZVHH30UCAeXVNKJd3V1kUgk2LNnj/fNb36zEG0wPy2EGNFaF6WUH0tovVIpdKjAgfxHMMRmRVbw/pkrYahl3lOwZtaz4SNtiqplYxdtLitWRFspaT6PMKUzJYQ4CNjbtm3bYllWx/j4eEX10YMgYG5uDiEEL730EqOjozQ2Nnbce++9X4gu1ClMe5DBYDAYft2R5oAvALz00ktt09PTnDx5cqHNsJLHvVJK7rnnHnK5HFu2bBkjFG3xo1bWQiUC3kpF4H6UnigSnjXKnp6e3kQiQaXH+mmtKZfLCCE4e/Ys5XKZNWvWZImUdADXLFODwWAw/AbSsa8YGhrKDA4Ocu7cuYr3fcdR93XXXUdbWxtdXV2zhEW0CihGUuTLJgKP8Qkr62QqlSo2NDSQz+eJzxsr2V+ntSafzzMxMUFTU5Pt+346umhppVQa8COlG4PBYDBco0R+xwHsIAjSWus0QD6ftycmJio6Ajt23LEOQX19PQ0NDaRSqWLkG5evBoVSytZa92qte5VSP1RK6ePHj+vm5mady+V0IpHQQMV+6uvrdWNjo/7iF7+oJycn9eTkpJ6fn/+K1vpOrfUWs3QNBoPBOHCt9Vat9Z2FQuFrsa/43Oc+pxsbG3Umk6moX3IcR+dyOd3S0qLPnDmjlVJaKfWPi3xjxQLnqo2ne68CVhVvjClmMxgMBsNH8iHVpppFwpV24EprPRp96NeBXCKRSO/evfsWpRS/+tWvOH++cnPoi8UiQghOnz7Nt7/9bQD27NnzpdWrV+eB/YSqTAaDwWC4tvkscPOlS5eafvSjHwHQ39/P3NxcxZ14Z2cnt912G1JKlUgkXiUUGnsz9o2VdOYVdeBRT2Ih2tmMAAO2bec2bNigtNby0KFDFb1Qcb/exMQEb775JgAPPvjgVsKq+FGzZg0Gg8FAqLp2k+d5TuwrJicnq1K8ls1m2bhxI0IILMsaJhz5OvJxe76XIgJfTB4YFUKolpYWtNakUiksy1oYlFEpPM9jYmIijsrtaBRcWinVRNifPmukMw0Gg+HaQWtta60zWmvpeV4acIrFohP7iko7byklQghSqRQtLS3x8fEYMKW1ztfaxWvRWvfOzc3dOzk5WZ6cnNSPPfaYzuVyur6+vqJFA4t/nnjiCX327Fk9ODh4QGv9x1rrP9RaN5nlbDAYDNcOSqmmyP7/8YULF944e/as/tGPflQ131NfX69zuZz+8pe/HBdVlwuFwh1R8VpLNb7jNSE3aDAYDAbDSvML1U6hFxKJhGtZ1nOA3LZt23bbttvGx8d54oknqnIxv/vd79LS0sKmTZt6v/a1r32VUPnmoNbaIxwhaSaXGQwGw8p10i5gR7M5vgrIH//4xz2nT59mZKQ681+EENx1112x6tpIKpU6Cigp5SBhPVZVjnCr2UbmAV6U+x8EZHt7+/pSqUQqlarazTtx4gSZTIZMJpMFtkYXLh19V6OPbDAYDCsbGdn7DLAFsC9cuJA5dOhQxUVbFjvw1atX09raSltb22wymRyM/M2sEKJQrS9qL8HF9Aln9MrGxsZCEAQopUgmkwuyqJUsaJubm0MpRT6flxMTEzaA67od6XR6Ns4KmPVtMBgMK5YmIFsoFNpKpZKttbbz+Tz5fH5B87xiOwUpSSQSCCFob29n1apV5HK5YuTzVLUi76V04FPA3wE8+OCDO4QQW44fP84//MM/oLXm0qVLzM/PV+zN3nrrLSKnbb/wwgsZIYT65Cc/uSedTk8AB4DvmvVtMBgMKxOt9WeEEDfMzMy0vfLKK1mttXzttdc4ePBgxd/LdV3a2tqwLItHH32UDRs2oLU+DfxN9JKqVp/bS3lhFyuyCSGWsqBARjf2Xe9ZLYU4g8FgMCyp0/6tv18NP1dtliqFPhJdzFeEEHY6nc4+9thjOwH+8R//kbfffrvib3rmzBn+6q/+CsuyZG9v72dc1/WllLlMJnM0eskJQsEXg8FgMNQ2LrARYHZ29j6t9aeGhoac//bf/ptUSnHu3LmqvOmaNWvYs2cPQghc130RmI38XFwtV9W6q6o78GjmaRFAKTUGDDuOU+zr6wOgrq6uKu87MzPDyZMnSSQSlMvlzuicvZPwfGQhKjcYDAZDzSNj266U6tRa93iex6lTpwiCgNnZ2aq8aSaToa+vDyGESiQSo4RHxmNL1e201Cn0MeC8lNJra2vzAbLZrKyrq5NKqYqehSulKBaL+L7P0NAQiUQC13Wz2Wx2XfSS18yaNxgMhhWBDawDuHjxYqZUKjE8PEyxWCQIAoIgqOibpVIppJRks1nV1tamABXJpo4BE0v5pZeS54FXOzo6Nn72s5/9IiCfeOKJTD6fl3NzcxVNpReLRUZGRpBS8oMf/ICWlha2bdu2cdOmTX8aveQpYNase4PBYKh5moA/BXjhhRd633rrLUZHR7l48WJFu5yiQJTVq1eTTqfZvn27/9nPfrZAOMjrn4F+IcSS+RWTRjYYDAaDoQKO/WqkHZaSKcKyehv4F4B77rnn3htuuKHnzJkz/Pmf/3nFd0taa37+85+TSCSYmJjIfupTn1oP0N3d/ajWegI4JYR40Sw/g8FgqC201ncA62ZnZ9uGh4fXA+zbt8/95S9/WXGNkcWO+ktf+hJr1qyhvb19EHiOsFitn7Bge8kGZy31GbgXXfRZwkZ3Ojs7iw0NDRSLxWrdYEZHw8mi4+PjdqFQyET/1xqggSU8rzAYDAZDRWkB1mqtm2LbPj4+ztDQUFUj7e7ubvr6+shkMrFoSwAUllqq275KF90DzgIyk8nMJhIJv7Gxkba2NlspxdTUFJ5X+Q6vqakpjh07BkBvb29POp1uAi5qrbPRDqoQVc0bDAaDYXlG3ZJQHlsSdhatK5VK2di2T09PV+V9k8kkDQ0NSClpbGz0c7kcruvmgXOR//CulRtga61z0c/3tdaTx48fn3n44Yf1Qw89pNva2qoy7q2xsVHv2LFD79ixQw8PD+uIH2qtd2itt2utHfN4GAwGw7L2H25kr3dorX+qtdYDAwMLtj2Xy1XFf3R0dOiHHnpIP/zww/rUqVMzWutJrfV3FvmyJa8pM0VsBoPBYDDUIFcrhe4TtXBprf9ZCHGkqalp9de//vWvaK3l+Pg4hUKBIAgq2huez+c5deoUAH/1V39FLpdj/fr1Nz3wwAN/DnhCiK9rrUcxY0cNBoNh2UXekc/q1Fr/X4D94x//eOvZs2cZGxtbsO2lUqmi75tKpbAsi+uvv55/9+/+HUIIlcvlvgsMESp6xm1jS378elUceFRu7wMopUYBN5VKJXt6eoBQnc22K//RgiCgUAiHkQ0ODpLP52ltbc0JITYSqsXFC8ScgxsMBsPyIh4T6goh1gPO9PR09vz580xOTi7Y9kpjWRa2bVNXV8eaNWsAcF13BDgPjAoh/Kt1QeyrfUcidTaklK7rumOA7OjoyK5bt86ZmZmpik46wPnz50mn07S3t9ujo6NpIYRdX1+/2XXdnNZ6hLAlwGAwGAzLIwLvFEK0FQqFzrm5ubTW2rlw4YLd399fNalUgK6uLurq6mhvb/eiojUlpbwQOfCxq3lN7GVwXw5HUfdINGhE/u7v/u723t7epoGBgao58GeeeSaOyt2dO3e6Ukr/hhtu+H3XdWeBp40DNxgMhmXFp4BPl8vl7PHjxzu01vYLL7zA008/XdU3vf322+nu7mbNmjX5jo6Oo4Sqay8Ap672BVkOETjAuxru478tpbLNe8bOyfjzCCHM2FGDwWC4OlH3+40EXbIC7Pez/8YvLEIplVVKfUopdcelS5cOXLx4UT/11FN606ZNetOmTTqVSlWlNaC5uVnv2LFD33rrrfr48eOT09PT4zMzM9/XWn9eKfVAVDhhMBgMhqV34K7W+gGt9ednZmZ+OD09PX748OHJW265Re/YsUM3NjZWxS+k0+kF3/Pcc8/pixcv6kuXLu1XSt2hlPqU1jqzHK6PvYzuVVEIMQjQ1tZWBBgaGiKVSoXbLVmdDdfMzAwDAwO4rovv+zmlFEKIHNAUFSeYVjuDwWC4OsRjQqXWukkp1VQulzl37hylUom5ubmqvKllWQu+p7W1lY6ODoAC4bk3WutlIdqynBy44p1y/H6gyXXd9E033dQLMDIyUpWbpZTC8zyEELz++utcuHCB1tbWtptvvvkGQmWd5yOBl6JpLTMYDIYlibzTgANkgU8A9vHjx5vGx8cZHh6mVCrhed77pdc/NtlslptuugkAx3H6CbuUBriKLWPL2oFLKX2iij6t9bPAQEdHR8+f/Mmf/DHAwYMHGRkZqfj7+r6P7/sUi0X++q//Gtd1+fznP7/55ptv7okc+JOEeumjRPrtBoPBYKgqTYQ6523AHwL2888/n37qqacoFArk8/mqDCqJWb16NX/yJ38SR+DPRbb/ZNw1tZzSEwaDwWAwGGoMe5l+rh8BTiaT2b5p06adAF/60pd6brvttvT58+fZu3dvxVMnSikOHTqEEALLsmzbtrOWZfmPP/74N7LZrAfs1Vr/f5ihJwaDwVBx3jOk5GHg/snJSfe73/1uTikln3zySfnqq6+ita7amNCHHnqIrq4u1q5dO7tp06ZBACnl3xMqri27YSXL0oELIfKRU52Kz50bGxvV/Pw8U1NTVXvfeKTpzMyMnJiYwLIsW2vdRqgal40WlslaGAwGQ3V9Ug7oAJyJiQlbKcXMzExFpbV/E9lslpaWFnK5nEqlUsVoYzG13FLnyz0Cj8kDLwL09va2tbS0ZKJRbmitmZmZwfcrr2I3NjbGm2++SSKRkP39/blcLqeSyeSGzs7O2wBfa/0818roOIPBYFiaCNwRQtwC2ENDQ32e5zVNTEzIw4cPEwQBExMT1XGCtk19fT1CCDZt2sTmzZvJZrMLvod3CteMA/+QjAB/A3D33XfvFEJ0tre388Mf/hCtNadOnaqKA+/v76e/vx/Hcdi9e3d3Y2Mjq1evvqOzs7OJsBrxZePADQaDoaKkgS8D7vDw8PahoaGesbExfvSjH1XFzsckk0nWrFmDlJJ77rmHm266Ca31YOx7hBCjxoF/dNSif6rojFpqrZdECScIgoUfpVScQpdaazv6POYs3GAwGD565C0J1S9l/Ptiu1ttIp8Sa428y98s92u33B14gbB4AOA7wMvd3d09//E//sfPa635xje+wenTpymXy1U5GymXy/yn//SfsG2bBx54oKeurq5DCOH19fX978lkcg74FfCCeQQNBoPhI3MnsNPzvPr+/v57tdb29773PfdnP/sZ5XK5ak48lUqRSCTYvHkz//7f/3sAVq1a9RNgEDgZ+x6ttb9cL9yyduBSSkWUqlZKTQETrus2tbe3o7UmmUwipayaSpvWmsuXLyOlZGZmximXy44QwiPsT0wDGfPsGQwGw8ciA7QCmXK5nNFa2zMzM1y6dAmlVNXEWmLf4bou7e3tACqZTOYJdT+mIltvIvAKcQqYsCxrvqGhYVhrzebNm1tSqZRz+fJljhw5UpU3jVXa+vv7efrpp7FtW3Z2dm7OZDKeEOKCUup0lEbvN+l0g8FguKLgSALrtNayWCxu1lpvnZ6edp599lkZBAFnz56lVCpVzXkDrF+/nubmZtatW+c1NDSMAViWdSTyNaO1cB1rxoFLKV+MbvxIU1PTPVpredddd2XGx8edo0ePVs2Bx61lr776KqdPnyadTtsPPfTQHYlEAtu2i67rTkRZgvOYwjaDwWC4EhxgpxDCLpfLdwVBcPfMzAx/+7d/y/z8POPj41VvGdu5cyebN2+mtbW1sHbt2lOEY0KfEUIcqhm/aNaRwWAwGAy1R80NNI3GuK0D5Nzc3F8CW1555RX7m9/8Zhpg//79zMzMVP5CCbFwZnLrrbeSSCR4+OGHvccff7wohChkMpk/tSyrAJwSQpw2S8tgMBh+zX5vBNb7vp+Zm5v7f7TW7re+9S137969TqlU4sCBAyilqnb23dDQwCc/+UkAvvGNbxRuuOEGHzhUV1f3p9FL+oUQs7VyPe0aXAM+ocALdXV1PqDS6TSu6y442iotPIIgQGvN1NQUtm1TKpUcwIlaypzos5mshsFgMPxmZGQrXa11FnBLpRKTk5MLFefVHFISF60BpFIpVVdXpxb7lOVccb5SHLiKLzahoMpofX19x65du24DOH78OFprfN+vyhmK1prx8XGklJw4cYJf/vKXWJZl33XXXXe5rlsk7BGfIDxPmYoq6Q0Gg+FajboloTSq1FpvB24vlUru/v37pVKKkydPcvny5YUAqRqkUils26ajo4Ndu3YBkMlkDhEWq51a5FOMA68mUWn/RBAESCn3Ak1r1669uaur6zaAn/zkJ3iex9zcXNUc+MWLF4GwsM33fVKplPPpT3/6kagK3SOcZ+4LIabM42swGEzUTTcghRC3A48HQSAXp82Hhoaq+gHq6+tJp9P09fXx+OOPA5BMJp8D3gDGhBATtXhh7RpfGHH6I/7BcRw7mUziedUvCFdKLcwT9zwP27YRQtiO47iEmukySgepavWqGwwGw7I0zqHtk1prKYRwANvzPFtrjed5C7azmq1iMYlEgmQySSKRWBxll6PfazZLWrMOPDrrfhWQyWRyJJlMdgL82Z/92cOlUqlp//79/Of//J8BmJ2drcq5ysmTJxc0023bzjiOwz333PPY7/3e732WMCXzr6NpaiPAmHmkDQbDtYIQogXo0FqnCXXF008++WTTvn37ssVike9///sLwU9Vwn4pyWRCra1/+2//LbfccgupVGq0vr7+J9FL/heh2ppx4EtNFNHGKm2FuHIwl8upcrlMfX091Y56y+Uy5XIZ3/eZnp6WjuNQLpcz0XW1o12nKWwzGAzXIovtYBOQ8TzPnZ6elsVikfn5ecrlclWDvNgH1NfX09TUhOM4yrKsuMq8GI+rNg786u70JoB9AA0NDTuVUoWenp70nXfe2aK1Zt++feTz+aq9fxAEvPXWW1iWRWtrq51IJFzLsrJ33XXXnmQy6QG/0FofjHZ6Y0sxhMVgMBiWGqVUHHlL4Cbgd4vForNv376MUsp96aWX7KNHj+L7ftUHlWQyGT796U8jpWT16tVjTU1NBSnl+dhXEEqm1vwOaSU48BHgJwBa6weB4vz8fNuDDz7Y4vs+r732WtUd+BtvvBH/bl++fNnOZDLOpz/96a8setlIFI2bVLrBYFipSKAj8i13AV9RSrF3797s/Py8PHjwIIcPH16SD5LL5fj85z+PlJItW7aM9PT0jAEnhBA/WUkpjpWGF6VGPMuyFEAikZCJRAKlVNV3fYsL20qlkpRSKimlnUgkTGGbwWBYsZF35Lwl4LKoYK1UKsnYJlazxzsmHg1q2zaWZSkpZdy9VGSFyV2LFbiQOqLF8xmt9X8IgkD+5V/+ZdvY2Jhz9OhRfvrTn1Z98ViWRSqV4pFHHlGJRILPfe5z+d27d+cJC9v+IIrEh2u1dcFgMBgWo7VuiSJvF/h7ILN3797sU089lfU8T/7P//k/8TxvSWZ8P/jgg2zevJm2tjbva1/72qiUUgkh/g/HcX4FeFLK0ZVy3VdcBC6EKBBWphcAFQSBSqVSpFIpHMep+vvHC1RKSaFQkIlEgiAI3Hh/seiam/DbYDCsFGRk22zC8aDZIAjcQqEgPc8j/lkKHMchtvmu6/pSSrTWcaGzv5Iu+kpMoRejxTQA/ACQ27dvf7RUKjU5jmOfOXPGBjhx4kRVF5Tv+xw5cgTLsmhpabHL5bJr23bu/vvv/1dRav9prfUhwrT6mEmnGwyGWmJRwZpNWLB2l+d59s9+9rNsEATuCy+8YL/55ptLEnUnk0k2bdoEwC233OLt2LFDua47CvxLFDidj3zDilLGXIkReNxadloI8R3Lsuzbb7/9TiCdTCadU6dO2QD9/f1Vd+BxsYZlWfbY2JidyWSc+++//4+jl8wSFrZ5hNWQRnLVYDDUWtQdF6z9LvAVrTVPPfVUtlAoyDfffHOhuLfaJJNJbrzxRgA+9alP+Tt37vQIZVK/E9nW/lpvGbtWIvB3+dFokRWBgpSSVCqVjpwqlmWhta56YUUQBHieR6lUYm5uTtq2raSUruu6Ga11UQghI71gFcmxGgwGw7IkslVSay211mkhhFMsFh2lFKVSSXqeJ+Pz7qrvIMICNWzbJpVKxX8rxjafd9Q6VyRiJS8yrTVCCAncC+SmpqZun5+f/xrAH/zBHzA6OsrExETVdXjjzUIymeSxxx5TUkoefvjh/N133z0b7RL/dRSJD5rCNoPBsMxtaxOhtrkD/B3Q9OSTT2b27t2b9X2f733ve3KpCta6u7tpbGyku7ubv/u7vwMgnU7/14aGhleioVLPRE58RXb9rNgIPI5kI53dIlBIJBILOfOoxYCluKnxQhZCMD8/L6WUBEHgEBZ7zPJO+4XBYDAsd2J7ZQNpIKOUcufn52UsjbpUBWtSSizLelcEHtn5ghCiqLVWK3kipH0NLDalte4HXCmla9t2N8CePXt2F4vF9KFDh3jiiSfQWjM2NlbVHaPv+7zxxhsIIWhpaXHy+bxMJpMt999//x8lEgmltd6ntT5OOMnstLETBoNhGUXeG4lGggohbvc8z37yySebPM9zX3rpJfvgwYNLorVh2zbNzc0IIbjvvvvYtm0b6XR61rbtn0dO/RWt9QlCPZAVfSS54h14JFs6EC1An7BPkUceeeQOrXW6sbGReOFNTk5WdfEFQcCRI0cASKVS9tjYmN3U1OTs3r37sdjHE6Z7CoBx4AaDYTmxnjBtfjvweCRTnZ2enpZHjx5dMoU1y7Lo6OhACMHdd9+AoMCJAAAgAElEQVTNvffeixBiNpPJ7I1e8poQYuBauCH2NbYAfcJ0OlGKpZBIJOxsNusopbAsK3b4VR9xVy6XKRaLFItFZmZmZCKRwLbttOM4WcDWWse9454pbDMYDFcp6paR08b3/QzglkolNwgC6Xnegg3z/erXicW22bKshWFVtm17Qgg/Cnpi237N2EtxDS5GCaCU+t+AxtHR0R2Tk5O7S6USv//7v8/FixcplUoUi9XtOIjP3zOZDHv27MGyLL7whS94t956qxJCjDU0NPxZ9NIXhRD9xpQYDIarYDPXAzsBpqen/0Jrnd2/f7/cu3ev4/s+3//+95mfnycIgqp388RiXD09PfzDP/wDjuPQ1NT0v1pbW48Cl6WU/zV24NdK0HNNReDRTY2L2zzASyQSfiqVWhg9J4RgKaaFxYVt5XKZUqmEZVkopWKpOPcazI4YDIZlGPQIIezodxdwo3axhZkP1RwJ+pui8KgdGMdxSCQSvpTSI8xU+tfa/bmWncQLgOs4znQ2m+1wXVc+9thjW2dnZ51Dhw7x/PPPA1AqlaqaTi+VSrz++usLC/PNN98klUplvvKVr3wJIJFItGitTwF5rfXzRrHNYDBU22kDdwKZYrG4uVwu3wXwrW99yy2VSpw8eZIDBw6gta56tbkQgmQyCcBnPvMZtm3bRjabLTY0NBxPJBIqkUjsA17jnfS5ceDXSDR+MFqsNrAtCAL7wQcf3Oj7vuM4Di+//DLRJJ2qfo5yuczx48cByOfzHDx4kPb2dveP/uiPdkcOHKALuBhtOsx5uMFgqCaSMG3eqrXeGgTB3QB79+5lcnKSy5cvV107470OXAjBzp07eeCBB0gkEl5ra+vRqD3sNSHEi9fqjTJp2lBAZQqwpZQFy7Kk67p2c3Ozo7WmUCgQBAFa66oXti1OqV++fBmAbDbrEvaLNziO06TCg6bZOF1kCtwMBkMFIm601g6QVkpJz/Pqgcz09LQzMzMDhNnCcrm8JApr8VGmZVkLLWOu63qWZflSytnIZitW2HjQD32drvXFq5SSQghbKeUopf6DEKLlwoULG0dGRm4plUp8+ctfZmJiYkkK2+JFa9s2fX19APybf/Nv1B133KESiUT+uuuue0YIobTWfxNlEPxowo7BYDB8VAeeiYK5W4AvK6XkiRMn7i2Xy5lnn31W/u3f/q0EOH369JIFM67rkkwmaW1t5Vvf+ha2bbNq1aqXu7u7TwMjQoj/Mzr79q/lIOaaj8CjNIynlMK2bR/wE4mEcl13waEuRVFb9CChtSYIAubn5+OoPNZJtwmL2xRGtc1gMFTQDC7yBy6hWIuttbYX2yKlVNUrzd8bzESRN7Zt4ziOsizLJ2oHvhaL1owDf/8F4wM/BNKpVOqW1tZWfN+XX/3qV3cUi0XnwIED/OIXv1g4F6/mDlQpxfj4OBCeOx0+fJiGhgb30Ucf3SqlpLu7+/dXrVp1GzChtf5R9K+NrcRpOwaDoSrBQhpoiv7nw0BuaGiob3h4eHsQBHzve99zZ2ZmOHv27IItqrbzXnzevWvXLm644QbS6bTX3t5+SEqpksnkj4GDhPLT5ujQOPB3LR4FvBhHwsCGIAjsz33uc1uDIHDK5fKSFbZprYnPnV5++WUOHjxIZ2enc/vtt6+TUtLW1iYJz4AGgV9F/06ea7QS02AwfGgcoCX6/X6gw/O8pqGhoZ4gCPjZz37GpUuXKJVKCxH4UkTdsQO/4YYbePjhh7Esy+/q6joRZUpfFkK8YG6dceC/jSLhjG7bsqwChNKnra2tjlKKubk5lFJLchYUjzstl8uMjY0hpWRyctLOZrOOEMLN5XL/f3vnFiPHdZ/53zl16eqenp6e4UzPheSQHHJ4GUoUTZM0JduyZVGyIgjKep3EDiwkWfhhgzjB5mWzARZOXpIsFgmwCGC/JMDGAuJNnMSGb4lsWbEUypZ1A0lRvJMih5e5cDjX7p6+VFfV2Yc61WxRlCXZ5HCGPB/Q6O7D6mF3VZ3zP9853//7FxIGrq1iI8PEDQwMbjSWoJfIgRxQAJibm/MAd3Z2Vib1IBqNRnOMW4rAnQjWenp6EEKQyWR8y7ICy7LKeiyOtHeHQeu5M6fgnYiiKKl3awN/CeQuXbo0cvXq1d3VapWnnnqKhYWFJRG2td7klmUB8NnPfpbt27fT09MT/O7v/u68PuT/AseIl9L/zVxFAwOD68Y1hBBPEC+d3wf8FsBXv/rV/OzsrH3kyBG+/e14Ry4Rqy0FEsHaqlWrePrpp/E8j97e3ldXr159Ugfv/5GYcN3JlcUMA79J0DdJpBXqARAlJets215SYVvr7DnxG07EJLqD2S3X0pQlNTAw+LnDG9dKgdoJYUmqiC2Fp/nPY+HJGCulTIJ1pEuCBubSmQD+QREA3wDcTCbzsd7eXt/3ffl7v/d7u33ft3/605/yH//xHwDUarUlm7G+/vrrvPXWW3R0dMhisZgB2L9///7NmzfvFkJMR1HUrTvFAWASs6xuYHDXQVufSqXUAPAxgHK5/KtKqa7jx493vfDCCxmAZ555RpZKJWZnZ5c0YHteXK/pU5/6FPv27cPzPL+/v/+g67qJYO1lvWxuWLcJ4L8wE39Zd4YMMBwEgf3YY4/tjKLInpubawrblmopHeD8+fOcP3+etrY2qc0X2LVr144wDJFSTgshivrQk8RKdTN7NTC4O8d3WwhRAD6h2faDURR1zczM8IMf/ACAV199dcmEaq1wXRchBPfeey9PPPEElmUFa9asOatTxQ4awZoJ4DcTZc1mXdu2i0opv6Ojw123bp0XhiHnzp1rLkEthVORnlRQqVQAGBsbY9WqVTiOIwcHB3O6gwyk0+kKUFNKXdQfM+VJDQzuXNbdLP8JDABepVIZaDQaOYCLFy/KRqPB+Ph4c+xYqpVDANu2sSwLy7IYHBxESkkul6s5juNrh7VJ4pVPY1D1flYyzCn4QB1DRlHkAf8byE5NTe0oFos7FxcX+dKXvkSlUmFiYoKpqamlXCUAIJfLkUql2LhxI3/xF38RANxzzz2Tq1atqiiljgsh/lR/5JxxbzMwuGPHqSwwpF//LyHEpqtXr2aOHz/eB8g/+qM/khcuXKBer1Msxgt1S2XOAtDb20tvby+5XI6vfOUrpNNpOjo6DuqSoPPA/5RS1riLSoIaBr4UMx2tgoyiKLHuixzHiVzXpdFoLGkp0lYknS8p6ddoNJICLcmzqx9G3GZgcOejVchqA65Syk3GBN/3qdfr+L6/pIG7ZRxFSomUEtd1k5KgTcEad2lZUMPAl5aJ7wLcUqm0r9FofFwL2h4Lw9D+wQ9+wL//+78ThiETExNL1kkSdXwul2PXrl0APPTQQ7WBgYGgs7Oz+OSTTx7Wh34PmCL2E37JXFEDgztiXHqQ2JhlgNiYhW9/+9s7FxYWcpcuXbIPHDjgQSyALZfLb8tqueUzCikZGBhASsmnP/1p9u/fj23b/kc/+tFnHccJHMd5vr29/XXiwiQHDfM2DPxWM/HXWxhuRxRF3sMPP7wfsC9dusShQ4cIgoCJiYkl+15JZ5yZmeFHP/oRANls1lu3bh1DQ0NZ3bHRwfsikEE7zxkYGKx4DAEb9PPjEItdL168yLlz55pjwm0aM+ns7MSyLO69914effRRhBBBe3v7UV2Q5HVDJkwAvx2oAFcBTwgxCXhtbW3ZtWvXZn3fZ3x8nCAIqNVqt7zw/Y1QLpeZm5tjenqaCxcuJEE957pulxCiTym1Xh86SywcCYQQxu3IwGD5Mm245qZmo/3My+VyQSnVVa/Xc4uLiwBMT08zNzdHuXx7JC+pVIpUKoVt26xZswbbtslkMmWtwUnGTh9jAf2LT47MKbgpncoFfg1wy+XyZ4MgeKJcLvNnf/Zn1Ot1XnvtNY4dO3bbvl9bWxvDw8MA/PEf/zFbtmyhra2tODw8fE4f8n80K58WQhw1V9TAYFkH8B06cA8BfwBw+vTpTZVKJXvs2DH+6q/+Ct3WVJrfDuzYsYNdu3aRTqf58pe/TDqdxrbtb2Wz2e/poP0vZr/7l4MRNhkYGBgYGBgGftfOiiWwBpDVanWvUmpPvV73zpw581QURe4LL7zgHjx40K7X63z/+99fcvWnbdtks1kAtm7dSnt7O4VCIXjwwQfLAA899NDpQqFQsSzrcltb248AhBDPEad1GBc3A4PbN7Yky+VdSqlPAZTL5U9HUTQwMTGRPXDgwCaA559/PjszM2MvLCxw+vRpAEql0pJ5UiSwLIsnnngC13XZu3ev/7GPfSyQUta2bNny9zrX+xXP814nVpxfNoK1X3JsN6fgJsyC4pvwIkAURRkhhJ/JZHJ79+79NYD5+XlZr9ftxcVF/vVf/3XJv18QBMzPxzVPXn75ZQDWrVtn9/T05AE++tGP7tWV1c4JIab1x14l3qcye+IGBrd3jLaBnBDiQzqof0wpNViv1zlx4gQAL774ImNjY7f9y0op2bp1K+l0mp07d0b79u1L9rhfASpKqZNCiFFzWU0AX66oAfNKqUAIcRbw0ul0X6FQKFQqFQYHB90oipifn2+mc9yOfMx6vd40nDlz5gzFYpFUKuUODAwUAHK53OZ0Ot0NFKMouqw/Nm+qARkY3HLWbSulcvr1IJCtVCqFUqlUABgbG3MTkWzShxMfiNsRsIUQZLNZ8vk8tm1TKBT8dDqN53lTxFkvFaXUrF7JM6t5N5M8mlNw0ztfsqRuCyFGiN3bfht4slqt2v/0T/+0RinFt771LX76058ShiGlUum2dT6AgYEBUqkUIyMjfPGLX4wAPvGJTxTz+XwAHAGe1h/5dovPuoGBwS1AFEV5IcST+u0XgZHZ2Vn7xRdfzCml+Ju/+Rt5+vRparVaM1X1dpAAPdFHSsknPvEJnnzySSzLin7913993PO8APiWlPLrxBXFjqLd1Zba7MowcIP3PyOKb85IKZU4CyVFUZBSRpZlJXV5W4+/XQMFENf+DcMwKVEqr7s33lai9HrfZKVUcyJgYGDwwSf8N2hr7XMSsDUrl0m/be2zywGJu5p+RHpMSMbAAFPL2zDwFdYxpfYlRgixSSm1pl6vZy9fvvzfAfvo0aMDY2NjXQsLC3z1q18lCAKKxeKSVjVLkEqlsCyL9vZ2BgcHAdi7d2+QzWZZv379/BNPPHEZoFAoHHVdtwacAJ7Vv/O0NmMwMDD44JNoVwixWb99HBiu1+uZq1evjgB85zvfGbx06VKuWCzy+uuv2wAXLlygXC4ThiH1en3Jv3M6naa9vR3Hcfj93/992tvbWbt27fTIyMikEMJfs2bNX7quWyHWBSWpqkUz0TcMfCUx8Qgo6iB3XAhxLpVK5TZt2vRfANtxnPz69eu7pqamyGaz+L5/23I2k0GgUqlw5cqVZAJiZ7NZoijqDoKgWx/arWfTWeCgbjtrrraBwS81Bif9aw+wG3CDIBgAOHv2LIcPH6ZYLHLw4MHl8YVjQxZSqRR79+6lq6uLrq6uyuDg4DRx5cOfaLOWmslgMQH8jpho68DnE9fotqWUruu6djqdtkdGRrqDIODs2bNcuXKFKIpYWFi4rV+4XC4TRRETExMcPnwYIQSlUslNpVLSdd2u3t7erQCu684rpWrEQpV5/VsrZrnMwOAdbFvqyS9CiDyQCcMw4/v+VoArV650+b7v1mo19/z58yilmJycpFgskrir3U50dHQgpaSvr4+NGzfiOA7pdHrKdd1ISnlRj22+fgR6LDC4lUTRnILbA6XUfwY+HoZhrlQq/RZg/93f/R0HDhygUqnw7LPPLrvv/JnPfIaOjg52797NF77wBQDa29tftiyrphn594j3/1/VJQENDAyu9XkP2Jd0J2BHEASZcrm8F+BrX/sab7zxBrOzs3z3u99ddt//sccew/M8Hn74YZ566imAoL29/WuWZZWB54UQ3zVXeWlhNiUMDAwMDAwMAzf4ALPxAtCll9AeB5wLFy48uri4eE+5XJb/8A//kAF46aWXOHfuHFEUUa1Wb+t3LhQK2LZNV1cXGzZsAODhhx+ez2az0eDgYHHv3r3TQJTNZl/VrPwUsSEMwHHje2xwF/VvF9iq3+4DhsMw9Mrl8j6An/3sZ4WxsbFssVi0n3/++RzAuXPnmJubo9FocPXq1dv6/dPpNFJKNm3axL598aLBU089VUmn01E2mz08ODj4Y6Dhuu73dV+fFUJMmSu/tDB74Ldr5hTf7FNKqUw6nV4DyK1bt+4EgoWFBXno0CEATpw4geM4S26JeCMkphHT09NcvnwZIQSbNm3Kd3R00NHR0aWrmyWpIzX9fFY/m9Ueg7sJEsjr5y3ALsBTSu0GWFhY4PLly8zOzvKTn/wEpRSLi4u3zZDlejiOg5SSVatWsXVrPA/50Ic+FLS1tUXE5iyHiPe5TxqhmgngdzMiYFp39NNAVgjh9vT03AOwcePGDOBWq1VOnDiBUop6vd6s/31bvnAUEQQBQgjGxsaYn5/HsixyuRxCCAYGBnKO43ie563p6enZAUSpVKqilPKBslKqSGzqMG+8kA3uALYtlVJ5QAohckA2iiK3Xq/vAOTU1NSaer2ebzQabmJ3eurUKS5cuECxWGwG7RvlhC9pMLBtUqkUQgi2bt2K53kMDQ35PT09SXrMER20T+sxq+l1YXCbiKA5BctqIOgmVql2A38JcO7cua3FYrFvbGyMP/mTPyGKIkZHR5ve5ssFruuSyWSwLIvf+Z3fob29nfvuu49PfvKTAFEul3tZ54sfBF4EAqXUsyaH3OAO6LcesF8TooeAHWEYeqVSaS8gn3vuOY4dO8bCwgJf+9rXlh3bTtDZ2cm6deuwLIs///M/p7e3l46OjvENGzac1of8N+LU2KIQYtZcecPADd7JxrnBzDYSQsjECEEI0XRwu92z9ndj6InHe+IU1eIYJYUQTZepFue36PrfY4wfDJbTPd1kPdfcE2XCwPVrmdy/rTUOtL3ysuyrrb9HCNF0U7vBeGRgGLjBewwSSeUhG9gEMD8//2gYhttrtVp+cnLyCaWU/OEPf8jZs2eZm5tbNukmQggsywKgv78fy7Lo7Oykt7cXIQS7du0qOo4Tbdu2rXz//ffPCyGi/v7+05ZlBcTObseJl+de0M++EMKwc4PlwrJdwFVK2UKIT+mAfS+wOQgCe3JycrNSSv7kJz/Jnz59Oluv1+Xhw4dzSikmJiZYWFggCAImJyeB2L54uQT0z3zmM+RyObZs2cIjjzwCEPX39383lUoVLct6M5/PP6f7+FmlVAAEUkojSDUM3KAVulMkHeOwHjiGgDage82aNQCMjo4ShiGZTGY5DXDNfflLly4BMD4+zvnz5xFCkM/nc6lUiv7+/nwYhmu00UuX/r2SeGnOB1z9J80AYbCsuidxgSIXWKPf30MsTrPDMBxQSsm5uTlGR0epVqu8/PLLKKWoVCr4/vKdi65evZru7m62bt3K7t27k+bLwCxwWghx2Fx+E8ANfrHAOAWcAWaAlwGZz+fXrF27NpfJZOx9+/ZlAC5evEipVCIMw9tmyXqjoN5oNBBCMDk5ieM4HD9+vJmiMjQ05Nq2bafT6b6Ojo4tQDQwMDClWfmsUmqa2BhmWggRKaUqxiDGYAnuWw/I6CDd3fLcFQSBOzExsQWQ8/PzhVqt5gVBYL/11ltSKcXJkycZHx+nXq/TaDRuW7ngd0OiU8nlcqxduxaADRs2lPP5fJTL5YpKqcvES+angHlixbnBMoVZQl8hiKLIE0IkeaVfAnYvLi56Z86c2Qrw13/91xw+fJjFxUXOnDmz/GeOts0jjzxCKpViz549PPDAA1iWxf33349t2xCL3Y4Qp6N9UzPyc0KIi+ZuMLjFAXw9sJ54Neiz+nkXsXMaL730ElEU8eKLL3Lw4EGq1SrPPffcskj1fC9s2bKFdDrN7t27+dKXvpS0nUyn0zXgJeBvdQA/abawVsaykIGBgYGBgYFh4Aa3iIFLIYSnGUIByNbr9e5qtfoFgKmpqUcbjcbg5OQk3/jGNwB44YUXmJycJAzD2+7i9o4bTwhyuRxSStra2shms0gp2bhxI1JKtmzZUtm2bVvFcZzo/vvvn7Vtm1wuN5XP52eJ98pf0UzhODCqGfqoySs3eJ99aT3xFuIQsWOaDXwEsOfn57uLxWK37/vy5ZdfzgdBII8dO5Y5c+ZMJooizp49i1KKUqlEpVIhiiKKxeKyU5mn02ksy2L16tV8/OMfRwjBb/7mb9LT04Pruud6enp+DJDJZJ52XXceKCduakqpmilItPxh9sBXylJJ3JmSze1R3cn6PM8bB+js7KzpZxKxWyaTSZajlx2UUs2Ka3Nzc8lvpFwuI6Ukk8lk+vv7M6lUijAMCzq1pUAsdqsR780FwKR+bZb7DD4IMnr86wLW6dc7iJXm+SiK8klg9n2fCxcu8MYbbxBFEZcuXVq2KWGtsCwL27Zpa2trjgnbtm2jr68P3YfG9aEnhRDT5pYwAdxgaZH4jUO8f3VRSplZt27dZoA9e/bk1q9f75ZKJU6cOAHA7OzsslXEKqWoVqtNh7ejR482LR0ty6JQKLjd3d0ZIYSdy+XWCyGiXC4X5PP5ghAiyGQyA1owNE9cizhoGaRqZk/v7oFO+/KIc7P7iBXkGaVUDmBxcXGzUsqem5tbVyqVhpRSslgsZpVS9tTUlD09PU0QBBw5coQgCBgfH6dSqSz7wJ1Kpejs7ARg+/bttLW10dvb669bt66oJ8mnNREYbRk7TL9YoTBL6HfOgFXQrGII+DLAxMTEjnq93vXWW2/xla98BYAXX3yRmZmZFfkbt2/fzvDwMJ7nsX//fizLYseOHQwNDSGECHK53GVtSnFYD1BF4DvES+0XjXvUXdUfuoBBTVJ+ldjhcAjYoYP1gFLKPnPmDMeOHSMIAn70ox/h+z6nTp1qTnhXGgqFAg888AAAf/iHf8i6devwPG+6r6/vqD4vf6qFoGXDug0DN1h+aHVxi4hd3Ehs3CzLwrKstzlDrYTlwFaWHkURYRgihCAMQ4IgQEpJGIayZQ9cEru+2ehcc6WUrf/GO/b2WvfOW5y2DJbh9W95LW9wHSU0TZESd7SmU1ryN8IwbN5HyfNyd0y7IQNrcVG73kmt5Z6+fkwwMAzcYFlFbT1gCSFcpdQAwOLi4ieVUqur1erAwsLC5wEOHjzoLSws2KOjo3zzm98E4hzyWm35p1d7nofneQghaG9vRwhBOp0mlUqRSqX4yEc+4uv88kp/f7+fSqWiHTt2zAshWLVqVTGbzdaAMvA6ECqlRjUrrxGL4SAui2hyzZdvAPeI960BRogrfHULIQYBC9gLZEqlkjc7O5uLoogjR47kfd+X4+Pj7vnz5zNhGPLKK6+4vu9Tr9epVqtNUZpSilqttiL6QzqdbuZyf+5zn2PNmjV0dnYGO3furAHk8/n/53nepJTyUiaTOaCD+rguKhQZNzXDwA2WCVo6ow+cVkqRzWbXA357e7ssFAoBQLlcZmFhAaVU08ltpXiOtw6sifCtdTDr6+tzpZTk83k3l8slnux9+pCKPjdFrlVSqmhWVuaaA5xJrVzmt3rLteoi3jYqABu45o6WJRajZRJdRa1WY2ZmhgsXLhCGIW+++eaKCNLv0eebfXjdunVs3LiRfD7P8PBwMhaMARf147RZWTIB3GBlYVIHrRrwb5rFbgrDMNvX15d56KGHBgA6OzvtcrksS6USFy9ebAbL5eQg9V4Iw5Dx8XGEEDiOw9TUFKlUiunpaYQQ9PT02Jq1Z1Kp1Hogamtrs1OpVNG27dratWsL+vxMKaUqxMvuZf3n5/X7ZptSat5UUrupK0iuECKv32b12OQCudY23/cz9Xq9oJTi8uXLw0EQuLVaLV+pVAYAWa/XM0opt1gs2tPT0yRpX77vMzU1xdjYWHPJfKUFa8/zmsE6m82Sy+WiHTt2BAC9vb2Xs9lszfO8InBOf+wkcYaG2eu+Q2GmZHcB9N5vVr/9NWAtscDnPwF873vfy87MzNinTp3iH//xH4HYx3w5+zd/UAwODtLV1UUmk2HPnj0IIRgZGaGnp4e2tjb27NkDQCaTmXJdt6LZeVJG8SixlW0ZOKsDzmHLsubN3XXTAniXEGKHfrtZM+tVmlE323zfz1QqlYJSitdee41KpcKVK1c4efIkURTx2muvUa1WmZmZaXry3wnQdQQAeOqpp9i4cSOFQiF4/PHHk0nmvxBnXFwAvqXbyjoTw8AwcIM7CCEtwhYtgImEEDKpKJaIYVaaqOc9JjJJsEAI0Sx32srIwjBsZWety+mJKE7qcyK17oDW83j9/3VdW3QjZnUHBN/mb2353fI9zsXbznEURcn55XrRWevrMAxlIjhLBGjJYyWK0N6TYWlxWmu1v6S/8k5xWogRqRkGbnDHMfDWYJQjXprMAuuVUkxPT38uDMNCo9Hoq9Vq+wC+/vWvMz09zejoKAcOHABgcXFxRS2rtyLJJ5dSkk6nm6zGtu23LU+uXr06yGazUVtbW7RlyxZfCMHAwIDf1tYWZDKZaMOGDQHA0NBQJZvNRsTbE0l6WmIuM8+1HNuk7frjfKAihJi/A+6vLuKca5d4Pxri/emkrVu3bQHy17V1A26xWJSjo6MZgHPnztnValUuLi7a4+Pjri4S4lUqFUqlkhwfH7eBpvgsCALq9TpJWzIhS6rjrTQk7oQADz30EGvXrqW3t5fPf/7zAHie95LjOFOWZY13d3d/U0+MzvF2nQfoDBQDw8ANVvgsvmVmPq8H3WLSwXt6eqZbgjoAfX19CCGYm5trzvxXMhqNRvP1z7OV9X3f7ujoIJfLUSgUPCEEnZ2d2LaNbds3msDUiLUGEC/7+vo8JoE5SIK1PhauibD8O2gccfUj0zJRzOi2Xt02qAO4ByTiwj79vnluE3V4pVJhbm4OvQ4lRUIAAA3CSURBVN9NuVxmbm6OCxcu3PH9Nelz+Xyenp4e+vv7GR4eTg4p6/trmmv73ZMme8IEcIO7BxHXBFmHgPNAQQhRVkrR19e3KZPJeOl0OptKpfoAjh49Sr1eZ2FhgYmJiWZgvJOWLMvlctM7/uTJkwDMzMzgeR6pVIrTp+Nt8UKhgOd52LYt29vbs5rlF3Q2QFZKKZVSdHR0DDqOEwghalLKohCCvr6+uVQqFdi27euJVCsqLQzqRkgmBpFS6mZSTFsve0uuCcduhKwOyjIZPyqVSi4MQ7dWq9mTk5OdOhjnlVJuo9Gwi8ViXretAbJRFNmNRiMLUCqV7CAIqNVqTE3FlSsnJibwfZ9qtcrVq1dRSjE1NUWtVls2pXJvZrB2HAeAgYEBcrkc6XSakZERAEZGRiYLhUI5n8/XlFJn9RbDKzp4zwohyi0TRYO7jZyZU2CQQCmVpOQA/Fegr1arra/Vap8EePrpp5mfn+fEiRP88Ic/BKBYLK7YZfWbgc7OTu677z4A+vv7SaVSpNNpentj0rl582bS6TSO49DW1oYQ4h1t12GSWD38bpOu4y2s/mYyLq+FRW/l3dPpBomXx5uBfnFxkUajQaVS4cyZMyil3tEGMDk52UwFnJyMFy0OHTrU9MS/GyGlJJeL50uPP/44mzdvpru7my984QsApNPp51Kp1GVigdrfGrZtYBi4wftl6BHX0qcQQsjE7cm27aazWyJeulsDeas4rvUB10Rx2ikupkpBQBAECCHebZ/25ynb5HWPmxZL3s/fVkpJvSUjlVLN39D6SH5j8tuTc5HcI62Cs7s5cLf0paQtSgRrXOemiBGnGRgGbvAegah14M4R593mwjAcAJifn/9tpVQ+CILBIAh2AzzzzDMsLi5y9OhRfvzjH6OU4sqVKysuz/aXGYhTqRStkxkhRHNQdhznbUriZMn0+rbe3l5s28bzvKC9vT14l/8ruu+++wLHcSJ9vW7aoJ6oxn3fl0eOHHHfbTK2sLBg12o1GQQBU1NTTWvS5JGkHra2JfqDIAiabcn9Ua/X75qJn2VZSSUwHnnkEbZt20Z7ezuf/vSnk3vlZcuyxoUQ0/l8/usAtm1fdhynrCfRreI0E9ANDAM3eNsg3jrTn9UDcWJqQjqdntfMq5Kw7t7eXsrlMvl8Hsdx7jpWFUXRTam1Xq1WcRyHbDZrd3d32+82WVhcXMR13Vv2e2q1GokByo1w9erV5vL42NiY6TQfrH8197vz+TyFQoGOjg42bNiQsO6aDtLzxO5pAFNCiIo5ewYmgBv8IvC55kj2MyArhDhDvCcnC4XCSEdHhxuGYTaVSnVHUcTJkydd3/eZnZ1lYmKiKUK6m/fK3wuLi4tYloXv++9qoCOl5PDhw7c0KyAIAsbGxt51IlYul6nX63fNCssvw7Z7enrQaYh0dnbiui7btm3ztYnQ9OrVq8vpdLpGrHmIgDeASaVU0YjTDN7XpNCcAoNfgHVmhRDdxMvtf0CcGrQe2BlFEc8++2yuVqvJN954gxdeeAGlFC+99NLbUrkMDO5kpFIp9u3bhxCChx9+mHvuuYdMJhM98sgjRc22D2qWPQ18FUApNSWlNGzbwDBwg6WJ5dxY7Ba1uEdJpRS2bb/DKcswcoM7BS0lPJsaiBZNRNQiTAtamLURpxkYBm6w5Ay8VeyW1a89IUROKWUvLCx8Dsg2Go1NYRjuVEpx8eLFgSiK5Jtvvsmrr75Ko9HgmWeeoV6vNx8GBiuNZSdpg7/yK7+CZVncf//9jIyMYFlWtHbt2nEdzF+3bXtUCFHM5XLfEEJEOv+/RosfA3GJTxPQDQwDN7ilbKOVOSTObi6xNajM5/MLxEYjFSFEkCiRoyhifHyc9vZ2fN/HsqxmOo2BwYpjPzoNzLIsstkstm2zatUq+vv7sSwr6uvrC7TYsyaEKAILxHn+kRCiIoQw1ewMTAA3WB7EXCnlazZ+UAjhEbu7nQSk4zg7oiiyC4VC186dOwthGMpcLjcYhqG8evVqU+R29uxZoihidnaW+XlT7MtgeaCzs5POzk6klGzatAkpJb29vXR3d2PbdrBp06bLlmVFPT09U47jzOpSs0f1RPctYFopVdOsG5MGZnBTJpHmFBjcauj88seIXb5GgD168vgo4J46dYoTJ07QaDT453/+ZxqNBidOnODUqVPm5BksC2zbto0tW7bgui6/8Ru/gWVZbN++PfEnrwHPEe9rv6InrTXgWROoDQwDN7gjGDrXRDy+fp3sAUot9pGO40gA13VlUiHs+lKRd7Prm8GtQ7Kd0/pIxGmu6+I4TmTbNkKI4DrHtJq+pxMhpxGnGRgGbnDHMHDQFae4VrlKEvtq24uLi0ONRmOzUsoJguAJwK5UKoVarVao1+scOHCAIAg4deoUo6OjJG0mF9ngpjEZ2+bBBx/EdV2GhoYYHh7GcZxmm+d5U5lMZkoIEdi2/V0gdBznZFtb26gO2qP6TyWBPFJK+XdCvXcDw8AN7uZZ4jWXqWt0PIqk3ie329ra8sQOVK4eAKlWq1GiTs/n8wRBQDabbdbtNjC42UhU5dlstuks2Nvbi+u6pFKpKJ1OJ6tHC5phz6LrvSul5o2C3MAEcIO7BUn6jNTspUZs01rTbb1CiG4ppezr61sfhqF0HKcwNDTU3Wg05ObNm7ujKGJubo5yuUwQBFy4cAGlVLMtiiLK5bI503c5stksUkqy2SydnZ0IIVi/fj2WZdHe3k4+n0dKGW3atGnWtu2oo6NjetWqVVOWZUVSylG9jz2llLpKrCA/ou/fST3xNEvmBreHHJlTYLAso3sU5YUQec3KH9WTzT3ASBRFdqlUGlFKyTNnzjA2Nka1WuW5554jiiJOnTrFxMQEjUaD8fHxu7rq1V0/wAnB6tWrsW2b1atXMzw8jGVZ7N+/H8/zWLt2LRs3bkQIEbW3tx/X9dyPAIc0234O8DXDNmkRBoaBGxj8Amz9+kfAdWUvW4RH0rIsoijCsqx3lK5MXpvAfmcF6tbn1vvBsqxWz4HWkp0/7/4yrNrAMHADg1+QgZMEZ13qUiblTpVSMoqiNYAMguAeYL1Syoui6MP6MzuEEIP1ep2TJ0+ilOLUqVNMTU1RqVQ4dOgQSilOnDjB9PQ0YRiapfYViGw2i2VZFAoFtmzZghCCD3/4w3ieR19fH8PDw0gp2bp1K67ropQaRedmW5b1GuALIc5ZlnWc2AXtclKRL3luKdkaGUGagWHgBgbvA3qwjFoYUiuDtnXRB2lZVk07WskWVh5BXBEqk8mglMLzPFKpFEEQNH3ZW9OGDFYm605SvXR6VyI4w/M8MpkMUkoymUxSgjVZuYmIl8d9Yu1FRQfrihGiGZgAbmBwC6GUirQ1JcBpYpcrWwgxqhn6i8AqwPY8bwCgv7+/u729Pev7vt3d3d0HyAceeKDb9/1Mo9FgZmYGgKmpKarVKo1Gg9nZWQDm5ubwfZ9arcaVK1fMBbjF6OvrayrC8/k8AF1dXTiOQyaToaenB4BVq1bhOA6u65ZzudwsEBUKhUnHcYL29vZyOp2e1lam40qpAJgRQkzqAH5ZP0+j7YANDFbcJNacAoM7ONBngN2alW8F+oEMsEu3jQAF3/cZHx8H4M0332RmZobFxUXOnj0LwFtvvUWpVGJ+fp7Dhw+bE3uLsWvXLnK5HLlcjqGhIYQQDA8Pk06n6enpYfv27QAMDAwkzHoKOK4D8kHNqMf05C5SSr0qpayZM2tgGLiBwcpBq9jNB6pKKSmESNLXktzzZl+QGpZl4bquBPA8T4ZhKBuNBvl8Pl7b105wrQK5MAzfIYwLguAdX+pGx90RbEALxq5Ha1ursKz1vT73ALS1tUWZTAbP8yLXdZPtkEhK2Sykoz+TnNx54pTEpIBOlRZDFdMNDAwDNzBYadE7DrLJJLWpWBdC2Dr4SkCGYZgJw3AXQKPRWK+Uyiql2oAhfdx64rKpWaXUEMCVK1eo1+tUq1WuXr2KUoo333yTUqnUugLA4cOHWVxcfFvboUOHqFQqd9z5bmtrY+fOnW/TFKTT6SRNi7a2NmzbJpfLce+99wJQKBTwPA/P8ygUCklQP6tZdFlviwCcE0IsCiGKjuNc1EH9oGVZFa6JztBL5cnkLQnegRGgGRgGbmCwgqAH7eC9jlNKBbZtlwFSqVRF94uEtcMN/K1rtRq1Wg3HcahWqyilSKfTNBqNtwVrx3GwbfttbXeqaE7Xvn7b73Mcp+mel0qlcByHdDpNNpsFIJfL4Xke6XS6ud/NO33zARa5Jjgr63M5r8WMBgYmgBsY3KXw0V7WSql54mV1VztuAXQlbUCXUgrLslY5juMqpex8Pp9VSrFp06Zu3/ddKaVt23YGYGBgINdoNGwppe04ThbgscceywVBIFuDerFYJIoifN9/V3YeRRFjY2O31APesizWrFnzrpOMRNGduJi1HmdZVtDZ2TkthCAMQ18pFdm2HeTz+aL+94oQIkilUn5HR8e0EIJUKlV2HCeQUvpKqRn992a5phBP6s3P6oCe1NaOTD1tg7sdZgndwOADQu9fbyJeVveAPv1Pm4E23VbQbQM68Gdu0Nb8e2NjYwRBQKlUairibxTAX3nlFXz/1sWtVCrF3r17ebcl5+7ubrLZLI7jMDAwcH2grxALx9AsOWHQ47ptSgflEnBWt03qtjJw1qT0GRi8f/x/Mee7S7WAussAAAAASUVORK5CYII=;" vertex="1" parent="1">
          <mxGeometry x="1295" y="1419" width="76" height="76" as="geometry" />
        </mxCell>
        <mxCell id="5pn5844G3AZOIJAPQa10-31" value="..." style="text;html=1;align=center;verticalAlign=middle;whiteSpace=wrap;rounded=0;fontSize=30;" vertex="1" parent="1">
          <mxGeometry x="993" y="1389" width="60" height="30" as="geometry" />
        </mxCell>
        <mxCell id="5pn5844G3AZOIJAPQa10-34" value="" style="group" vertex="1" connectable="0" parent="1">
          <mxGeometry x="908" y="1455" width="230" height="110.78999999999996" as="geometry" />
        </mxCell>
        <mxCell id="5pn5844G3AZOIJAPQa10-33" style="edgeStyle=orthogonalEdgeStyle;rounded=0;orthogonalLoop=1;jettySize=auto;html=1;entryX=0;entryY=0.5;entryDx=0;entryDy=0;startArrow=classic;startFill=1;" edge="1" parent="5pn5844G3AZOIJAPQa10-34" source="5pn5844G3AZOIJAPQa10-27" target="5pn5844G3AZOIJAPQa10-29">
          <mxGeometry relative="1" as="geometry" />
        </mxCell>
        <mxCell id="5pn5844G3AZOIJAPQa10-27" value="" style="shape=image;verticalLabelPosition=bottom;labelBackgroundColor=default;verticalAlign=top;aspect=fixed;imageAspect=0;editableCssRules=.*;image=data:image/svg+xml,PHN2ZyB4bWxucz0iaHR0cDovL3d3dy53My5vcmcvMjAwMC9zdmciIHZpZXdCb3g9IjYwLjg0ODA3MjA1MjAwMTk1IDYwLjAwMjA0NDY3NzczNDM3NSAxMDc4LjI5NTY1NDI5Njg3NSAxMDgwLjAwMzE3MzgyODEyNSIgdmVyc2lvbj0iMS4xIiBoZWlnaHQ9IjEwODAuMDAzMTczODI4MTI1IiB3aWR0aD0iMTA3OC4yOTU2NTQyOTY4NzUiPiYjeGE7IDxwYXRoIGQ9Im01MzguOCA0MzIuNjUtMzYtNi4zMTI1Yy0yLjcxMDktOC4yMzgzLTYuMDQzLTE2LjI2Mi05Ljk2MDktMjRsMjAuOTc3LTI5LjkxNGMzLjU4OTgtNS4xMjUgMi45ODQ0LTEyLjA5LTEuNDQxNC0xNi41MTZsLTQ4Ljk5Ni00OC45OTZjLTQuNDIxOS00LjQyOTctMTEuMzg3LTUuMDM1Mi0xNi41MTItMS40Mzc1bC0yOS44OTEgMjAuOTI2Yy03LjczODMtMy45MTgtMTUuNzYyLTcuMjQyMi0yNC05Ljk0NTNsLTYuMzI0Mi0zNmMtMS4wODItNi4xNjAyLTYuNDI5Ny0xMC42NTItMTIuNjg0LTEwLjY1NmgtNjkuMzAxYy02LjI1NzgtMC4wMDM5MDYtMTEuNjEzIDQuNDkyMi0xMi42OTUgMTAuNjU2bC02LjMyNDIgMzZjLTguMjQyMiAyLjY5OTItMTYuMjY2IDYuMDI3My0yNCA5Ljk0NTNsLTI5LjkzLTIwLjkzOGMtNS4xMjExLTMuNTkzOC0xMi4wODYtMi45ODQ0LTE2LjUxMiAxLjQzNzVsLTQ4Ljk5NiA0OC45OTZjLTQuNDIxOSA0LjQyNTgtNS4wMzEyIDExLjM5MS0xLjQzNzUgMTYuNTEybDIwLjk4OCAyOS45MTR2MC4wMDM5MDdjLTMuOTI1OCA3LjczNDQtNy4yNTM5IDE1Ljc1OC05Ljk2MDkgMjRsLTM2IDYuMzEyNWMtNi4xNjQxIDEuMDgyLTEwLjY1NiA2LjQzNzUtMTAuNjU2IDEyLjY5NXY2OS4yODljLTAuMDA3ODEyIDYuMjU3OCA0LjQ4ODMgMTEuNjE3IDEwLjY1NiAxMi42OTVsMzYgNi4zMjQyYzIuNzA3IDguMjQyMiA2LjAzNTIgMTYuMjY2IDkuOTYwOSAyNGwtMjAuOTg4IDI5Ljkzdi0wLjAwMzkwNmMtMy41OTM4IDUuMTIxMS0yLjk4NDQgMTIuMDgyIDEuNDM3NSAxNi41bDQ4Ljk5NiA0OS4wMDhjNC40Mjk3IDQuNDIxOSAxMS4zOTEgNS4wMjM0IDE2LjUxMiAxLjQyOTdsMjkuODgzLTIwLjkwMmM3LjczODMgMy45MTggMTUuNzU4IDcuMjQ2MSAyNCA5Ljk1N2w2LjMyNDIgMzZjMS4wNzgxIDYuMTY4IDYuNDMzNiAxMC42NjQgMTIuNjk1IDEwLjY1Nmg2OS4yODktMC4wMDM5MDZjNi4yNTc4IDAgMTEuNjA1LTQuNDkyMiAxMi42ODgtMTAuNjU2bDYuMzI0Mi0zNmgtMC4wMDM5MDdjOC4yNDIyLTIuNzA3IDE2LjI2Ni02LjAzNTIgMjQtOS45NTdsMjkuOTE0IDIwLjk3NyAwLjAwMzkwNi0wLjAwMzkwNmM1LjEyMTEgMy41OTc3IDEyLjA4NiAyLjk5NjEgMTYuNTEyLTEuNDI1OGw0OS4wNTUtNDkuMDdjNC40MjU4LTQuNDE4IDUuMDMxMi0xMS4zNzkgMS40NDE0LTE2LjVsLTIwLjk3Ny0yOS45M3YwLjAwMzkwNmMzLjkyMTktNy43MzgzIDcuMjUtMTUuNzYyIDkuOTYwOS0yNGwzNi02LjMyNDJjNi4xNjgtMS4wNzgxIDEwLjY2OC02LjQzMzYgMTAuNjY4LTEyLjY5NXYtNjkuMjg5Yy0wLjAwNzgxMy02LjI2NTYtNC41MTU2LTExLjYyMS0xMC42OTEtMTIuNjk1em0tMTUuMTIxIDcxLjE3Mi0zMy4xMzMgNS44MjAzYy00LjkwNjIgMC44NTE1Ni04Ljg3ODkgNC40NjA5LTEwLjE5OSA5LjI2MTctMy4yMDMxIDExLjYyMS03LjgzOTggMjIuODAxLTEzLjgwMSAzMy4yNzctMi40NTcgNC4zMzItMi4yMDcgOS42OTUzIDAuNjQ4NDQgMTMuNzc3bDE5LjMzMiAyNy42MDItMzMuNjk1IDMzLjY5NS0yNy42MDItMTkuMzJjLTQuMDcwMy0yLjg2NzItOS40MzM2LTMuMTI1LTEzLjc2Mi0wLjY2MDE2LTEwLjQ3NyA1Ljk2NDgtMjEuNjUyIDEwLjYwMi0zMy4yNzcgMTMuNzk3LTQuODAwOCAxLjMyNDItOC40MTAyIDUuMjk2OS05LjI3NzMgMTAuMjAzbC01LjgyMDMgMzMuMTMzLTQ3LjYxMy0wLjAwMzkwNi01LjgyMDMtMzMuMjAzYy0wLjg1OTM4LTQuOTA2Mi00LjQ3MjctOC44Nzg5LTkuMjc3My0xMC4xOTktMTEuNjEzLTMuMjA3LTIyLjc4OS03LjgzOTgtMzMuMjYyLTEzLjgwMS00LjMzMi0yLjQ3MjctOS42OTkyLTIuMjE4OC0xMy43NzcgMC42NDg0NGwtMjcuNjAyIDE5LjMyLTMzLjY5NS0zMy42OTUgMTkuMzMyLTI3LjYwMmMyLjg1NTUtNC4wODIgMy4xMDk0LTkuNDQxNCAwLjY0ODQ0LTEzLjc3My01Ljk2MDktMTAuNDgtMTAuNTk0LTIxLjY1Ni0xMy44MDEtMzMuMjc3LTEuMzIwMy00LjgwMDgtNS4yOTMtOC40MTAyLTEwLjE5OS05LjI2NTZsLTMzLjEyMS01LjgyMDN2LTQ3LjU2NmwzMy4xMjEtNS44MjAzYzQuOTA2Mi0wLjg2MzI4IDguODc1LTQuNDcyNyAxMC4xOTktOS4yNzczIDMuMjA3LTExLjYxNyA3LjgzOTgtMjIuNzk3IDEzLjgwMS0zMy4yNzMgMi40NjA5LTQuMzMyIDIuMjA3LTkuNjk1My0wLjY0ODQ0LTEzLjc3N2wtMTkuMzMyLTI3LjYwMiAzMy42OTUtMzMuNjk1IDI3LjYwMiAxOS4zMzJjNC4wODIgMi44NTU1IDkuNDQ1MyAzLjEwOTQgMTMuNzc3IDAuNjQ4NDQgMTAuNDczLTUuOTU3IDIxLjY0OC0xMC41OTQgMzMuMjYyLTEzLjgwMSA0LjgwNDctMS4zMjQyIDguNDE0MS01LjI5MyA5LjI3NzMtMTAuMTk5bDUuODIwMy0zMy4xMzNoNDcuNjUybDUuODIwMyAzMy4xMzNjMC44NjMyOCA0LjkwNjIgNC40NzI3IDguODc1IDkuMjczNCAxMC4xOTkgMTEuNjIxIDMuMjEwOSAyMi43OTcgNy44NDM4IDMzLjI3NyAxMy44MDEgNC4zMjgxIDIuNDYwOSA5LjY4NzUgMi4yMTA5IDEzLjc2Ni0wLjY0ODQ0bDI3LjYwMi0xOS4zMzIgMzMuNjk1IDMzLjY5NS0xOS4zMzIgMjcuNjAyaC0wLjAwMzkwNmMtMi44NTU1IDQuMDgyLTMuMTA1NSA5LjQ0NTMtMC42NDQ1MyAxMy43NzcgNS45NjQ4IDEwLjQ3MyAxMC41OTggMjEuNjUyIDEzLjc5NyAzMy4yNzMgMS4zMjQyIDQuODA0NyA1LjI5NjkgOC40MTQxIDEwLjIwMyA5LjI3NzNsMzMuMTMzIDUuODIwM3ptLTE4NC4zNy0xMjUuMzNjLTI2LjkxOCAwLTUyLjczNCAxMC42OTEtNzEuNzcgMjkuNzI3LTE5LjAzMSAxOS4wMzEtMjkuNzI3IDQ0Ljg0OC0yOS43MjcgNzEuNzY2czEwLjY5MSA1Mi43MzQgMjkuNzIzIDcxLjc3YzE5LjAzMSAxOS4wMzEgNDQuODQ4IDI5LjcyNyA3MS43NjYgMjkuNzMgMjYuOTE4IDAgNTIuNzM0LTEwLjY4OCA3MS43Ny0yOS43MjMgMTkuMDM1LTE5LjAzMSAyOS43My00NC44NDQgMjkuNzM0LTcxLjc2Mi0wLjAyNzM0NC0yNi45MS0xMC43MjctNTIuNzE1LTI5Ljc1NC03MS43NDYtMTkuMDMxLTE5LjAyNy00NC44MzItMjkuNzM0LTcxLjc0Mi0yOS43NjJ6bTAgMTc3LjIxYy0yMC4wODIgMC0zOS4zNDQtNy45NzY2LTUzLjU0My0yMi4xOC0xNC4yMDMtMTQuMTk5LTIyLjE4LTMzLjQ2MS0yMi4xNzYtNTMuNTQzIDAtMjAuMDgyIDcuOTc2Ni0zOS4zNDQgMjIuMTgtNTMuNTQzIDE0LjIwMy0xNC4xOTkgMzMuNDY1LTIyLjE3NiA1My41NDctMjIuMTcyIDIwLjA4MiAwIDM5LjM0NCA3Ljk4MDUgNTMuNTM5IDIyLjE4NCAxNC4xOTkgMTQuMjAzIDIyLjE3NiAzMy40NjUgMjIuMTcyIDUzLjU0Ny0wLjAyMzQzOCAyMC4wNzQtOC4wMTE3IDM5LjMxNi0yMi4yMDcgNTMuNTEyLTE0LjE5NSAxNC4xOTEtMzMuNDM4IDIyLjE3Ni01My41MTIgMjIuMTk1em00NC4yNTgtMTA3LjM2aC0wLjAwMzkwNmM1LjAyNzMgNS4wMzEyIDUuMDI3MyAxMy4xODQgMCAxOC4yMTVsLTQ1LjA4NiA0NS4wODZoMC4wMDM5MDZjLTUuMDMxMiA1LjAyNzMtMTMuMTg0IDUuMDI3My0xOC4yMTUgMGwtMjUuMTk5LTI1LjE5OWgtMC4wMDM5MDZjLTIuNTAzOS0yLjM5ODQtMy45Mzc1LTUuNzAzMS0zLjk3NjYtOS4xNjgtMC4wMzkwNjMtMy40Njg4IDEuMzIwMy02LjgwNDcgMy43Njk1LTkuMjU3OCAyLjQ1MzEtMi40NTMxIDUuNzg1Mi0zLjgxMjUgOS4yNTM5LTMuNzc3MyAzLjQ2NDggMC4wMzkwNjIgNi43NzM0IDEuNDY4OCA5LjE3MTkgMy45NzI3bDE2LjEwNSAxNi4xMDUgMzYtMzZoLTAuMDAzOTA2YzUuMDMxMi01LjAwMzkgMTMuMTY0LTQuOTkyMiAxOC4xOCAwLjAyMzQzOHptNjY2LjQzLTM4OC4zNGgtOTAwYy0yMy42MzMgMC4wMjczNDQtNDYuMjkzIDkuNDI1OC02My4wMDQgMjYuMTMzLTE2LjcxNSAxNi43MTEtMjYuMTE3IDM5LjM3MS0yNi4xNDUgNjMuMDA0djU5NC43N2MwLjAyNzM0NCAyMy42MzcgOS40Mjk3IDQ2LjI5MyAyNi4xNDUgNjMuMDA0IDE2LjcxMSAxNi43MTEgMzkuMzcxIDI2LjEwOSA2My4wMDQgMjYuMTMzaDI5My42OWwtMzcuOTM0IDE0MS42aC0yNS45MDZjLTIxLjkyMiAwLjAyNzM0NC00Mi45MzggOC43NS01OC40NDEgMjQuMjUtMTUuNSAxNS41MDQtMjQuMjIzIDM2LjUyLTI0LjI1IDU4LjQ0MXY2OS44MDVjMC4wMTE3MTkgNy4xMDk0IDUuNzc3MyAxMi44NjMgMTIuODg3IDEyLjg2M2g1NzkuOTFjMy40MTggMCA2LjY5NTMtMS4zNTk0IDkuMTEzMy0zLjc3MzQgMi40MTQxLTIuNDE4IDMuNzczNC01LjY5NTMgMy43NzM0LTkuMTEzM3YtNjkuODA1Yy0wLjAyNzM0NC0yMS45MjItOC43NS00Mi45NDEtMjQuMjUtNTguNDQxLTE1LjUwNC0xNS41LTM2LjUyLTI0LjIyMy01OC40NDEtMjQuMjVoLTI1LjkxbC0zNy45MzQtMTQxLjZoMjkzLjY5YzIzLjYzMy0wLjAyMzQzNyA0Ni4yOTMtOS40MjU4IDYzLjAwNC0yNi4xMzMgMTYuNzE1LTE2LjcxMSAyNi4xMTctMzkuMzcxIDI2LjE0NS02My4wMDR2LTU5NC43NGMtMC4wMjczNDQtMjMuNjMzLTkuNDI5Ny00Ni4yOTMtMjYuMTQ1LTYzLjAwNC0xNi43MTEtMTYuNzA3LTM5LjM3MS0yNi4xMDUtNjMuMDA0LTI2LjEzM3ptLTE3Mi45MyA5OTcuMzF2NTYuOTE0aC01NTQuMTN2LTU2LjkxNGMwLjAxNTYyNS0xNS4wOSA2LjAxNTYtMjkuNTU5IDE2LjY4OC00MC4yMyAxMC42NjgtMTAuNjY4IDI1LjEzNy0xNi42NzIgNDAuMjI3LTE2LjY4OGg0NDAuM2MxNS4wOSAwLjAxOTUzMSAyOS41NTUgNi4wMjM0IDQwLjIyMyAxNi42OTEgMTAuNjcyIDEwLjY3MiAxNi42NzYgMjUuMTM3IDE2LjY5MSA0MC4yMjd6bS0xMDkuNTEtODIuNjkxaC0zMzUuMTFsMzcuOTUzLTE0MS41OGgyNTkuMnptMzQ1Ljc4LTIzMC43MWMtMC4wMTk1MzIgMTYuODAxLTYuNzAzMSAzMi45MS0xOC41ODIgNDQuNzg5LTExLjg4MyAxMS44NzUtMjcuOTg4IDE4LjU1OS00NC43ODkgMTguNTc0aC04OTkuOTZjLTE2LjgwMS0wLjAxNTYyNS0zMi45MS02LjY5OTItNDQuNzg5LTE4LjU3NC0xMS44NzktMTEuODc5LTE4LjU2Mi0yNy45ODgtMTguNTgyLTQ0Ljc4OXYtNTk0Ljc3YzAuMDE5NTMyLTE2LjgwMSA2LjcwNy0zMi45MDYgMTguNTg2LTQ0Ljc4MSAxMS44NzktMTEuODc5IDI3Ljk4NC0xOC41NTkgNDQuNzg1LTE4LjU3OGg5MDBjMTYuODAxIDAuMDE5NTMxIDMyLjkwNiA2LjY5OTIgNDQuNzg1IDE4LjU3OCAxMS44NzkgMTEuODc1IDE4LjU2NiAyNy45OCAxOC41ODYgNDQuNzgxem0tMzU4LjQ2LTMwMy41IDQuMzY3Mi0yNC44OThjNS4wMjM0LTEuNzM0NCA5LjkzNzUtMy43Njk1IDE0LjcxNS02LjA5NzdsMjAuNjk5IDE0LjUwOGM1LjE0NDUgMy42MDE2IDEyLjEzNyAyLjk2MDkgMTYuNTQ3LTEuNTExN2wzNi41MTYtMzYuNTE2YzQuNDI1OC00LjQyMTkgNS4wMzUyLTExLjM4NyAxLjQ0MTQtMTYuNTEybC0xNC41Mi0yMC42OTljMi4zMzItNC43NzM0IDQuMzc1LTkuNjg3NSA2LjEwNTUtMTQuNzExbDI0Ljg4Ny00LjM2NzJoMC4wMDM5MDZjNi4xNjQxLTEuMDgyIDEwLjY2LTYuNDM3NSAxMC42NTYtMTIuNjk5di01MS42MDIgMC4wMDM5MDZjMC4wMDM5MDctNi4yNjE3LTQuNDkyMi0xMS42MTctMTAuNjU2LTEyLjY5NWwtMjQuODg3LTQuMzY3Mi0wLjAwMzkwNi0wLjAwMzkwNmMtMS43MzQ0LTUuMDIzNC0zLjc3MzQtOS45MzM2LTYuMTA1NS0xNC43MTFsMTQuNTItMjAuNjk5YzMuNTkzOC01LjEyNSAyLjk4NDQtMTIuMDg2LTEuNDQxNC0xNi41MTJsLTM2LjUxNi0zNi41MjdjLTQuNDIxOS00LjQyOTctMTEuMzkxLTUuMDM5MS0xNi41MTItMS40NDE0bC0yMC42ODggMTQuNDYxYy00Ljc5NjktMi4yOTMtOS43MjY2LTQuMjkzLTE0Ljc2Mi02bC00LjM2NzItMjQuODk4di0wLjAwMzkwNmMtMS4wOTM4LTYuMTU2Mi02LjQ0MTQtMTAuNjQ1LTEyLjY5NS0xMC42NTZoLTUxLjYwMmMtNi4yNSAwLjAwNzgxMi0xMS41OTggNC41LTEyLjY4NCAxMC42NTZsLTQuNDI1OCAyNC45MDJjLTUuMDAzOSAxLjcwMzEtOS45MDIzIDMuNzAzMS0xNC42NjQgNmwtMjAuNzUtMTQuNDAyYy01LjEyMTEtMy41OTM4LTEyLjA5LTIuOTg4My0xNi41MTIgMS40NDE0bC0zNi41MTYgMzYuNTE2Yy00LjQyNTggNC40MjU4LTUuMDMxMiAxMS4zOTEtMS40Mzc1IDE2LjUxMmwxNC41MiAyMC42OTljLTIuMzM1OSA0Ljc3NzMtNC4zNzUgOS42OTE0LTYuMTA5NCAxNC43MTVsLTI0Ljg4NyA0LjM2NzJjLTYuMTY4IDEuMDc4MS0xMC42NjQgNi40Mzc1LTEwLjY1NiAxMi42OTV2NTEuNjAyYy0wLjAwNzgxMyA2LjI1NzggNC40ODgzIDExLjYxNyAxMC42NTYgMTIuNjk1bDI0Ljg4NyA0LjM2NzJjMS43MzQ0IDUuMDIzNCAzLjc3MzQgOS45Mzc1IDYuMTA5NCAxNC43MTFsLTE0LjUyIDIwLjY5OXYwLjAwMzkwNmMtMy41OTM4IDUuMTIxMS0yLjk4ODMgMTIuMDg2IDEuNDM3NSAxNi41MTJsMzYuNTc4IDM2LjQ2NWM0LjQyMTkgNC40Mjk3IDExLjM4NyA1LjAzOTEgMTYuNTEyIDEuNDQxNGwyMC42ODgtMTQuNDg0YzQuNzc3MyAyLjMyODEgOS42ODc1IDQuMzYzMyAxNC43MTEgNi4wOTc3bDQuMzc4OSAyNC44OThjMS4wODU5IDYuMTYwMiA2LjQzMzYgMTAuNjUyIDEyLjY4NCAxMC42NTZoNTEuNjAyYzYuMjM4My0wLjAwMzkwNiAxMS41ODItNC40Njg4IDEyLjY5NS0xMC42MDl6bS0xOS42NTYtMzcuMTk5LTMuODYzMyAyMS45ODRoLTMwbC0zLjg2MzMtMjEuOTg0Yy0wLjg2NzE5LTQuOTAyMy00LjQ3NjYtOC44NzExLTkuMjc3My0xMC4xOTktOC4zODI4LTIuMzE2NC0xNi40NDEtNS42NjgtMjQtOS45NzI3LTQuMzI4MS0yLjQ2MDktOS42OTE0LTIuMjA3LTEzLjc2MiAwLjY2MDE2bC0xOC4yODkgMTIuODE2LTIxLjIxNS0yMS4yMTUgMTIuODI4LTE4LjI3N2MyLjg1NTUtNC4wODIgMy4xMDU1LTkuNDQxNCAwLjY0ODQ0LTEzLjc3Ny00LjMwNDctNy41NTQ3LTcuNjUyMy0xNS42MTctOS45NzI3LTI0LTEuMzI0Mi00LjgwMDgtNS4yOTY5LTguNDEwMi0xMC4yMDMtOS4yNzM0bC0yMS45NzMtMy44NTE2di0zMGwyMS45NzMtMy44NTE2YzQuOTA2Mi0wLjg2MzI4IDguODc4OS00LjQ3NjYgMTAuMjAzLTkuMjc3MyAyLjMyMDMtOC4zODI4IDUuNjY4LTE2LjQ0MSA5Ljk3MjctMjQgMi40NTctNC4zMzIgMi4yMDctOS42OTUzLTAuNjQ4NDQtMTMuNzc3bC0xMi44MjgtMTguMjc3IDIxLjIxNS0yMS4yMTUgMTguMjM4IDEyLjc1OGM0LjA3NDIgMi44NjMzIDkuNDM3NSAzLjEyMTEgMTMuNzY2IDAuNjYwMTYgNy41NTg2LTQuMzA0NyAxNS42MTctNy42NTYyIDI0LTkuOTcyNyA0LjgwMDgtMS4zMjQyIDguNDA2Mi01LjI5NjkgOS4yNjU2LTEwLjE5OWwzLjg2MzMtMjEuOTg0aDMwbDMuODYzMyAyMS45ODRjMC44NTU0NyA0LjkwMjMgNC40NjQ4IDguODc1IDkuMjY1NiAxMC4xOTkgOC4zNzg5IDIuMzE2NCAxNi40NDEgNS42NjQxIDI0IDkuOTcyNyA0LjMzMiAyLjQ2MDkgOS42OTUzIDIuMjAzMSAxMy43NzMtMC42NjAxNmwxOC4yODktMTIuODE2IDIxLjIxNSAyMS4yMTUtMTIuODI4IDE4LjI3N2MtMi44NTU1IDQuMDgyLTMuMTA1NSA5LjQ0MTQtMC42NDg0NCAxMy43NzcgNC4zMDg2IDcuNTU0NyA3LjY2MDIgMTUuNjEzIDkuOTcyNyAyNCAxLjMyNDIgNC44MDA4IDUuMjk2OSA4LjQxMDIgMTAuMTk5IDkuMjczNGwyMS45NzMgMy44NTE2djMwbC0yMS45NzMgMy44NTE2Yy00LjkwMjMgMC44NjMyOC04Ljg3NSA0LjQ3NjYtMTAuMTk5IDkuMjc3My0yLjMxMjUgOC4zODI4LTUuNjY0MSAxNi40NDUtOS45NzI3IDI0LTIuNDU3IDQuMzMyLTIuMjA3IDkuNjk1MyAwLjY0ODQ0IDEzLjc3N2wxMi44MTYgMTguMjc3LTIxLjIwMyAyMS4yMTUtMTguMjg5LTEyLjgxNmMtNC4wNzQyLTIuODY3Mi05LjQzMzYtMy4xMjUtMTMuNzYyLTAuNjYwMTYtNy41NTQ3IDQuMzA4Ni0xNS42MTcgNy42NTYyLTI0IDkuOTcyNy00Ljc5NjkgMS4zNTU1LTguMzgyOCA1LjM0NzctOS4yMTg4IDEwLjI1OHptMzkuNzgxLTExMi4xNGMtMC4wMDc4MTMtMTUuNTUxLTYuMTk5Mi0zMC40NjUtMTcuMjAzLTQxLjQ1Ny0xMS4wMDQtMTAuOTkyLTI1LjkyNi0xNy4xNi00MS40OC0xNy4xNDgtMTUuNTU1IDAuMDA3ODEzLTMwLjQ2OSA2LjE5OTItNDEuNDU3IDE3LjIwMy0xMC45OTIgMTEuMDA4LTE3LjE2IDI1LjkzLTE3LjE0OCA0MS40ODRzNi4yMDMxIDMwLjQ2NSAxNy4yMTEgNDEuNDU3YzExLjAwOCAxMC45ODggMjUuOTMgMTcuMTU2IDQxLjQ4IDE3LjE0MSAxNS41MzktMC4wMjczNDMgMzAuNDM0LTYuMjE0OCA0MS40MTgtMTcuMjAzIDEwLjk4LTEwLjk5MiAxNy4xNi0yNS44OTEgMTcuMTgtNDEuNDI2em0tNTguNTk4IDMyLjk0MWMtOC43MTQ4IDAtMTcuMDc0LTMuNDYwOS0yMy4yMzgtOS42MjUtNi4xNjQxLTYuMTY0MS05LjYyODktMTQuNTI3LTkuNjI4OS0yMy4yNDIgMC04LjcxODggMy40NjQ4LTE3LjA3OCA5LjYyODktMjMuMjQyIDYuMTY0MS02LjE2NDEgMTQuNTIzLTkuNjI1IDIzLjIzOC05LjYyNSA4LjcxODggMCAxNy4wNzggMy40NjA5IDIzLjI0MiA5LjYyNXM5LjYyODkgMTQuNTIzIDkuNjI4OSAyMy4yNDJjLTAuMDExNzE5IDguNzE0OC0zLjQ3NjYgMTcuMDY2LTkuNjQwNiAyMy4yMy02LjE2MDIgNi4xNjAyLTE0LjUxNiA5LjYyODktMjMuMjMgOS42MzY3em0zMjYuNCAyMjkuOTEtMjYuOTAyLTQuNzI2NmMtMS45MTAyLTUuNjAxNi00LjE3OTctMTEuMDc4LTYuNzg5MS0xNi4zOTFsMTUuNjg0LTIyLjM2N2MzLjU4OTgtNS4xMjUgMi45ODQ0LTEyLjA5LTEuNDQxNC0xNi41MTZsLTM4Ljc4NS0zOC43ODV2MC4wMDM5MDZjLTQuNDIxOS00LjQyNTgtMTEuMzg3LTUuMDMxMi0xNi41MTItMS40NDE0bC0yMi40NDkgMTUuNjZjLTUuMzE2NC0yLjYxMzMtMTAuNzk3LTQuODgyOC0xNi40MDYtNi43OTNsLTQuNzAzMS0yNi45NDljLTEuMDg5OC02LjE2NDEtNi40NDE0LTEwLjY1Mi0xMi42OTUtMTAuNjU2aC01NC44NGMtNi4yNjE3LTAuMDA3ODEyLTExLjYxNyA0LjQ4ODMtMTIuNjk1IDEwLjY1NmwtNC43MjY2IDI2LjkwMmgtMC4wMDM5MDZjLTUuNjA1NSAxLjkxMDItMTEuMDc4IDQuMTc1OC0xNi4zOTEgNi43OTNsLTIyLjM3OS0xNS42MzdjLTUuMTIxMS0zLjU4OTgtMTIuMDgyLTIuOTg0NC0xNi41IDEuNDQxNGwtMzguNzg1IDM4Ljc4NXYtMC4wMDM5MDdjLTQuNDM3NSA0LjQxOC01LjA1ODYgMTEuMzgzLTEuNDc2NiAxNi41MTJsMTUuNzE5IDIyLjQwNmMtMi42MDk0IDUuMzEyNS00Ljg4MjggMTAuNzg5LTYuODA0NyAxNi4zOTFsLTI2Ljg5MSA0LjcyNjZ2MC4wMDM5MDZjLTYuMTY0MSAxLjA3ODEtMTAuNjYgNi40MzM2LTEwLjY1NiAxMi42OTV2NTQuODRjLTAuMDAzOTA3IDYuMjU3OCA0LjQ5MjIgMTEuNjE3IDEwLjY1NiAxMi42OTVsMjYuODkxIDQuNzI2NmMxLjkyNTggNS41NzgxIDQuMTk5MiAxMS4wMzEgNi44MDQ3IDE2LjMybC0xNS43MTkgMjIuNDA2Yy0zLjU5MzggNS4xMjExLTIuOTg0NCAxMi4wODYgMS40NDE0IDE2LjUxMmwzOC43ODUgMzguNzg1LTAuMDAzOTA2LTAuMDAzOTA2YzQuNDIxOSA0LjQyNTggMTEuMzgzIDUuMDMxMiAxNi41IDEuNDQxNGwyMi40NzctMTUuNjg0YzUuMzEyNSAyLjYxMzMgMTAuNzg5IDQuODgyOCAxNi4zOTUgNi43OTNsNC43MjY2IDI2LjkwMmMxLjA3ODEgNi4xNjggNi40Mzc1IDEwLjY2NCAxMi42OTUgMTAuNjU2aDU0Ljg0YzYuMjU3OC0wLjAwMzkwNiAxMS42MDktNC40OTYxIDEyLjY5NS0xMC42NTZsNC43MTQ4LTI2LjkwMmgwLjAwMzkwNmM1LjYwNTUtMS45MTAyIDExLjA4Ni00LjE3OTcgMTYuNDAyLTYuNzkzbDIyLjMwOSAxNS43NDJjNS4xMjUgMy41OTM4IDEyLjA4NiAyLjk4ODMgMTYuNTEyLTEuNDM3NWwzOC43ODUtMzguNzg1YzQuNDIxOS00LjQyNTggNS4wMzEyLTExLjM4NyAxLjQzNzUtMTYuNTEybC0xNS42ODQtMjIuNDY1YzIuNjEzMy01LjMxMjUgNC44ODI4LTEwLjc4OSA2Ljc5My0xNi4zOTFsMjYuOTAyLTQuNzI2NnYtMC4wMDM5MDZjNi4xNjgtMS4wNzgxIDEwLjY2NC02LjQzMzYgMTAuNjU2LTEyLjY5NXYtNTQuODRjLTAuMDExNzE4LTYuMjQ2MS00LjUwMzktMTEuNTgyLTEwLjY1Ni0xMi42NnptLTE1LjEyMSA1Ni43MTEtMjQgNC4yMjI3IDAuMDAzOTA3IDAuMDAzOTA2Yy00LjkwMjMgMC44NTkzOC04Ljg3MTEgNC40NjQ4LTEwLjE4OCA5LjI2NTYtMi40ODA1IDguOTgwNS02LjA2MjUgMTcuNjI1LTEwLjY2OCAyNS43MjctMi40ODgzIDQuMzEyNS0yLjI2NTYgOS42NzU4IDAuNTc0MjIgMTMuNzY2bDEzLjk5MiAxOS45NTctMjMuNDY5IDIzLjQ2OS0xOS45MjItMTQuMDA0Yy00LjA3NDItMi44NjMzLTkuNDM3NS0zLjExMzMtMTMuNzY2LTAuNjQ4NDQtOC4xMDE2IDQuNjA1NS0xNi43NDIgOC4xODc1LTI1LjcyNyAxMC42NjgtNC44MDA4IDEuMzE2NC04LjQxMDIgNS4yODUyLTkuMjY1NiAxMC4xODhsLTQuMjIyNyAyNGgtMzMuMjVsLTQuMjEwOS0yNGgtMC4wMDM5MDZjLTAuODU5MzgtNC45MDIzLTQuNDcyNy04Ljg3MTEtOS4yNzM0LTEwLjE4OC04Ljk4MDUtMi40ODA1LTE3LjYxNy02LjA2MjUtMjUuNzE5LTEwLjY2OC00LjMyNDItMi40NjQ4LTkuNjg3NS0yLjIxNDgtMTMuNzYyIDAuNjQ4NDRsLTE5Ljk2OSAxNC4wMDQtMjMuNDg0LTIzLjQ4NCAxNC4wMDQtMTkuOTQxYzIuODU1NS00LjA4NTkgMy4xMDk0LTkuNDQ1MyAwLjY0ODQ0LTEzLjc3Ny00LjYwNTUtOC4xMDE2LTguMTg3NS0xNi43NDYtMTAuNjY4LTI1LjcyNy0xLjMyMDMtNC44MDQ3LTUuMjkzLTguNDE0MS0xMC4xOTktOS4yNjU2bC0yNC00LjIyMjd2LTMzLjIwN2wyNC00LjIyMjdjNC45MDYyLTAuODUxNTYgOC44Nzg5LTQuNDYwOSAxMC4xOTktOS4yNjU2IDIuNDgwNS04Ljk4MDUgNi4wNjI1LTE3LjYyNSAxMC42NjgtMjUuNzI3IDIuNDYwOS00LjMzMiAyLjIwNy05LjY5MTQtMC42NDg0NC0xMy43NzdsLTE0LjAwNC0xOS45NTcgMjMuNDg0LTIzLjQ4NCAxOS45NjkgMTQuMDA4YzQuMDc4MSAyLjg1NTUgOS40MzM2IDMuMTA5NCAxMy43NjIgMC42NDg0NCA4LjA5NzctNC42MDU1IDE2LjczOC04LjE4MzYgMjUuNzE5LTEwLjY1NiA0LjgwMDgtMS4zMjgxIDguNDEwMi01LjI5NjkgOS4yNzM0LTEwLjE5OWw0LjIxMDktMjRoMzMuMjAzbDQuMjIyNyAyNGgwLjAwMzkwNmMwLjg1NTQ3IDQuOTAyMyA0LjQ2NDggOC44NzUgOS4yNjU2IDEwLjE5OSA4Ljk4NDQgMi40Njg4IDE3LjYyNSA2LjA1MDggMjUuNzI3IDEwLjY1NiA0LjMyNDIgMi40NzI3IDkuNjkxNCAyLjIxODggMTMuNzY2LTAuNjQ4NDRsMTkuOTY5LTE0LjAwNCAyMy40NzMgMjMuNDg0LTEzLjk5NiAxOS45NDFjLTIuODY3MiA0LjA3ODEtMy4xMTcyIDkuNDQ5Mi0wLjY0NDUzIDEzLjc3NyA0LjYwMTYgOC4xMDE2IDguMTg3NSAxNi43NDYgMTAuNjY4IDI1LjcyNyAxLjMxNjQgNC44MDA4IDUuMjg1MiA4LjQxMDIgMTAuMTg4IDkuMjY1NmwyNCA0LjIyMjd6bS0xNDMuMjgtNzguMDk0Yy0xNi4zMDUtMC4wMDM5MDctMzEuOTQ1IDYuNDY0OC00My40NzcgMTcuOTkyLTExLjUzNSAxMS41MjctMTguMDIgMjcuMTY0LTE4LjAyMyA0My40NjktMC4wMDM5MDcgMTYuMzA1IDYuNDcyNyAzMS45NDUgMTggNDMuNDc3IDExLjUyNyAxMS41MzEgMjcuMTY0IDE4LjAxMiA0My40NjkgMTguMDE2IDE2LjMwOSAwIDMxLjk0NS02LjQ3MjcgNDMuNDc3LTE4LjAwNCAxMS41MzEtMTEuNTI3IDE4LjAwOC0yNy4xNjggMTguMDA4LTQzLjQ3My0wLjAxOTUzMS0xNi4yOTMtNi41LTMxLjkxOC0xOC4wMi00My40NDEtMTEuNTItMTEuNTIzLTI3LjEzNy0xOC4wMDgtNDMuNDM0LTE4LjAzNXptMCA5Ny4xOTljLTkuNDY0OCAwLjAwNzgxMy0xOC41NTEtMy43NDYxLTI1LjI1LTEwLjQzOC02LjY5OTItNi42OTE0LTEwLjQ2NS0xNS43Ny0xMC40NzMtMjUuMjM4LTAuMDA3ODEyLTkuNDY4OCAzLjc1LTE4LjU1MSAxMC40NDEtMjUuMjUgNi42ODc1LTYuNjk5MiAxNS43NjYtMTAuNDY1IDI1LjIzNC0xMC40NzMgOS40Njg4LTAuMDA3ODEzIDE4LjU1MSAzLjc1IDI1LjI1IDEwLjQzOCA2LjY5OTIgNi42OTE0IDEwLjQ2OSAxNS43NyAxMC40NzMgMjUuMjM4LTAuMDA3ODEzIDkuNDYwOS0zLjc2OTUgMTguNTMxLTEwLjQ1NyAyNS4yMjctNi42ODc1IDYuNjkxNC0xNS43NTggMTAuNDU3LTI1LjIxOSAxMC40NzN6Ii8+JiN4YTs8L3N2Zz4=;" vertex="1" parent="5pn5844G3AZOIJAPQa10-34">
          <mxGeometry y="0.7899999999999636" width="68.29" height="68.42" as="geometry" />
        </mxCell>
        <mxCell id="5pn5844G3AZOIJAPQa10-28" value="BMS" style="text;html=1;align=center;verticalAlign=middle;whiteSpace=wrap;rounded=0;" vertex="1" parent="5pn5844G3AZOIJAPQa10-34">
          <mxGeometry x="4.139999999999986" y="80.78999999999996" width="60" height="30" as="geometry" />
        </mxCell>
        <mxCell id="5pn5844G3AZOIJAPQa10-29" value="" style="shape=image;verticalLabelPosition=bottom;labelBackgroundColor=default;verticalAlign=top;aspect=fixed;imageAspect=0;image=https://upload.wikimedia.org/wikipedia/commons/thumb/1/17/GraphQL_Logo.svg/2048px-GraphQL_Logo.svg.png;" vertex="1" parent="5pn5844G3AZOIJAPQa10-34">
          <mxGeometry x="160" width="70" height="70" as="geometry" />
        </mxCell>
        <mxCell id="5pn5844G3AZOIJAPQa10-30" value="BMS subgraph" style="text;html=1;align=center;verticalAlign=middle;whiteSpace=wrap;rounded=0;" vertex="1" parent="5pn5844G3AZOIJAPQa10-34">
          <mxGeometry x="165" y="80.78999999999996" width="60" height="30" as="geometry" />
        </mxCell>
        <mxCell id="5pn5844G3AZOIJAPQa10-35" value="" style="group" vertex="1" connectable="0" parent="1">
          <mxGeometry x="908" y="1262.21" width="230" height="110.78999999999996" as="geometry" />
        </mxCell>
        <mxCell id="5pn5844G3AZOIJAPQa10-32" style="edgeStyle=orthogonalEdgeStyle;rounded=0;orthogonalLoop=1;jettySize=auto;html=1;startArrow=classic;startFill=1;" edge="1" parent="5pn5844G3AZOIJAPQa10-35" source="5pn5844G3AZOIJAPQa10-21" target="5pn5844G3AZOIJAPQa10-23">
          <mxGeometry relative="1" as="geometry" />
        </mxCell>
        <mxCell id="5pn5844G3AZOIJAPQa10-21" value="" style="shape=image;verticalLabelPosition=bottom;labelBackgroundColor=default;verticalAlign=top;aspect=fixed;imageAspect=0;editableCssRules=.*;image=data:image/svg+xml,PHN2ZyB4bWxucz0iaHR0cDovL3d3dy53My5vcmcvMjAwMC9zdmciIHZpZXdCb3g9IjYwLjg0ODA3MjA1MjAwMTk1IDYwLjAwMjA0NDY3NzczNDM3NSAxMDc4LjI5NTY1NDI5Njg3NSAxMDgwLjAwMzE3MzgyODEyNSIgdmVyc2lvbj0iMS4xIiBoZWlnaHQ9IjEwODAuMDAzMTczODI4MTI1IiB3aWR0aD0iMTA3OC4yOTU2NTQyOTY4NzUiPiYjeGE7IDxwYXRoIGQ9Im01MzguOCA0MzIuNjUtMzYtNi4zMTI1Yy0yLjcxMDktOC4yMzgzLTYuMDQzLTE2LjI2Mi05Ljk2MDktMjRsMjAuOTc3LTI5LjkxNGMzLjU4OTgtNS4xMjUgMi45ODQ0LTEyLjA5LTEuNDQxNC0xNi41MTZsLTQ4Ljk5Ni00OC45OTZjLTQuNDIxOS00LjQyOTctMTEuMzg3LTUuMDM1Mi0xNi41MTItMS40Mzc1bC0yOS44OTEgMjAuOTI2Yy03LjczODMtMy45MTgtMTUuNzYyLTcuMjQyMi0yNC05Ljk0NTNsLTYuMzI0Mi0zNmMtMS4wODItNi4xNjAyLTYuNDI5Ny0xMC42NTItMTIuNjg0LTEwLjY1NmgtNjkuMzAxYy02LjI1NzgtMC4wMDM5MDYtMTEuNjEzIDQuNDkyMi0xMi42OTUgMTAuNjU2bC02LjMyNDIgMzZjLTguMjQyMiAyLjY5OTItMTYuMjY2IDYuMDI3My0yNCA5Ljk0NTNsLTI5LjkzLTIwLjkzOGMtNS4xMjExLTMuNTkzOC0xMi4wODYtMi45ODQ0LTE2LjUxMiAxLjQzNzVsLTQ4Ljk5NiA0OC45OTZjLTQuNDIxOSA0LjQyNTgtNS4wMzEyIDExLjM5MS0xLjQzNzUgMTYuNTEybDIwLjk4OCAyOS45MTR2MC4wMDM5MDdjLTMuOTI1OCA3LjczNDQtNy4yNTM5IDE1Ljc1OC05Ljk2MDkgMjRsLTM2IDYuMzEyNWMtNi4xNjQxIDEuMDgyLTEwLjY1NiA2LjQzNzUtMTAuNjU2IDEyLjY5NXY2OS4yODljLTAuMDA3ODEyIDYuMjU3OCA0LjQ4ODMgMTEuNjE3IDEwLjY1NiAxMi42OTVsMzYgNi4zMjQyYzIuNzA3IDguMjQyMiA2LjAzNTIgMTYuMjY2IDkuOTYwOSAyNGwtMjAuOTg4IDI5Ljkzdi0wLjAwMzkwNmMtMy41OTM4IDUuMTIxMS0yLjk4NDQgMTIuMDgyIDEuNDM3NSAxNi41bDQ4Ljk5NiA0OS4wMDhjNC40Mjk3IDQuNDIxOSAxMS4zOTEgNS4wMjM0IDE2LjUxMiAxLjQyOTdsMjkuODgzLTIwLjkwMmM3LjczODMgMy45MTggMTUuNzU4IDcuMjQ2MSAyNCA5Ljk1N2w2LjMyNDIgMzZjMS4wNzgxIDYuMTY4IDYuNDMzNiAxMC42NjQgMTIuNjk1IDEwLjY1Nmg2OS4yODktMC4wMDM5MDZjNi4yNTc4IDAgMTEuNjA1LTQuNDkyMiAxMi42ODgtMTAuNjU2bDYuMzI0Mi0zNmgtMC4wMDM5MDdjOC4yNDIyLTIuNzA3IDE2LjI2Ni02LjAzNTIgMjQtOS45NTdsMjkuOTE0IDIwLjk3NyAwLjAwMzkwNi0wLjAwMzkwNmM1LjEyMTEgMy41OTc3IDEyLjA4NiAyLjk5NjEgMTYuNTEyLTEuNDI1OGw0OS4wNTUtNDkuMDdjNC40MjU4LTQuNDE4IDUuMDMxMi0xMS4zNzkgMS40NDE0LTE2LjVsLTIwLjk3Ny0yOS45M3YwLjAwMzkwNmMzLjkyMTktNy43MzgzIDcuMjUtMTUuNzYyIDkuOTYwOS0yNGwzNi02LjMyNDJjNi4xNjgtMS4wNzgxIDEwLjY2OC02LjQzMzYgMTAuNjY4LTEyLjY5NXYtNjkuMjg5Yy0wLjAwNzgxMy02LjI2NTYtNC41MTU2LTExLjYyMS0xMC42OTEtMTIuNjk1em0tMTUuMTIxIDcxLjE3Mi0zMy4xMzMgNS44MjAzYy00LjkwNjIgMC44NTE1Ni04Ljg3ODkgNC40NjA5LTEwLjE5OSA5LjI2MTctMy4yMDMxIDExLjYyMS03LjgzOTggMjIuODAxLTEzLjgwMSAzMy4yNzctMi40NTcgNC4zMzItMi4yMDcgOS42OTUzIDAuNjQ4NDQgMTMuNzc3bDE5LjMzMiAyNy42MDItMzMuNjk1IDMzLjY5NS0yNy42MDItMTkuMzJjLTQuMDcwMy0yLjg2NzItOS40MzM2LTMuMTI1LTEzLjc2Mi0wLjY2MDE2LTEwLjQ3NyA1Ljk2NDgtMjEuNjUyIDEwLjYwMi0zMy4yNzcgMTMuNzk3LTQuODAwOCAxLjMyNDItOC40MTAyIDUuMjk2OS05LjI3NzMgMTAuMjAzbC01LjgyMDMgMzMuMTMzLTQ3LjYxMy0wLjAwMzkwNi01LjgyMDMtMzMuMjAzYy0wLjg1OTM4LTQuOTA2Mi00LjQ3MjctOC44Nzg5LTkuMjc3My0xMC4xOTktMTEuNjEzLTMuMjA3LTIyLjc4OS03LjgzOTgtMzMuMjYyLTEzLjgwMS00LjMzMi0yLjQ3MjctOS42OTkyLTIuMjE4OC0xMy43NzcgMC42NDg0NGwtMjcuNjAyIDE5LjMyLTMzLjY5NS0zMy42OTUgMTkuMzMyLTI3LjYwMmMyLjg1NTUtNC4wODIgMy4xMDk0LTkuNDQxNCAwLjY0ODQ0LTEzLjc3My01Ljk2MDktMTAuNDgtMTAuNTk0LTIxLjY1Ni0xMy44MDEtMzMuMjc3LTEuMzIwMy00LjgwMDgtNS4yOTMtOC40MTAyLTEwLjE5OS05LjI2NTZsLTMzLjEyMS01LjgyMDN2LTQ3LjU2NmwzMy4xMjEtNS44MjAzYzQuOTA2Mi0wLjg2MzI4IDguODc1LTQuNDcyNyAxMC4xOTktOS4yNzczIDMuMjA3LTExLjYxNyA3LjgzOTgtMjIuNzk3IDEzLjgwMS0zMy4yNzMgMi40NjA5LTQuMzMyIDIuMjA3LTkuNjk1My0wLjY0ODQ0LTEzLjc3N2wtMTkuMzMyLTI3LjYwMiAzMy42OTUtMzMuNjk1IDI3LjYwMiAxOS4zMzJjNC4wODIgMi44NTU1IDkuNDQ1MyAzLjEwOTQgMTMuNzc3IDAuNjQ4NDQgMTAuNDczLTUuOTU3IDIxLjY0OC0xMC41OTQgMzMuMjYyLTEzLjgwMSA0LjgwNDctMS4zMjQyIDguNDE0MS01LjI5MyA5LjI3NzMtMTAuMTk5bDUuODIwMy0zMy4xMzNoNDcuNjUybDUuODIwMyAzMy4xMzNjMC44NjMyOCA0LjkwNjIgNC40NzI3IDguODc1IDkuMjczNCAxMC4xOTkgMTEuNjIxIDMuMjEwOSAyMi43OTcgNy44NDM4IDMzLjI3NyAxMy44MDEgNC4zMjgxIDIuNDYwOSA5LjY4NzUgMi4yMTA5IDEzLjc2Ni0wLjY0ODQ0bDI3LjYwMi0xOS4zMzIgMzMuNjk1IDMzLjY5NS0xOS4zMzIgMjcuNjAyaC0wLjAwMzkwNmMtMi44NTU1IDQuMDgyLTMuMTA1NSA5LjQ0NTMtMC42NDQ1MyAxMy43NzcgNS45NjQ4IDEwLjQ3MyAxMC41OTggMjEuNjUyIDEzLjc5NyAzMy4yNzMgMS4zMjQyIDQuODA0NyA1LjI5NjkgOC40MTQxIDEwLjIwMyA5LjI3NzNsMzMuMTMzIDUuODIwM3ptLTE4NC4zNy0xMjUuMzNjLTI2LjkxOCAwLTUyLjczNCAxMC42OTEtNzEuNzcgMjkuNzI3LTE5LjAzMSAxOS4wMzEtMjkuNzI3IDQ0Ljg0OC0yOS43MjcgNzEuNzY2czEwLjY5MSA1Mi43MzQgMjkuNzIzIDcxLjc3YzE5LjAzMSAxOS4wMzEgNDQuODQ4IDI5LjcyNyA3MS43NjYgMjkuNzMgMjYuOTE4IDAgNTIuNzM0LTEwLjY4OCA3MS43Ny0yOS43MjMgMTkuMDM1LTE5LjAzMSAyOS43My00NC44NDQgMjkuNzM0LTcxLjc2Mi0wLjAyNzM0NC0yNi45MS0xMC43MjctNTIuNzE1LTI5Ljc1NC03MS43NDYtMTkuMDMxLTE5LjAyNy00NC44MzItMjkuNzM0LTcxLjc0Mi0yOS43NjJ6bTAgMTc3LjIxYy0yMC4wODIgMC0zOS4zNDQtNy45NzY2LTUzLjU0My0yMi4xOC0xNC4yMDMtMTQuMTk5LTIyLjE4LTMzLjQ2MS0yMi4xNzYtNTMuNTQzIDAtMjAuMDgyIDcuOTc2Ni0zOS4zNDQgMjIuMTgtNTMuNTQzIDE0LjIwMy0xNC4xOTkgMzMuNDY1LTIyLjE3NiA1My41NDctMjIuMTcyIDIwLjA4MiAwIDM5LjM0NCA3Ljk4MDUgNTMuNTM5IDIyLjE4NCAxNC4xOTkgMTQuMjAzIDIyLjE3NiAzMy40NjUgMjIuMTcyIDUzLjU0Ny0wLjAyMzQzOCAyMC4wNzQtOC4wMTE3IDM5LjMxNi0yMi4yMDcgNTMuNTEyLTE0LjE5NSAxNC4xOTEtMzMuNDM4IDIyLjE3Ni01My41MTIgMjIuMTk1em00NC4yNTgtMTA3LjM2aC0wLjAwMzkwNmM1LjAyNzMgNS4wMzEyIDUuMDI3MyAxMy4xODQgMCAxOC4yMTVsLTQ1LjA4NiA0NS4wODZoMC4wMDM5MDZjLTUuMDMxMiA1LjAyNzMtMTMuMTg0IDUuMDI3My0xOC4yMTUgMGwtMjUuMTk5LTI1LjE5OWgtMC4wMDM5MDZjLTIuNTAzOS0yLjM5ODQtMy45Mzc1LTUuNzAzMS0zLjk3NjYtOS4xNjgtMC4wMzkwNjMtMy40Njg4IDEuMzIwMy02LjgwNDcgMy43Njk1LTkuMjU3OCAyLjQ1MzEtMi40NTMxIDUuNzg1Mi0zLjgxMjUgOS4yNTM5LTMuNzc3MyAzLjQ2NDggMC4wMzkwNjIgNi43NzM0IDEuNDY4OCA5LjE3MTkgMy45NzI3bDE2LjEwNSAxNi4xMDUgMzYtMzZoLTAuMDAzOTA2YzUuMDMxMi01LjAwMzkgMTMuMTY0LTQuOTkyMiAxOC4xOCAwLjAyMzQzOHptNjY2LjQzLTM4OC4zNGgtOTAwYy0yMy42MzMgMC4wMjczNDQtNDYuMjkzIDkuNDI1OC02My4wMDQgMjYuMTMzLTE2LjcxNSAxNi43MTEtMjYuMTE3IDM5LjM3MS0yNi4xNDUgNjMuMDA0djU5NC43N2MwLjAyNzM0NCAyMy42MzcgOS40Mjk3IDQ2LjI5MyAyNi4xNDUgNjMuMDA0IDE2LjcxMSAxNi43MTEgMzkuMzcxIDI2LjEwOSA2My4wMDQgMjYuMTMzaDI5My42OWwtMzcuOTM0IDE0MS42aC0yNS45MDZjLTIxLjkyMiAwLjAyNzM0NC00Mi45MzggOC43NS01OC40NDEgMjQuMjUtMTUuNSAxNS41MDQtMjQuMjIzIDM2LjUyLTI0LjI1IDU4LjQ0MXY2OS44MDVjMC4wMTE3MTkgNy4xMDk0IDUuNzc3MyAxMi44NjMgMTIuODg3IDEyLjg2M2g1NzkuOTFjMy40MTggMCA2LjY5NTMtMS4zNTk0IDkuMTEzMy0zLjc3MzQgMi40MTQxLTIuNDE4IDMuNzczNC01LjY5NTMgMy43NzM0LTkuMTEzM3YtNjkuODA1Yy0wLjAyNzM0NC0yMS45MjItOC43NS00Mi45NDEtMjQuMjUtNTguNDQxLTE1LjUwNC0xNS41LTM2LjUyLTI0LjIyMy01OC40NDEtMjQuMjVoLTI1LjkxbC0zNy45MzQtMTQxLjZoMjkzLjY5YzIzLjYzMy0wLjAyMzQzNyA0Ni4yOTMtOS40MjU4IDYzLjAwNC0yNi4xMzMgMTYuNzE1LTE2LjcxMSAyNi4xMTctMzkuMzcxIDI2LjE0NS02My4wMDR2LTU5NC43NGMtMC4wMjczNDQtMjMuNjMzLTkuNDI5Ny00Ni4yOTMtMjYuMTQ1LTYzLjAwNC0xNi43MTEtMTYuNzA3LTM5LjM3MS0yNi4xMDUtNjMuMDA0LTI2LjEzM3ptLTE3Mi45MyA5OTcuMzF2NTYuOTE0aC01NTQuMTN2LTU2LjkxNGMwLjAxNTYyNS0xNS4wOSA2LjAxNTYtMjkuNTU5IDE2LjY4OC00MC4yMyAxMC42NjgtMTAuNjY4IDI1LjEzNy0xNi42NzIgNDAuMjI3LTE2LjY4OGg0NDAuM2MxNS4wOSAwLjAxOTUzMSAyOS41NTUgNi4wMjM0IDQwLjIyMyAxNi42OTEgMTAuNjcyIDEwLjY3MiAxNi42NzYgMjUuMTM3IDE2LjY5MSA0MC4yMjd6bS0xMDkuNTEtODIuNjkxaC0zMzUuMTFsMzcuOTUzLTE0MS41OGgyNTkuMnptMzQ1Ljc4LTIzMC43MWMtMC4wMTk1MzIgMTYuODAxLTYuNzAzMSAzMi45MS0xOC41ODIgNDQuNzg5LTExLjg4MyAxMS44NzUtMjcuOTg4IDE4LjU1OS00NC43ODkgMTguNTc0aC04OTkuOTZjLTE2LjgwMS0wLjAxNTYyNS0zMi45MS02LjY5OTItNDQuNzg5LTE4LjU3NC0xMS44NzktMTEuODc5LTE4LjU2Mi0yNy45ODgtMTguNTgyLTQ0Ljc4OXYtNTk0Ljc3YzAuMDE5NTMyLTE2LjgwMSA2LjcwNy0zMi45MDYgMTguNTg2LTQ0Ljc4MSAxMS44NzktMTEuODc5IDI3Ljk4NC0xOC41NTkgNDQuNzg1LTE4LjU3OGg5MDBjMTYuODAxIDAuMDE5NTMxIDMyLjkwNiA2LjY5OTIgNDQuNzg1IDE4LjU3OCAxMS44NzkgMTEuODc1IDE4LjU2NiAyNy45OCAxOC41ODYgNDQuNzgxem0tMzU4LjQ2LTMwMy41IDQuMzY3Mi0yNC44OThjNS4wMjM0LTEuNzM0NCA5LjkzNzUtMy43Njk1IDE0LjcxNS02LjA5NzdsMjAuNjk5IDE0LjUwOGM1LjE0NDUgMy42MDE2IDEyLjEzNyAyLjk2MDkgMTYuNTQ3LTEuNTExN2wzNi41MTYtMzYuNTE2YzQuNDI1OC00LjQyMTkgNS4wMzUyLTExLjM4NyAxLjQ0MTQtMTYuNTEybC0xNC41Mi0yMC42OTljMi4zMzItNC43NzM0IDQuMzc1LTkuNjg3NSA2LjEwNTUtMTQuNzExbDI0Ljg4Ny00LjM2NzJoMC4wMDM5MDZjNi4xNjQxLTEuMDgyIDEwLjY2LTYuNDM3NSAxMC42NTYtMTIuNjk5di01MS42MDIgMC4wMDM5MDZjMC4wMDM5MDctNi4yNjE3LTQuNDkyMi0xMS42MTctMTAuNjU2LTEyLjY5NWwtMjQuODg3LTQuMzY3Mi0wLjAwMzkwNi0wLjAwMzkwNmMtMS43MzQ0LTUuMDIzNC0zLjc3MzQtOS45MzM2LTYuMTA1NS0xNC43MTFsMTQuNTItMjAuNjk5YzMuNTkzOC01LjEyNSAyLjk4NDQtMTIuMDg2LTEuNDQxNC0xNi41MTJsLTM2LjUxNi0zNi41MjdjLTQuNDIxOS00LjQyOTctMTEuMzkxLTUuMDM5MS0xNi41MTItMS40NDE0bC0yMC42ODggMTQuNDYxYy00Ljc5NjktMi4yOTMtOS43MjY2LTQuMjkzLTE0Ljc2Mi02bC00LjM2NzItMjQuODk4di0wLjAwMzkwNmMtMS4wOTM4LTYuMTU2Mi02LjQ0MTQtMTAuNjQ1LTEyLjY5NS0xMC42NTZoLTUxLjYwMmMtNi4yNSAwLjAwNzgxMi0xMS41OTggNC41LTEyLjY4NCAxMC42NTZsLTQuNDI1OCAyNC45MDJjLTUuMDAzOSAxLjcwMzEtOS45MDIzIDMuNzAzMS0xNC42NjQgNmwtMjAuNzUtMTQuNDAyYy01LjEyMTEtMy41OTM4LTEyLjA5LTIuOTg4My0xNi41MTIgMS40NDE0bC0zNi41MTYgMzYuNTE2Yy00LjQyNTggNC40MjU4LTUuMDMxMiAxMS4zOTEtMS40Mzc1IDE2LjUxMmwxNC41MiAyMC42OTljLTIuMzM1OSA0Ljc3NzMtNC4zNzUgOS42OTE0LTYuMTA5NCAxNC43MTVsLTI0Ljg4NyA0LjM2NzJjLTYuMTY4IDEuMDc4MS0xMC42NjQgNi40Mzc1LTEwLjY1NiAxMi42OTV2NTEuNjAyYy0wLjAwNzgxMyA2LjI1NzggNC40ODgzIDExLjYxNyAxMC42NTYgMTIuNjk1bDI0Ljg4NyA0LjM2NzJjMS43MzQ0IDUuMDIzNCAzLjc3MzQgOS45Mzc1IDYuMTA5NCAxNC43MTFsLTE0LjUyIDIwLjY5OXYwLjAwMzkwNmMtMy41OTM4IDUuMTIxMS0yLjk4ODMgMTIuMDg2IDEuNDM3NSAxNi41MTJsMzYuNTc4IDM2LjQ2NWM0LjQyMTkgNC40Mjk3IDExLjM4NyA1LjAzOTEgMTYuNTEyIDEuNDQxNGwyMC42ODgtMTQuNDg0YzQuNzc3MyAyLjMyODEgOS42ODc1IDQuMzYzMyAxNC43MTEgNi4wOTc3bDQuMzc4OSAyNC44OThjMS4wODU5IDYuMTYwMiA2LjQzMzYgMTAuNjUyIDEyLjY4NCAxMC42NTZoNTEuNjAyYzYuMjM4My0wLjAwMzkwNiAxMS41ODItNC40Njg4IDEyLjY5NS0xMC42MDl6bS0xOS42NTYtMzcuMTk5LTMuODYzMyAyMS45ODRoLTMwbC0zLjg2MzMtMjEuOTg0Yy0wLjg2NzE5LTQuOTAyMy00LjQ3NjYtOC44NzExLTkuMjc3My0xMC4xOTktOC4zODI4LTIuMzE2NC0xNi40NDEtNS42NjgtMjQtOS45NzI3LTQuMzI4MS0yLjQ2MDktOS42OTE0LTIuMjA3LTEzLjc2MiAwLjY2MDE2bC0xOC4yODkgMTIuODE2LTIxLjIxNS0yMS4yMTUgMTIuODI4LTE4LjI3N2MyLjg1NTUtNC4wODIgMy4xMDU1LTkuNDQxNCAwLjY0ODQ0LTEzLjc3Ny00LjMwNDctNy41NTQ3LTcuNjUyMy0xNS42MTctOS45NzI3LTI0LTEuMzI0Mi00LjgwMDgtNS4yOTY5LTguNDEwMi0xMC4yMDMtOS4yNzM0bC0yMS45NzMtMy44NTE2di0zMGwyMS45NzMtMy44NTE2YzQuOTA2Mi0wLjg2MzI4IDguODc4OS00LjQ3NjYgMTAuMjAzLTkuMjc3MyAyLjMyMDMtOC4zODI4IDUuNjY4LTE2LjQ0MSA5Ljk3MjctMjQgMi40NTctNC4zMzIgMi4yMDctOS42OTUzLTAuNjQ4NDQtMTMuNzc3bC0xMi44MjgtMTguMjc3IDIxLjIxNS0yMS4yMTUgMTguMjM4IDEyLjc1OGM0LjA3NDIgMi44NjMzIDkuNDM3NSAzLjEyMTEgMTMuNzY2IDAuNjYwMTYgNy41NTg2LTQuMzA0NyAxNS42MTctNy42NTYyIDI0LTkuOTcyNyA0LjgwMDgtMS4zMjQyIDguNDA2Mi01LjI5NjkgOS4yNjU2LTEwLjE5OWwzLjg2MzMtMjEuOTg0aDMwbDMuODYzMyAyMS45ODRjMC44NTU0NyA0LjkwMjMgNC40NjQ4IDguODc1IDkuMjY1NiAxMC4xOTkgOC4zNzg5IDIuMzE2NCAxNi40NDEgNS42NjQxIDI0IDkuOTcyNyA0LjMzMiAyLjQ2MDkgOS42OTUzIDIuMjAzMSAxMy43NzMtMC42NjAxNmwxOC4yODktMTIuODE2IDIxLjIxNSAyMS4yMTUtMTIuODI4IDE4LjI3N2MtMi44NTU1IDQuMDgyLTMuMTA1NSA5LjQ0MTQtMC42NDg0NCAxMy43NzcgNC4zMDg2IDcuNTU0NyA3LjY2MDIgMTUuNjEzIDkuOTcyNyAyNCAxLjMyNDIgNC44MDA4IDUuMjk2OSA4LjQxMDIgMTAuMTk5IDkuMjczNGwyMS45NzMgMy44NTE2djMwbC0yMS45NzMgMy44NTE2Yy00LjkwMjMgMC44NjMyOC04Ljg3NSA0LjQ3NjYtMTAuMTk5IDkuMjc3My0yLjMxMjUgOC4zODI4LTUuNjY0MSAxNi40NDUtOS45NzI3IDI0LTIuNDU3IDQuMzMyLTIuMjA3IDkuNjk1MyAwLjY0ODQ0IDEzLjc3N2wxMi44MTYgMTguMjc3LTIxLjIwMyAyMS4yMTUtMTguMjg5LTEyLjgxNmMtNC4wNzQyLTIuODY3Mi05LjQzMzYtMy4xMjUtMTMuNzYyLTAuNjYwMTYtNy41NTQ3IDQuMzA4Ni0xNS42MTcgNy42NTYyLTI0IDkuOTcyNy00Ljc5NjkgMS4zNTU1LTguMzgyOCA1LjM0NzctOS4yMTg4IDEwLjI1OHptMzkuNzgxLTExMi4xNGMtMC4wMDc4MTMtMTUuNTUxLTYuMTk5Mi0zMC40NjUtMTcuMjAzLTQxLjQ1Ny0xMS4wMDQtMTAuOTkyLTI1LjkyNi0xNy4xNi00MS40OC0xNy4xNDgtMTUuNTU1IDAuMDA3ODEzLTMwLjQ2OSA2LjE5OTItNDEuNDU3IDE3LjIwMy0xMC45OTIgMTEuMDA4LTE3LjE2IDI1LjkzLTE3LjE0OCA0MS40ODRzNi4yMDMxIDMwLjQ2NSAxNy4yMTEgNDEuNDU3YzExLjAwOCAxMC45ODggMjUuOTMgMTcuMTU2IDQxLjQ4IDE3LjE0MSAxNS41MzktMC4wMjczNDMgMzAuNDM0LTYuMjE0OCA0MS40MTgtMTcuMjAzIDEwLjk4LTEwLjk5MiAxNy4xNi0yNS44OTEgMTcuMTgtNDEuNDI2em0tNTguNTk4IDMyLjk0MWMtOC43MTQ4IDAtMTcuMDc0LTMuNDYwOS0yMy4yMzgtOS42MjUtNi4xNjQxLTYuMTY0MS05LjYyODktMTQuNTI3LTkuNjI4OS0yMy4yNDIgMC04LjcxODggMy40NjQ4LTE3LjA3OCA5LjYyODktMjMuMjQyIDYuMTY0MS02LjE2NDEgMTQuNTIzLTkuNjI1IDIzLjIzOC05LjYyNSA4LjcxODggMCAxNy4wNzggMy40NjA5IDIzLjI0MiA5LjYyNXM5LjYyODkgMTQuNTIzIDkuNjI4OSAyMy4yNDJjLTAuMDExNzE5IDguNzE0OC0zLjQ3NjYgMTcuMDY2LTkuNjQwNiAyMy4yMy02LjE2MDIgNi4xNjAyLTE0LjUxNiA5LjYyODktMjMuMjMgOS42MzY3em0zMjYuNCAyMjkuOTEtMjYuOTAyLTQuNzI2NmMtMS45MTAyLTUuNjAxNi00LjE3OTctMTEuMDc4LTYuNzg5MS0xNi4zOTFsMTUuNjg0LTIyLjM2N2MzLjU4OTgtNS4xMjUgMi45ODQ0LTEyLjA5LTEuNDQxNC0xNi41MTZsLTM4Ljc4NS0zOC43ODV2MC4wMDM5MDZjLTQuNDIxOS00LjQyNTgtMTEuMzg3LTUuMDMxMi0xNi41MTItMS40NDE0bC0yMi40NDkgMTUuNjZjLTUuMzE2NC0yLjYxMzMtMTAuNzk3LTQuODgyOC0xNi40MDYtNi43OTNsLTQuNzAzMS0yNi45NDljLTEuMDg5OC02LjE2NDEtNi40NDE0LTEwLjY1Mi0xMi42OTUtMTAuNjU2aC01NC44NGMtNi4yNjE3LTAuMDA3ODEyLTExLjYxNyA0LjQ4ODMtMTIuNjk1IDEwLjY1NmwtNC43MjY2IDI2LjkwMmgtMC4wMDM5MDZjLTUuNjA1NSAxLjkxMDItMTEuMDc4IDQuMTc1OC0xNi4zOTEgNi43OTNsLTIyLjM3OS0xNS42MzdjLTUuMTIxMS0zLjU4OTgtMTIuMDgyLTIuOTg0NC0xNi41IDEuNDQxNGwtMzguNzg1IDM4Ljc4NXYtMC4wMDM5MDdjLTQuNDM3NSA0LjQxOC01LjA1ODYgMTEuMzgzLTEuNDc2NiAxNi41MTJsMTUuNzE5IDIyLjQwNmMtMi42MDk0IDUuMzEyNS00Ljg4MjggMTAuNzg5LTYuODA0NyAxNi4zOTFsLTI2Ljg5MSA0LjcyNjZ2MC4wMDM5MDZjLTYuMTY0MSAxLjA3ODEtMTAuNjYgNi40MzM2LTEwLjY1NiAxMi42OTV2NTQuODRjLTAuMDAzOTA3IDYuMjU3OCA0LjQ5MjIgMTEuNjE3IDEwLjY1NiAxMi42OTVsMjYuODkxIDQuNzI2NmMxLjkyNTggNS41NzgxIDQuMTk5MiAxMS4wMzEgNi44MDQ3IDE2LjMybC0xNS43MTkgMjIuNDA2Yy0zLjU5MzggNS4xMjExLTIuOTg0NCAxMi4wODYgMS40NDE0IDE2LjUxMmwzOC43ODUgMzguNzg1LTAuMDAzOTA2LTAuMDAzOTA2YzQuNDIxOSA0LjQyNTggMTEuMzgzIDUuMDMxMiAxNi41IDEuNDQxNGwyMi40NzctMTUuNjg0YzUuMzEyNSAyLjYxMzMgMTAuNzg5IDQuODgyOCAxNi4zOTUgNi43OTNsNC43MjY2IDI2LjkwMmMxLjA3ODEgNi4xNjggNi40Mzc1IDEwLjY2NCAxMi42OTUgMTAuNjU2aDU0Ljg0YzYuMjU3OC0wLjAwMzkwNiAxMS42MDktNC40OTYxIDEyLjY5NS0xMC42NTZsNC43MTQ4LTI2LjkwMmgwLjAwMzkwNmM1LjYwNTUtMS45MTAyIDExLjA4Ni00LjE3OTcgMTYuNDAyLTYuNzkzbDIyLjMwOSAxNS43NDJjNS4xMjUgMy41OTM4IDEyLjA4NiAyLjk4ODMgMTYuNTEyLTEuNDM3NWwzOC43ODUtMzguNzg1YzQuNDIxOS00LjQyNTggNS4wMzEyLTExLjM4NyAxLjQzNzUtMTYuNTEybC0xNS42ODQtMjIuNDY1YzIuNjEzMy01LjMxMjUgNC44ODI4LTEwLjc4OSA2Ljc5My0xNi4zOTFsMjYuOTAyLTQuNzI2NnYtMC4wMDM5MDZjNi4xNjgtMS4wNzgxIDEwLjY2NC02LjQzMzYgMTAuNjU2LTEyLjY5NXYtNTQuODRjLTAuMDExNzE4LTYuMjQ2MS00LjUwMzktMTEuNTgyLTEwLjY1Ni0xMi42NnptLTE1LjEyMSA1Ni43MTEtMjQgNC4yMjI3IDAuMDAzOTA3IDAuMDAzOTA2Yy00LjkwMjMgMC44NTkzOC04Ljg3MTEgNC40NjQ4LTEwLjE4OCA5LjI2NTYtMi40ODA1IDguOTgwNS02LjA2MjUgMTcuNjI1LTEwLjY2OCAyNS43MjctMi40ODgzIDQuMzEyNS0yLjI2NTYgOS42NzU4IDAuNTc0MjIgMTMuNzY2bDEzLjk5MiAxOS45NTctMjMuNDY5IDIzLjQ2OS0xOS45MjItMTQuMDA0Yy00LjA3NDItMi44NjMzLTkuNDM3NS0zLjExMzMtMTMuNzY2LTAuNjQ4NDQtOC4xMDE2IDQuNjA1NS0xNi43NDIgOC4xODc1LTI1LjcyNyAxMC42NjgtNC44MDA4IDEuMzE2NC04LjQxMDIgNS4yODUyLTkuMjY1NiAxMC4xODhsLTQuMjIyNyAyNGgtMzMuMjVsLTQuMjEwOS0yNGgtMC4wMDM5MDZjLTAuODU5MzgtNC45MDIzLTQuNDcyNy04Ljg3MTEtOS4yNzM0LTEwLjE4OC04Ljk4MDUtMi40ODA1LTE3LjYxNy02LjA2MjUtMjUuNzE5LTEwLjY2OC00LjMyNDItMi40NjQ4LTkuNjg3NS0yLjIxNDgtMTMuNzYyIDAuNjQ4NDRsLTE5Ljk2OSAxNC4wMDQtMjMuNDg0LTIzLjQ4NCAxNC4wMDQtMTkuOTQxYzIuODU1NS00LjA4NTkgMy4xMDk0LTkuNDQ1MyAwLjY0ODQ0LTEzLjc3Ny00LjYwNTUtOC4xMDE2LTguMTg3NS0xNi43NDYtMTAuNjY4LTI1LjcyNy0xLjMyMDMtNC44MDQ3LTUuMjkzLTguNDE0MS0xMC4xOTktOS4yNjU2bC0yNC00LjIyMjd2LTMzLjIwN2wyNC00LjIyMjdjNC45MDYyLTAuODUxNTYgOC44Nzg5LTQuNDYwOSAxMC4xOTktOS4yNjU2IDIuNDgwNS04Ljk4MDUgNi4wNjI1LTE3LjYyNSAxMC42NjgtMjUuNzI3IDIuNDYwOS00LjMzMiAyLjIwNy05LjY5MTQtMC42NDg0NC0xMy43NzdsLTE0LjAwNC0xOS45NTcgMjMuNDg0LTIzLjQ4NCAxOS45NjkgMTQuMDA4YzQuMDc4MSAyLjg1NTUgOS40MzM2IDMuMTA5NCAxMy43NjIgMC42NDg0NCA4LjA5NzctNC42MDU1IDE2LjczOC04LjE4MzYgMjUuNzE5LTEwLjY1NiA0LjgwMDgtMS4zMjgxIDguNDEwMi01LjI5NjkgOS4yNzM0LTEwLjE5OWw0LjIxMDktMjRoMzMuMjAzbDQuMjIyNyAyNGgwLjAwMzkwNmMwLjg1NTQ3IDQuOTAyMyA0LjQ2NDggOC44NzUgOS4yNjU2IDEwLjE5OSA4Ljk4NDQgMi40Njg4IDE3LjYyNSA2LjA1MDggMjUuNzI3IDEwLjY1NiA0LjMyNDIgMi40NzI3IDkuNjkxNCAyLjIxODggMTMuNzY2LTAuNjQ4NDRsMTkuOTY5LTE0LjAwNCAyMy40NzMgMjMuNDg0LTEzLjk5NiAxOS45NDFjLTIuODY3MiA0LjA3ODEtMy4xMTcyIDkuNDQ5Mi0wLjY0NDUzIDEzLjc3NyA0LjYwMTYgOC4xMDE2IDguMTg3NSAxNi43NDYgMTAuNjY4IDI1LjcyNyAxLjMxNjQgNC44MDA4IDUuMjg1MiA4LjQxMDIgMTAuMTg4IDkuMjY1NmwyNCA0LjIyMjd6bS0xNDMuMjgtNzguMDk0Yy0xNi4zMDUtMC4wMDM5MDctMzEuOTQ1IDYuNDY0OC00My40NzcgMTcuOTkyLTExLjUzNSAxMS41MjctMTguMDIgMjcuMTY0LTE4LjAyMyA0My40NjktMC4wMDM5MDcgMTYuMzA1IDYuNDcyNyAzMS45NDUgMTggNDMuNDc3IDExLjUyNyAxMS41MzEgMjcuMTY0IDE4LjAxMiA0My40NjkgMTguMDE2IDE2LjMwOSAwIDMxLjk0NS02LjQ3MjcgNDMuNDc3LTE4LjAwNCAxMS41MzEtMTEuNTI3IDE4LjAwOC0yNy4xNjggMTguMDA4LTQzLjQ3My0wLjAxOTUzMS0xNi4yOTMtNi41LTMxLjkxOC0xOC4wMi00My40NDEtMTEuNTItMTEuNTIzLTI3LjEzNy0xOC4wMDgtNDMuNDM0LTE4LjAzNXptMCA5Ny4xOTljLTkuNDY0OCAwLjAwNzgxMy0xOC41NTEtMy43NDYxLTI1LjI1LTEwLjQzOC02LjY5OTItNi42OTE0LTEwLjQ2NS0xNS43Ny0xMC40NzMtMjUuMjM4LTAuMDA3ODEyLTkuNDY4OCAzLjc1LTE4LjU1MSAxMC40NDEtMjUuMjUgNi42ODc1LTYuNjk5MiAxNS43NjYtMTAuNDY1IDI1LjIzNC0xMC40NzMgOS40Njg4LTAuMDA3ODEzIDE4LjU1MSAzLjc1IDI1LjI1IDEwLjQzOCA2LjY5OTIgNi42OTE0IDEwLjQ2OSAxNS43NyAxMC40NzMgMjUuMjM4LTAuMDA3ODEzIDkuNDYwOS0zLjc2OTUgMTguNTMxLTEwLjQ1NyAyNS4yMjctNi42ODc1IDYuNjkxNC0xNS43NTggMTAuNDU3LTI1LjIxOSAxMC40NzN6Ii8+JiN4YTs8L3N2Zz4=;" vertex="1" parent="5pn5844G3AZOIJAPQa10-35">
          <mxGeometry y="0.7899999999999636" width="68.29" height="68.42" as="geometry" />
        </mxCell>
        <mxCell id="5pn5844G3AZOIJAPQa10-22" value="FMS" style="text;html=1;align=center;verticalAlign=middle;whiteSpace=wrap;rounded=0;" vertex="1" parent="5pn5844G3AZOIJAPQa10-35">
          <mxGeometry x="4.139999999999986" y="80.78999999999996" width="60" height="30" as="geometry" />
        </mxCell>
        <mxCell id="5pn5844G3AZOIJAPQa10-23" value="" style="shape=image;verticalLabelPosition=bottom;labelBackgroundColor=default;verticalAlign=top;aspect=fixed;imageAspect=0;image=https://upload.wikimedia.org/wikipedia/commons/thumb/1/17/GraphQL_Logo.svg/2048px-GraphQL_Logo.svg.png;" vertex="1" parent="5pn5844G3AZOIJAPQa10-35">
          <mxGeometry x="160" width="70" height="70" as="geometry" />
        </mxCell>
        <mxCell id="5pn5844G3AZOIJAPQa10-26" value="FMS subgraph" style="text;html=1;align=center;verticalAlign=middle;whiteSpace=wrap;rounded=0;" vertex="1" parent="5pn5844G3AZOIJAPQa10-35">
          <mxGeometry x="165" y="80.78999999999996" width="60" height="30" as="geometry" />
        </mxCell>
        <mxCell id="5pn5844G3AZOIJAPQa10-37" value="Apollo Federation" style="text;html=1;align=center;verticalAlign=middle;whiteSpace=wrap;rounded=0;" vertex="1" parent="1">
          <mxGeometry x="1303" y="1511" width="60" height="30" as="geometry" />
        </mxCell>
        <mxCell id="5pn5844G3AZOIJAPQa10-38" style="edgeStyle=orthogonalEdgeStyle;rounded=0;orthogonalLoop=1;jettySize=auto;html=1;entryX=0.007;entryY=0.174;entryDx=0;entryDy=0;entryPerimeter=0;startArrow=classic;startFill=1;" edge="1" parent="1" source="5pn5844G3AZOIJAPQa10-23" target="5pn5844G3AZOIJAPQa10-36">
          <mxGeometry relative="1" as="geometry" />
        </mxCell>
        <mxCell id="5pn5844G3AZOIJAPQa10-39" style="edgeStyle=orthogonalEdgeStyle;rounded=0;orthogonalLoop=1;jettySize=auto;html=1;entryX=0;entryY=0.75;entryDx=0;entryDy=0;startArrow=classic;startFill=1;" edge="1" parent="1" source="5pn5844G3AZOIJAPQa10-29" target="5pn5844G3AZOIJAPQa10-36">
          <mxGeometry relative="1" as="geometry" />
        </mxCell>
        <mxCell id="5pn5844G3AZOIJAPQa10-40" value="" style="image;aspect=fixed;perimeter=ellipsePerimeter;html=1;align=center;shadow=0;dashed=0;spacingTop=3;image=img/lib/active_directory/laptop_client.svg;" vertex="1" parent="1">
          <mxGeometry x="1599.5" y="1289" width="45" height="50" as="geometry" />
        </mxCell>
        <mxCell id="5pn5844G3AZOIJAPQa10-42" value="" style="image;aspect=fixed;perimeter=ellipsePerimeter;html=1;align=center;shadow=0;dashed=0;spacingTop=3;image=img/lib/active_directory/generic_server.svg;" vertex="1" parent="1">
          <mxGeometry x="1608" y="1381.5" width="28.000000000000004" height="50" as="geometry" />
        </mxCell>
        <mxCell id="5pn5844G3AZOIJAPQa10-43" value="" style="image;aspect=fixed;perimeter=ellipsePerimeter;html=1;align=center;shadow=0;dashed=0;spacingTop=3;image=img/lib/active_directory/pda.svg;" vertex="1" parent="1">
          <mxGeometry x="1608.5" y="1474" width="27" height="50" as="geometry" />
        </mxCell>
        <mxCell id="5pn5844G3AZOIJAPQa10-47" value="Graphql operations" style="text;html=1;align=center;verticalAlign=middle;whiteSpace=wrap;rounded=0;" vertex="1" parent="1">
          <mxGeometry x="1457" y="1373" width="60" height="30" as="geometry" />
        </mxCell>
      </root>
    </mxGraphModel>
  </diagram>
</mxfile>
